<svg id="Layer_1" data-name="Layer 1" xmlns="http://www.w3.org/2000/svg" width="2.67in" height="0.79in" viewBox="0 0 191.88 56.6">
  <defs>
    <style>
      .cls-1 {
        fill: #df3227;
      }

      .cls-2 {
        fill: #156ab0;
      }

      .cls-3 {
        fill: #010101;
      }
    </style>
  </defs>
  <path id="H" class="cls-1" d="M15.82,38.36V21.86H8.34v16.5H0V.14H8.34V16.43h7.48V.14H24.1V38.36Z"/>
  <path id="O" class="cls-1" d="M41,38.29c-8.37,0-13.84-4.52-13.84-18.13S32.83,0,41.12,0,55.05,4.93,55.05,18.34C55.05,32.25,49.24,38.29,41,38.29Zm0-33.14c-3.57,0-5.62,4.74-5.62,13.26s2,14.7,5.62,14.7,5.56-4.58,5.56-13.2S44.63,5.15,41.08,5.15Z"/>
  <path id="L" class="cls-1" d="M58.15,38.15V.07h8.33V32.82l12.7-.53v5.84Z"/>
  <path id="S" class="cls-1" d="M91.06,38.29a28.92,28.92,0,0,1-8.73-1.12l.3-5.43a22,22,0,0,0,7.52,1.42c3.09,0,6.24-1.34,6.24-4.22,0-3.14-4.52-5.93-7.16-8.06-3.66-2.95-7-5.44-7-10.57,0-5.88,5.58-10.1,14.77-10.1a47.17,47.17,0,0,1,8.63.92l-.41,5.48a22.57,22.57,0,0,0-7.06-1.22C96,5.39,93.8,6.81,93.8,9.1S97.31,14,100.25,16c4.82,3.3,7.66,6.34,7.66,11.52S102.63,38.29,91.06,38.29Z"/>
  <path id="T" class="cls-1" d="M127.82,5.39v33h-8.43v-33H111V.11h25.25V5.39Z"/>
  <path id="E" class="cls-1" d="M139.34,38.21V.13H161V5.27H147.59V15.7h7.8v4.93h-7.78V33.17H161v5Z"/>
  <path id="N" class="cls-1" d="M185.87,38.26,172.39,16.08l.07,22.18h-8.37V0h6.25l13.33,22.87L183.47,0h8.41V38.26Z"/>
  <g>
    <path class="cls-2" d="M142.9,41.25c.61.07.92.79.76,1.58a1.34,1.34,0,0,1-1.28,1.29,1.25,1.25,0,0,1-.76-1.58C141.75,41.78,142.38,41.18,142.9,41.25Zm-2.53.59c.46.07.67.53.62,1.13a.8.8,0,0,1-1.57.27.84.84,0,0,1,0-.41C139.6,42.24,139.91,41.84,140.37,41.84Zm-2,.6a.77.77,0,0,1,.67.79c0,.39-.3.85-.67.85a.78.78,0,0,1-.67-.85A.77.77,0,0,1,138.37,42.44ZM137,43.3a.61.61,0,0,1,.67.59.67.67,0,0,1-.38.79.61.61,0,0,1-.67-.6A.66.66,0,0,1,137,43.3Zm-.67.92a.55.55,0,0,1,.46.59.48.48,0,0,1-.43.53h0a.56.56,0,0,1-.46-.59.5.5,0,0,1,.41-.53Zm4.68.59c.67,0,2.07.14,2.07,1.52,0,2-2.76,2-2.76,4.22,0,1.78,2.15,2,2.07,4-.08,1-.46,2-2.45,2a2,2,0,0,1-2.07-2v-.13c0-2.77-2.15-3.63-2-6.34,0-2.82,3.71-3.3,5.09-3.3Z"/>
    <path class="cls-3" d="M142.8,41.25c.61.07.93.78.77,1.56A1.33,1.33,0,0,1,142.23,44a1.22,1.22,0,0,1-.77-1.55h0C141.64,41.77,142.26,41.18,142.8,41.25Zm-2.55.58c.46.07.66.52.62,1.11a.89.89,0,0,1-.85.91.87.87,0,0,1-.67-1h0C139.48,42.23,139.78,41.83,140.25,41.83Zm-2,.59a.77.77,0,0,1,.67.78c0,.39-.31.84-.67.84a.82.82,0,0,1-.68-.94A.81.81,0,0,1,138.24,42.42Zm-1.39.84a.72.72,0,0,1,.28,1.37.72.72,0,0,1-.28-1.37Zm-.67.91a.56.56,0,0,1,.46.59.47.47,0,0,1-.42.52h0a.56.56,0,0,1-.47-.59.5.5,0,0,1,.45-.52Zm4.71.59c.67,0,2.09.13,2.09,1.49,0,2-2.78,2-2.78,4.16,0,1.76,2.16,2,2.08,4-.08,1-.46,2-2.47,2a2.05,2.05,0,0,1-2.11-2v-.15c0-2.72-2.17-3.57-2-6.23,0-2.8,3.79-3.22,5.18-3.22Z"/>
  </g>
  <g>
    <path class="cls-2" d="M158.63,41.25c-.62.07-.94.79-.78,1.58a1.33,1.33,0,0,0,1.34,1.25,1.25,1.25,0,0,0,.78-1.57C159.76,41.78,159.17,41.18,158.63,41.25Zm2.55.59c-.46.07-.67.53-.62,1.13a.89.89,0,0,0,.86.92.88.88,0,0,0,.66-1h0C162,42.24,161.65,41.84,161.18,41.84Zm2,.6a.77.77,0,0,0-.7.79c0,.39.31.85.7.85a.84.84,0,0,0,0-1.64Zm1.39.86a.61.61,0,0,0-.67.59.56.56,0,1,0,1.05.19.65.65,0,0,0-.37-.78Zm.7.92a.56.56,0,0,0-.47.59.49.49,0,0,0,.43.53h0a.56.56,0,0,0,.46-.59.49.49,0,0,0-.44-.53h0Zm-4.72.57c-.67,0-2.09.13-2.09,1.51,0,2,2.79,2,2.79,4.22,0,1.79-2.17,2-2.09,4,.07,1.06.46,2,2.48,2a2.07,2.07,0,0,0,2.12-2v-.13c0-2.77,2.17-3.62,2-6.33C165.77,45.27,162,44.79,160.56,44.79Z"/>
    <path class="cls-3" d="M158.55,41.25c-.62.07-.92.78-.77,1.56A1.33,1.33,0,0,0,159.12,44a1.23,1.23,0,0,0,.76-1.55C159.69,41.77,159.09,41.18,158.55,41.25Zm2.52.58c-.46.07-.67.52-.62,1.11a.79.79,0,0,0,1.56.22.69.69,0,0,0,0-.35c-.15-.58-.46-1-.89-1Zm2,.59a.77.77,0,0,0-.67.78c0,.39.31.84.67.84a.82.82,0,0,0,0-1.62Zm1.34.84a.72.72,0,0,0-.28,1.37.64.64,0,0,0,.67-.59.68.68,0,0,0-.36-.78Zm.67.91a.56.56,0,0,0-.46.59.47.47,0,0,0,.42.52h0a.56.56,0,0,0,.46-.59.49.49,0,0,0-.43-.52Zm-4.65.62c-.67,0-2.06.12-2.06,1.49,0,1.95,2.74,1.95,2.74,4.16,0,1.75-2.13,2-2.05,4,.07,1,.45,2,2.44,2a2,2,0,0,0,2.06-2v-.12c0-2.73,2.13-3.58,2-6.24C165.57,45.21,161.83,44.79,160.43,44.79Z"/>
  </g>
  <path class="cls-2" d="M77.65,45v9.45H74.53V45h-3V43.45h9V45Z"/>
  <path class="cls-2" d="M56.59,48.13c-.07-.18-.3-.2-.49-.2h-.67c-.2,0-.59,0-.6-.14a.11.11,0,0,0,0-.08,2.15,2.15,0,0,0,.8-.16,1.25,1.25,0,0,0,.54-.5,1,1,0,0,0,.11-.67,1.1,1.1,0,0,0-.37-.63,1.33,1.33,0,0,0-.71-.3h-.08a.81.81,0,0,0-.31-.78,1.07,1.07,0,0,0-1-.23,1.07,1.07,0,0,0-.2-.38,1.45,1.45,0,0,0-.83-.52,1.63,1.63,0,0,0-1,.07,1.64,1.64,0,0,0-1.19-.16,1.46,1.46,0,0,0-1,.87,1.17,1.17,0,0,0-.06.45,1,1,0,0,0-.63.24.81.81,0,0,0-.27.57,1.05,1.05,0,0,0-.86,1,1.12,1.12,0,0,0,1.21,1h0s0,2.79-.09,3.75a14.94,14.94,0,0,1-.31,2.2h0l-.11.47a.4.4,0,0,0,.34.45h6a.38.38,0,0,0,.41-.36.27.27,0,0,0,0-.09l-.11-.49h0a.56.56,0,0,1,0-.12c0-.61,1.06-1.06,1.43-1.68A7.16,7.16,0,0,0,56.59,48.13ZM53.92,45v-.14a.68.68,0,0,1,.67.12.51.51,0,0,1,.16.52,1.48,1.48,0,0,0-.27.1,1.89,1.89,0,0,0-.27.2l-.07,0a.93.93,0,0,0-.46-.18,1.1,1.1,0,0,0,.22-.6ZM48.2,46.6a.7.7,0,0,1,.55-.66.75.75,0,0,0,.44.38.86.86,0,0,1-.21-.57.68.68,0,0,1,.24-.48.81.81,0,0,1,.41-.19,1.3,1.3,0,0,0,.16.31.92.92,0,0,0-.1.36.91.91,0,0,0,.18.56,1.11,1.11,0,0,0,1.06.33,1,1,0,0,1-.81-.46.66.66,0,0,1,.09-.77.86.86,0,0,1,.79-.28.93.93,0,0,1,.72.56.82.82,0,0,0-.66-.82,1.16,1.16,0,0,0-.64,0,1.11,1.11,0,0,0-.53.34l-.06.09a1.24,1.24,0,0,1,.14-.82,1.27,1.27,0,0,1,.83-.62,1.45,1.45,0,0,1,1,.14,1.43,1.43,0,0,1,.67.87,1.09,1.09,0,0,0-.3-1,1.3,1.3,0,0,1,1.23.35,1.11,1.11,0,0,1,.16,1.23.86.86,0,0,0-.32,0,.76.76,0,0,0-.56.51,1.07,1.07,0,0,1,.62-.25.83.83,0,0,1,.54.17.61.61,0,0,1,.28.45.82.82,0,0,1-.14.59.7.7,0,0,0,.44-.6.82.82,0,0,0-.18-.56,1.17,1.17,0,0,1,.84-.11.91.91,0,0,1,.67.67c.07.31-.15.85-1.1.85H53.52a.87.87,0,0,0-.49-.81.77.77,0,0,1,.33.59.89.89,0,0,1-.44.72.78.78,0,0,1-.78,0,1.8,1.8,0,0,0,.08-.21,1.06,1.06,0,0,0-.29-1,1,1,0,0,1,0,1.14,1.14,1.14,0,0,1-1.33.4.88.88,0,0,1-.67-.83h-.79a.72.72,0,0,1-.9-.59Zm5.16,5.26a.25.25,0,0,1,.24.26h0a.26.26,0,0,1-.28.22.26.26,0,0,1-.25-.26.26.26,0,0,1,.25-.26h0ZM53,49.59a.39.39,0,0,1,.78.06.38.38,0,0,1-.42.32A.37.37,0,0,1,53,49.6v0ZM53.58,51a.33.33,0,0,1-.33-.33h0a.37.37,0,0,1,.38-.3.34.34,0,0,1,.32.34h0a.33.33,0,0,1-.38.26Zm-.87-2.23a.2.2,0,0,1,0,.11.37.37,0,0,1-.41.32.36.36,0,0,1-.36-.36v0c-.91.16-1.64.47-2.33.16V47.57a1.28,1.28,0,0,0,.94.86A1.49,1.49,0,0,0,52,48.06a1.19,1.19,0,0,0,1.44-.41h.72V49a4.08,4.08,0,0,0-1.51-.27Zm-.17,2.38a.29.29,0,0,1,.29.27v0a.31.31,0,0,1-.33.26.29.29,0,0,1-.29-.3h0a.3.3,0,0,1,.32-.28h0Zm-.34-.4a.4.4,0,0,1-.41-.4h0a.43.43,0,0,1,.47-.37.42.42,0,0,1,.41.42h0a.42.42,0,0,1-.48.33Zm.39,1.62a.27.27,0,0,1,.28.26v0a.28.28,0,0,1-.31.24h0a.27.27,0,0,1-.27-.27h0a.28.28,0,0,1,.29-.28h0Zm-3,.77h0a12.88,12.88,0,0,0,.3-2c.07-1,.1-1.65.1-1.65h.38s0,.67-.1,1.65-.1,2-.1,2l-.71.37Zm-.06.82c.67-.11,1.26-.84,2.57-.85h0a3.25,3.25,0,0,1,.82.12h0a.23.23,0,0,1,.25-.2.22.22,0,0,1,.22.22h0a.19.19,0,0,1-.08.15,5.49,5.49,0,0,0,1.34.58Zm4.68-.89a7.52,7.52,0,0,1,.09-2,11.69,11.69,0,0,0,.26,2,2.75,2.75,0,0,0,.17.45Zm2.06-2a.74.74,0,0,1-.73.75h-.06a.59.59,0,0,1-.56-.51v0c0-.41-.05-1-.06-1.66.11,0,.36-.09.36-.49s-.07-.74.62-.74.42,2.24.42,2.63Z"/>
  <path class="cls-3" d="M56.26,48.13c-.07-.18-.3-.2-.49-.2h-.66c-.21,0-.6,0-.61-.14v-.08a2.14,2.14,0,0,0,.79-.16,1.27,1.27,0,0,0,.55-.5,1.19,1.19,0,0,0,.11-.67,1.17,1.17,0,0,0-.38-.63,1.26,1.26,0,0,0-.7-.3h-.06a.85.85,0,0,0-.28-.72,1.07,1.07,0,0,0-1-.22,1.44,1.44,0,0,0-.2-.39,1.5,1.5,0,0,0-.85-.51,1.59,1.59,0,0,0-.94.07,1.62,1.62,0,0,0-1.23-.23,1.46,1.46,0,0,0-1,.87,1.41,1.41,0,0,0-.07.45.92.92,0,0,0-.61.24.75.75,0,0,0-.28.57,1,1,0,0,0-.88,1c0,.56.49,1,1.26,1,0,0,0,2.79-.09,3.75a14.94,14.94,0,0,1-.31,2.2h0L48.2,54a.4.4,0,0,0,.33.45h6a.4.4,0,0,0,.42-.38V54l-.12-.49h0V53.4c0-.61,1.05-1.06,1.42-1.68A7.16,7.16,0,0,0,56.26,48.13ZM53.59,45v-.14a.68.68,0,0,1,.67.12.56.56,0,0,1,.16.52,1.25,1.25,0,0,0-.54.3l-.07,0a.93.93,0,0,0-.45-.18,1.14,1.14,0,0,0,.21-.6ZM47.87,46.6a.7.7,0,0,1,.56-.66.7.7,0,0,0,.44.38.79.79,0,0,1-.21-.57.76.76,0,0,1,.24-.48.83.83,0,0,1,.4-.19,1.3,1.3,0,0,0,.16.31.92.92,0,0,0-.1.36,1,1,0,0,0,.18.56,1.13,1.13,0,0,0,1.07.33,1,1,0,0,1-.81-.46.66.66,0,0,1,.08-.77.88.88,0,0,1,.79-.28.94.94,0,0,1,.73.56.84.84,0,0,0-.67-.82,1.27,1.27,0,0,0-.67,0,1.14,1.14,0,0,0-.54.34l-.06.09a1.25,1.25,0,0,1,1-1.42,1.42,1.42,0,0,1,1,.15,1.38,1.38,0,0,1,.67.86,1.07,1.07,0,0,0-.29-1,1.33,1.33,0,0,1,1.22.34,1.09,1.09,0,0,1,.2,1.21.81.81,0,0,0-.31,0,.75.75,0,0,0-.56.51,1.07,1.07,0,0,1,.61-.25.84.84,0,0,1,.55.17.73.73,0,0,1,.29.45.88.88,0,0,1-.15.59.7.7,0,0,0,.44-.6.77.77,0,0,0-.18-.56,1.16,1.16,0,0,1,.86,0,.88.88,0,0,1,.67.67c.06.3-.15.85-1.1.85H53.19a1.22,1.22,0,0,0,0-.27.88.88,0,0,0-.46-.54.72.72,0,0,1,.32.58.89.89,0,0,1-.43.73.85.85,0,0,1-.79,0,.85.85,0,0,0,.09-.22,1.09,1.09,0,0,0-.3-1,1,1,0,0,1,0,1.15,1.16,1.16,0,0,1-1.3.4.91.91,0,0,1-.67-.84h-.85c-.49,0-.91-.27-.91-.64ZM53,51.86a.25.25,0,1,1,0,.49.26.26,0,0,1-.24-.26h0a.26.26,0,0,1,.25-.26h0Zm-.37-2.27a.39.39,0,0,1,.42-.33.38.38,0,0,1,.36.38h0A.39.39,0,0,1,53,50,.39.39,0,0,1,52.66,49.59ZM53.25,51a.32.32,0,0,1-.32-.33h0a.37.37,0,0,1,.38-.3.33.33,0,0,1,.29.34A.32.32,0,0,1,53.25,51Zm-.86-2.23v.11a.37.37,0,0,1-.42.32.35.35,0,0,1-.35-.35c-.91.16-1.64.47-2.34.17V47.6a1.26,1.26,0,0,0,.95.86,1.49,1.49,0,0,0,1.49-.37,1.16,1.16,0,0,0,1.45-.4h.73V49a4,4,0,0,0-1.53-.3Zm-.17,2.38a.29.29,0,0,1,.29.29h0a.31.31,0,0,1-.33.26.29.29,0,0,1-.29-.3h0a.3.3,0,0,1,.31-.28Zm-.35-.4a.39.39,0,0,1-.4-.4h0a.43.43,0,0,1,.47-.37.42.42,0,0,1,.4.42h0a.42.42,0,0,1-.49.33Zm.4,1.62a.28.28,0,0,1,.28.27h0a.28.28,0,0,1-.32.24.25.25,0,0,1-.27-.26v0a.28.28,0,0,1,.28-.28h0Zm-3,.77h0a11.76,11.76,0,0,0,.31-2c.06-1,.09-1.65.09-1.65h.39s0,.67-.1,1.65-.11,2-.11,2l-.7.42Zm-.06.82c.67-.11,1.25-.84,2.56-.85h0a3.33,3.33,0,0,1,.83.12h0a.24.24,0,0,1,.26-.2.22.22,0,0,1,.22.22h0a.22.22,0,0,1-.08.15,5.49,5.49,0,0,0,1.34.58Zm4.68-.89A8,8,0,0,1,54,51a11.69,11.69,0,0,0,.26,2,4.13,4.13,0,0,0,.17.45Zm2.06-2a.75.75,0,0,1-.74.75h0a.59.59,0,0,1-.57-.51v0c0-.41-.05-1-.06-1.66.12,0,.37-.09.37-.49s-.07-.73.62-.73.42,2.24.42,2.63Z"/>
  <g>
    <path class="cls-2" d="M33.86,48.25c-.08-.18-.3-.2-.49-.2H32.7c-.21,0-.59,0-.61-.14v-.08a2,2,0,0,0,.79-.17,1.19,1.19,0,0,0,.55-.49,1.1,1.1,0,0,0,.11-.71,1.12,1.12,0,0,0-.38-.63,1.3,1.3,0,0,0-.7-.3h-.08a.87.87,0,0,0-.29-.71,1.09,1.09,0,0,0-1-.23,1.07,1.07,0,0,0-.2-.38,1.47,1.47,0,0,0-.83-.52,1.68,1.68,0,0,0-.94.07,1.67,1.67,0,0,0-1.2-.16,1.46,1.46,0,0,0-1,.87,1.37,1.37,0,0,0-.07.45,1,1,0,0,0-.61.24.79.79,0,0,0-.28.57,1,1,0,0,0-.86,1,1.12,1.12,0,0,0,1.26,1s0,2.78-.09,3.74a14.75,14.75,0,0,1-.31,2.2h0l-.12.47a.41.41,0,0,0,.35.45h6a.4.4,0,0,0,.42-.38.17.17,0,0,0,0-.07l-.12-.48h0v-.14c0-.6,1.06-1,1.43-1.67A7.81,7.81,0,0,0,33.86,48.25Zm-2.68-3.18a.33.33,0,0,0,0-.14.65.65,0,0,1,.67.12.51.51,0,0,1,.16.52,1,1,0,0,0-.27.1.75.75,0,0,0-.26.21l-.06-.06a1.1,1.1,0,0,0-.46-.19,1,1,0,0,0,.2-.56Zm-5.73,1.65a.66.66,0,0,1,.55-.66.75.75,0,0,0,.44.38.82.82,0,0,1-.2-.58.71.71,0,0,1,.23-.47.91.91,0,0,1,.41-.19,1.3,1.3,0,0,0,.16.31.79.79,0,0,0-.1.37.88.88,0,0,0,.18.54,1.13,1.13,0,0,0,1.06.34.91.91,0,0,1-.77-.46.65.65,0,0,1,.08-.76.88.88,0,0,1,.79-.28.9.9,0,0,1,.72.57.83.83,0,0,0-.66-.83,1.16,1.16,0,0,0-.64,0,1,1,0,0,0-.53.33l-.06.09a1.24,1.24,0,0,1,.14-.82,1.33,1.33,0,0,1,.82-.59,1.49,1.49,0,0,1,1,.14,1.34,1.34,0,0,1,.67.87,1.09,1.09,0,0,0-.29-1,1.31,1.31,0,0,1,1.22.35,1.08,1.08,0,0,1,.18,1.26.86.86,0,0,0-.32,0,.75.75,0,0,0-.55.51,1,1,0,0,1,.61-.25.86.86,0,0,1,.55.17.68.68,0,0,1,.28.45.79.79,0,0,1-.14.58.67.67,0,0,0,.44-.59.79.79,0,0,0-.18-.56,1.17,1.17,0,0,1,.84-.11.91.91,0,0,1,.67.67c.06.3-.15.85-1.11.85h-1.2a.62.62,0,0,0,0-.27.87.87,0,0,0-.45-.54.73.73,0,0,1,.31.59.86.86,0,0,1-.43.72.85.85,0,0,1-.79,0,.85.85,0,0,0,.09-.22,1.06,1.06,0,0,0-.29-1,1,1,0,0,1,0,1.15,1.14,1.14,0,0,1-1.3.4.89.89,0,0,1-.63-.84h-.89C25.86,47.38,25.45,47.1,25.45,46.72ZM30.61,52a.26.26,0,0,1,.25.25h0a.26.26,0,0,1-.29.22.25.25,0,0,1-.25-.25h0A.27.27,0,0,1,30.61,52Zm-.38-2.27a.39.39,0,0,1,.42-.33.38.38,0,0,1,.37.37h0a.39.39,0,0,1-.42.33.38.38,0,0,1-.37-.37Zm.6,1.39a.33.33,0,0,1-.32-.34.35.35,0,0,1,.37-.29.32.32,0,0,1,.32.33h0A.34.34,0,0,1,30.83,51.1ZM30,48.86V49a.36.36,0,0,1-.41.32.36.36,0,0,1-.36-.36c-.91.16-1.64.48-2.34.18V47.71a1.3,1.3,0,0,0,1,.87,1.5,1.5,0,0,0,1.49-.37,1.15,1.15,0,0,0,1.45-.41h.73v1.34A4.14,4.14,0,0,0,30,48.86Zm-.17,2.38a.31.31,0,0,1,.29.3.3.3,0,0,1-.33.26.29.29,0,0,1-.29-.28v0A.32.32,0,0,1,29.79,51.24Zm-.35-.38a.42.42,0,0,1-.4-.42h0a.43.43,0,0,1,.47-.36.4.4,0,0,1,.4.42A.43.43,0,0,1,29.44,50.86Zm.41,1.6a.29.29,0,0,1,.27.29.28.28,0,0,1-.31.24.27.27,0,0,1-.28-.27h0A.28.28,0,0,1,29.85,52.46Zm-3,.78h0a11.76,11.76,0,0,0,.31-2c.07-1,.09-1.65.09-1.65h.4s0,.67-.1,1.65-.12,2-.12,2l-.67.4Zm0,.85c.67-.11,1.26-.84,2.57-.84h0a2.91,2.91,0,0,1,.83.11h0a.23.23,0,0,1,.25-.2.22.22,0,0,1,.22.22h0a.27.27,0,0,1-.07.14,5.26,5.26,0,0,0,1.33.58Zm4.68-.9a8.37,8.37,0,0,1,.09-2,12.7,12.7,0,0,0,.26,2,4.13,4.13,0,0,0,.17.45Zm2.06-2a.73.73,0,0,1-.71.75h-.07a.6.6,0,0,1-.56-.51h0c0-.41,0-1-.06-1.66.11,0,.36-.09.36-.49s-.06-.74.62-.74.41,2.26.41,2.66Z"/>
    <path class="cls-3" d="M33.52,48c-.06-.18-.3-.2-.49-.2h-.66c-.22,0-.61,0-.61-.14v-.08a2.15,2.15,0,0,0,.79-.17,1.14,1.14,0,0,0,.54-.5,1,1,0,0,0,.11-.7,1.1,1.1,0,0,0-.37-.63,1.37,1.37,0,0,0-.67-.3h-.08a.81.81,0,0,0-.29-.71,1.06,1.06,0,0,0-1-.22,1,1,0,0,0-.21-.38,1.41,1.41,0,0,0-.83-.52,1.62,1.62,0,0,0-1,.07,1.62,1.62,0,0,0-1.2-.17,1.47,1.47,0,0,0-1,.88,1.12,1.12,0,0,0-.07.45.94.94,0,0,0-.62.24.76.76,0,0,0-.28.56,1.07,1.07,0,0,0-.9,1,1.13,1.13,0,0,0,1.27,1s0,2.78-.1,3.75a13.59,13.59,0,0,1-.31,2.19h0l-.11.47a.41.41,0,0,0,.35.45h6a.39.39,0,0,0,.42-.37v-.08l-.12-.48h0v-.13c0-.61,1.06-1.06,1.43-1.68A7.55,7.55,0,0,0,33.52,48Zm-2.67-3.18v-.14a.66.66,0,0,1,.67.12.53.53,0,0,1,.16.52,1,1,0,0,0-.54.3l-.07-.06a1.3,1.3,0,0,0-.46-.18,1.14,1.14,0,0,0,.23-.54Zm-5.72,1.65a.68.68,0,0,1,.55-.67.73.73,0,0,0,.44.39.82.82,0,0,1-.2-.58.62.62,0,0,1,.24-.47.75.75,0,0,1,.4-.19,1.3,1.3,0,0,0,.16.31.92.92,0,0,0-.1.36.89.89,0,0,0,.18.55,1.13,1.13,0,0,0,1.06.34.93.93,0,0,1-.8-.47.65.65,0,0,1,.08-.76.84.84,0,0,1,.79-.28.94.94,0,0,1,.73.56.84.84,0,0,0-.67-.82,1.16,1.16,0,0,0-.64,0,1.11,1.11,0,0,0-.53.33l-.06.09a1.25,1.25,0,0,1,.14-.83,1.37,1.37,0,0,1,.83-.58,1.43,1.43,0,0,1,1,.15,1.36,1.36,0,0,1,.67.87,1.09,1.09,0,0,0-.29-1,1.31,1.31,0,0,1,1.22.35,1.11,1.11,0,0,1,.18,1.26.81.81,0,0,0-.31,0,.73.73,0,0,0-.56.51,1,1,0,0,1,.61-.25.89.89,0,0,1,.55.16.72.72,0,0,1,.28.46.78.78,0,0,1-.15.59.66.66,0,0,0,.44-.6.73.73,0,0,0-.18-.56,1.25,1.25,0,0,1,.89-.09.9.9,0,0,1,.66.67c.07.31-.14.85-1.09.85H30.45a1.22,1.22,0,0,0,0-.27.88.88,0,0,0-.45-.53.73.73,0,0,1,.31.59.83.83,0,0,1-.43.71.78.78,0,0,1-.78,0,1.8,1.8,0,0,0,.08-.21,1.06,1.06,0,0,0-.29-1,1,1,0,0,1-.05,1.14,1.13,1.13,0,0,1-1.29.41.89.89,0,0,1-.67-.84H26c-.49,0-.9-.27-.9-.64Zm5.16,5.26a.24.24,0,0,1,.24.24v0a.27.27,0,0,1-.3.22.25.25,0,0,1-.22-.22.26.26,0,0,1,.26-.26h0Zm-.37-2.27a.39.39,0,0,1,.42-.33.37.37,0,0,1,.36.38h0a.38.38,0,0,1-.41.33.37.37,0,0,1-.38-.36v0Zm.58,1.39a.33.33,0,0,1-.33-.33.35.35,0,0,1,.38-.3.32.32,0,0,1,.32.32v0A.34.34,0,0,1,30.5,50.8Zm-.87-2.24a.34.34,0,0,1-.2.43.27.27,0,0,1-.2,0,.36.36,0,0,1-.36-.36c-.91.17-1.64.48-2.33.18V47.41a1.29,1.29,0,0,0,.95.87A1.49,1.49,0,0,0,29,47.91a1.16,1.16,0,0,0,1.45-.41h.73v1.34A4,4,0,0,0,29.63,48.56Zm-.17,2.38a.28.28,0,1,1-.1.55.27.27,0,0,1-.23-.29A.31.31,0,0,1,29.46,50.94Zm-.34-.39a.42.42,0,0,1-.38-.42.44.44,0,0,1,.47-.36.41.41,0,0,1,.41.42.43.43,0,0,1-.48.37Zm.39,1.61a.28.28,0,0,1,.28.27v0a.28.28,0,0,1-.31.24h0a.28.28,0,0,1-.27-.28.29.29,0,0,1,.31-.27Zm-3,.78h0a10.93,10.93,0,0,0,.3-2c.08-1,.1-1.65.1-1.65h.39s0,.67-.09,1.65-.11,2-.11,2l-.71.42Zm0,.86c.67-.12,1.26-.85,2.57-.85h0a2.8,2.8,0,0,1,.82.11h0a.24.24,0,0,1,.25-.2h0a.22.22,0,0,1,.21.23h0a.21.21,0,0,1-.07.14,5.67,5.67,0,0,0,1.33.59Zm4.68-.91a7.88,7.88,0,0,1,.1-2,9.83,9.83,0,0,0,.26,2,2.69,2.69,0,0,0,.16.45Zm2.06-2a.75.75,0,0,1-.73.74h0a.58.58,0,0,1-.56-.5h0c0-.42-.05-1-.06-1.67.11,0,.36-.09.36-.49s-.07-.73.62-.73.41,2.28.41,2.67Z"/>
  </g>
  <path class="cls-3" d="M77.33,45v9.45H74.2V45h-3V43.45h9V45Z"/>
  <g>
    <path class="cls-2" d="M116.31,54.61H113v-11h3.54c2.57,0,4.93.51,4.93,2.5a2.82,2.82,0,0,1-2,2.43v0c1.34.36,2.59,1.15,2.59,2.62C122,53.44,119.65,54.61,116.31,54.61Zm0-9.47v2.71h.5a1.37,1.37,0,0,0,1.4-1.35v0c0-.93-.69-1.32-1.9-1.32Zm0,4.24v3.69c1.37,0,2.4-.55,2.4-1.81s-1.13-1.88-2.4-1.88Z"/>
    <path class="cls-3" d="M116,54.28h-3.3v-11h3.54c2.58,0,4.93.51,4.93,2.5a2.78,2.78,0,0,1-2,2.42v0c1.34.36,2.6,1.14,2.6,2.62C121.72,53.1,119.36,54.28,116,54.28Zm0-9.49V47.5h.51a1.34,1.34,0,0,0,1.39-1.27V46.1C117.83,45.19,117.16,44.79,115.93,44.79Zm0,4.25v3.7c1.38,0,2.4-.56,2.4-1.82s-1.11-1.87-2.4-1.87Z"/>
  </g>
  <g>
    <path class="cls-2" d="M6.76,54.61H3.46v-11H7c2.57,0,4.93.51,4.93,2.5a2.82,2.82,0,0,1-2,2.43v0c1.34.36,2.59,1.15,2.59,2.62C12.49,53.44,10.13,54.61,6.76,54.61Zm-.08-9.47v2.71h.5a1.37,1.37,0,0,0,1.4-1.35v0C8.61,45.53,7.93,45.14,6.68,45.14Zm0,4.24v3.69c1.37,0,2.4-.55,2.4-1.81S8,49.38,6.68,49.38Z"/>
    <path class="cls-3" d="M6.44,54.28H3.13v-11H6.68c2.58,0,4.93.51,4.93,2.5a2.79,2.79,0,0,1-2,2.42v0c1.33.36,2.59,1.14,2.59,2.62C12.18,53.1,9.81,54.28,6.44,54.28Zm-.05-9.49V47.5h.5a1.35,1.35,0,0,0,1.4-1.27V46.1C8.29,45.19,7.61,44.79,6.39,44.79Zm0,4.25v3.7c1.38,0,2.4-.56,2.4-1.82s-1.12-1.87-2.4-1.87Z"/>
  </g>
  <g>
    <path class="cls-2" d="M185.64,54.61l-1.74-5.48A1.86,1.86,0,0,0,185.69,47a1.92,1.92,0,0,0-1.88-2h-.24v9.52h-3.24v-11h3.34c2.89,0,5.31.6,5.31,3.13a3.19,3.19,0,0,1-1.76,3l1.95,4.94Z"/>
    <path class="cls-3" d="M185.16,54.28l-1.75-5.48a1.87,1.87,0,0,0,1.8-2.1,1.92,1.92,0,0,0-1.93-1.92h-.2v9.49h-3.27v-11h3.34c2.89,0,5.32.6,5.32,3.13a3.23,3.23,0,0,1-1.76,3l1.95,4.94Z"/>
  </g>
</svg>
