<svg id="Layer_1" data-name="Layer 1" xmlns="http://www.w3.org/2000/svg" width="287.06" height="84.7" viewBox="0 0 287.06 84.7">
  <defs>
    <style>
      .cls-1 {
        fill: #df3227;
      }

      .cls-2 {
        fill: #156ab0;
      }

      .cls-3 {
        fill: #010101;
      }
    </style>
  </defs>
  <path class="cls-1" d="M23.67,57.39V32.71H12.48V57.39H0V.21H12.48V24.58H23.67V.21H36.05V57.39Z"/>
  <path class="cls-1" d="M61.38,57.28c-12.52,0-20.71-6.76-20.71-27.12S49.11,0,61.51,0C74.1,0,82.35,7.38,82.35,27.43,82.35,48.25,73.66,57.28,61.38,57.28Zm.07-49.57c-5.33,0-8.4,7.09-8.4,19.83s3.07,22,8.4,22,8.33-6.86,8.33-19.75C69.78,17.09,66.77,7.71,61.45,7.71Z"/>
  <path class="cls-1" d="M87,57.07V.1H99.45v49l19-.79v8.73Z"/>
  <path class="cls-1" d="M136.23,57.28a43.49,43.49,0,0,1-13.07-1.67l.46-8.13a33,33,0,0,0,11.24,2.13c4.63,0,9.34-2,9.34-6.31,0-4.71-6.76-8.88-10.71-12.07-5.47-4.41-10.4-8.13-10.4-15.8,0-8.81,8.35-15.11,22.1-15.11A70.33,70.33,0,0,1,158.1,1.69l-.61,8.2a33.92,33.92,0,0,0-10.56-1.82c-3.26,0-6.6,2.12-6.6,5.54s5.24,7.29,9.64,10.25c7.22,4.94,11.47,9.49,11.47,17.24C161.44,49.07,153.54,57.28,136.23,57.28Z"/>
  <path class="cls-1" d="M191.22,8.06V57.44H178.61V8.06H166.06V.16h37.77v7.9Z"/>
  <path class="cls-1" d="M208.45,57.17V.2h32.34V7.89h-20v15.6h11.67v7.38H220.82V49.63h20.05v7.54Z"/>
  <path class="cls-1" d="M278.06,57.24,257.9,24.06,258,57.24H245.48V0h9.35l19.94,34.22L274.48,0h12.58V57.24Z"/>
  <g>
    <path class="cls-2" d="M213.78,61.71c.91.1,1.37,1.18,1.14,2.37A2,2,0,0,1,213,66a1.88,1.88,0,0,1-1.14-2.36C212.06,62.5,213,61.61,213.78,61.71ZM210,62.6c.69.1,1,.79.92,1.68a1.19,1.19,0,1,1-2.29-.2C208.85,63.19,209.31,62.6,210,62.6Zm-3,.89a1.15,1.15,0,0,1,1,1.18c0,.59-.45,1.28-1,1.28a1.19,1.19,0,0,1-1-1.28A1.16,1.16,0,0,1,207,63.49ZM205,64.77c.46-.1.92.3,1,.89a1,1,0,0,1-.57,1.18c-.46.1-.92-.29-1-.89A1,1,0,0,1,205,64.77Zm-1,1.38a.84.84,0,0,1,.69.89.72.72,0,0,1-.69.79.83.83,0,0,1-.69-.89A.73.73,0,0,1,203.92,66.15Zm7,.89c1,0,3.1.2,3.1,2.27,0,3-4.13,3-4.13,6.31,0,2.67,3.21,3,3.09,6-.11,1.58-.68,3.06-3.66,3.06a3.08,3.08,0,0,1-3.1-3.25c0-4.15-3.21-5.43-3-9.48C203.23,67.73,208.85,67,210.91,67Z"/>
    <path class="cls-3" d="M213.63,61.71c.92.1,1.39,1.17,1.15,2.33a2,2,0,0,1-2,1.85,1.84,1.84,0,0,1-1.16-2.33C211.89,62.49,212.82,61.61,213.63,61.71Zm-3.82.87c.7.1,1,.78.93,1.66a1.32,1.32,0,0,1-1.27,1.36,1.3,1.3,0,0,1-1-1.56C208.66,63.17,209.12,62.58,209.81,62.58Zm-3,.88a1.14,1.14,0,0,1,1,1.17c0,.58-.46,1.26-1,1.26a1.23,1.23,0,0,1,0-2.43Zm-2.08,1.26a1,1,0,0,1,1,.88,1,1,0,0,1-.58,1.16,1,1,0,0,1-1-.87A1,1,0,0,1,204.73,64.72Zm-1,1.36a.83.83,0,0,1,.69.88.71.71,0,0,1-.69.78.83.83,0,0,1-.7-.88A.74.74,0,0,1,203.69,66.08Zm7.05.88c1,0,3.12.19,3.12,2.23,0,2.92-4.16,2.92-4.16,6.23,0,2.62,3.23,2.91,3.12,5.92-.12,1.56-.69,3-3.7,3A3.07,3.07,0,0,1,206,81.15c0-4.08-3.24-5.35-3-9.33C203,67.64,208.66,67,210.74,67Z"/>
  </g>
  <g>
    <path class="cls-2" d="M237.31,61.71c-.93.1-1.4,1.18-1.16,2.37a2,2,0,0,0,2,1.87,1.88,1.88,0,0,0,1.16-2.36C239,62.5,238.12,61.61,237.31,61.71Zm3.82.89c-.69.1-1,.79-.93,1.68a1.34,1.34,0,0,0,1.28,1.38,1.32,1.32,0,0,0,1-1.58C242.29,63.19,241.83,62.6,241.13,62.6Zm3,.89a1.16,1.16,0,0,0-1.05,1.18c0,.59.47,1.28,1.05,1.28a1.19,1.19,0,0,0,1-1.28A1.17,1.17,0,0,0,244.15,63.49Zm2.08,1.28c-.46-.1-.92.3-1,.89a1,1,0,0,0,.58,1.18,1,1,0,0,0,1-.89A1,1,0,0,0,246.23,64.77Zm1.05,1.38a.84.84,0,0,0-.7.89.72.72,0,0,0,.7.79.83.83,0,0,0,.69-.89A.73.73,0,0,0,247.28,66.15ZM240.2,67c-1,0-3.13.2-3.13,2.27,0,3,4.18,3,4.18,6.31,0,2.67-3.25,3-3.13,6,.11,1.58.69,3.06,3.71,3.06A3.09,3.09,0,0,0,245,81.45c0-4.15,3.25-5.43,3-9.48C248,67.73,242.29,67,240.2,67Z"/>
    <path class="cls-3" d="M237.19,61.71c-.92.1-1.37,1.17-1.15,2.33a2,2,0,0,0,2,1.85,1.85,1.85,0,0,0,1.14-2.33C238.9,62.49,238,61.61,237.19,61.71Zm3.77.87c-.69.1-1,.78-.92,1.66a1.18,1.18,0,1,0,2.29-.2C242.1,63.17,241.64,62.58,241,62.58Zm3,.88a1.14,1.14,0,0,0-1,1.17c0,.58.45,1.26,1,1.26a1.23,1.23,0,0,0,0-2.43Zm2,1.26a1,1,0,0,0-1,.88,1,1,0,0,0,.58,1.16.94.94,0,0,0,1-.87A1,1,0,0,0,246,64.72Zm1,1.36a.83.83,0,0,0-.69.88.71.71,0,0,0,.69.78.83.83,0,0,0,.69-.88A.73.73,0,0,0,247,66.08ZM240,67c-1,0-3.08.19-3.08,2.23,0,2.92,4.11,2.92,4.11,6.23,0,2.62-3.2,2.91-3.08,5.92.11,1.56.68,3,3.65,3a3.06,3.06,0,0,0,3.09-3.21c0-4.08,3.19-5.35,3-9.33C247.7,67.64,242.1,67,240,67Z"/>
  </g>
  <path class="cls-2" d="M116.16,67.3V81.45H111.5V67.3h-4.44V65h13.52V67.3Z"/>
  <path class="cls-2" d="M84.66,72c-.11-.26-.45-.29-.73-.29h-1c-.31,0-.89,0-.9-.21a.45.45,0,0,0,0-.13,3,3,0,0,0,1.19-.24,1.79,1.79,0,0,0,.81-.75,1.55,1.55,0,0,0,.17-1,1.64,1.64,0,0,0-.56-.94,2,2,0,0,0-1.06-.45h-.12A1.21,1.21,0,0,0,82,66.82a1.59,1.59,0,0,0-1.45-.33,2,2,0,0,0-.31-.58A2.17,2.17,0,0,0,79,65.14a2.43,2.43,0,0,0-1.41.1A2.46,2.46,0,0,0,75.8,65a2.18,2.18,0,0,0-1.55,1.31,1.66,1.66,0,0,0-.1.66,1.47,1.47,0,0,0-.93.36,1.19,1.19,0,0,0-.41.86,1.57,1.57,0,0,0-1.29,1.48,1.68,1.68,0,0,0,1.89,1.53s0,4.17-.14,5.61a21.61,21.61,0,0,1-.46,3.28h0l-.17.71a.6.6,0,0,0,.62.68h8.91a.59.59,0,0,0,.62-.68l-.17-.73h0a1.47,1.47,0,0,1-.05-.19c-.06-.9,1.58-1.58,2.14-2.5C85.16,76.63,85.12,73.08,84.66,72Zm-4-4.75a1.48,1.48,0,0,0,0-.21,1,1,0,0,1,1,.18.76.76,0,0,1,.25.77,2.05,2.05,0,0,0-.41.16,1.74,1.74,0,0,0-.4.3l-.1-.08a1.43,1.43,0,0,0-.69-.27A1.79,1.79,0,0,0,80.64,67.2Zm-8.55,2.47a1.06,1.06,0,0,1,.82-1,1.11,1.11,0,0,0,.66.58,1.27,1.27,0,0,1-.31-.86,1,1,0,0,1,.36-.71,1.16,1.16,0,0,1,.61-.29,1.53,1.53,0,0,0,.23.46,1.36,1.36,0,0,0-.14.55,1.29,1.29,0,0,0,.27.83,1.68,1.68,0,0,0,1.58.5,1.45,1.45,0,0,1-1.21-.7,1,1,0,0,1,.13-1.15,1.31,1.31,0,0,1,1.18-.42,1.41,1.41,0,0,1,1.09.85,1.25,1.25,0,0,0-1-1.23,1.7,1.7,0,0,0-.95,0,1.62,1.62,0,0,0-.79.51.38.38,0,0,0-.09.13,1.77,1.77,0,0,1,.21-1.23A1.93,1.93,0,0,1,76,65.61a2.16,2.16,0,0,1,1.55.22,2.06,2.06,0,0,1,1,1.29,1.61,1.61,0,0,0-.44-1.49,1.94,1.94,0,0,1,1.83.52A1.66,1.66,0,0,1,80.18,68a1.23,1.23,0,0,0-.47,0,1.11,1.11,0,0,0-.84.76,1.52,1.52,0,0,1,.92-.37,1.28,1.28,0,0,1,.82.24,1,1,0,0,1,.42.68,1.2,1.2,0,0,1-.22.88,1.05,1.05,0,0,0,.66-.89,1.15,1.15,0,0,0-.27-.84,1.76,1.76,0,0,1,1.26-.16,1.32,1.32,0,0,1,1,1c.1.46-.22,1.27-1.64,1.27H80.07a1.3,1.3,0,0,0-.73-1.21,1.13,1.13,0,0,1,.48.88,1.34,1.34,0,0,1-.65,1.08,1.22,1.22,0,0,1-1.17,0,2.08,2.08,0,0,0,.12-.32,1.57,1.57,0,0,0-.43-1.51,1.46,1.46,0,0,1-.07,1.71,1.73,1.73,0,0,1-2,.6,1.34,1.34,0,0,1-1-1.25H73.44C72.7,70.66,72.09,70.23,72.09,69.67Zm7.71,7.87a.38.38,0,0,1,.37.39.38.38,0,0,1-.42.33.38.38,0,0,1-.37-.38A.38.38,0,0,1,79.8,77.54Zm-.55-3.4a.57.57,0,0,1,.63-.49.56.56,0,0,1,.54.57.57.57,0,0,1-.63.49A.56.56,0,0,1,79.25,74.14Zm.89,2.08a.49.49,0,0,1-.49-.5.52.52,0,0,1,.56-.44.49.49,0,0,1,.48.51A.5.5,0,0,1,80.14,76.22Zm-1.31-3.34a.32.32,0,0,1,0,.17.55.55,0,0,1-.61.48A.54.54,0,0,1,77.7,73c-1.36.24-2.45.71-3.49.25,0,0,0-1.6,0-2.09a1.92,1.92,0,0,0,1.42,1.29,2.25,2.25,0,0,0,2.23-.55A1.75,1.75,0,0,0,80,71.29h1.09v2A6.25,6.25,0,0,0,78.83,72.88Zm-.25,3.56a.42.42,0,0,1,.43.44.46.46,0,0,1-.49.39.44.44,0,0,1-.43-.45A.45.45,0,0,1,78.58,76.44Zm-.51-.59a.61.61,0,0,1-.61-.62.64.64,0,0,1,.7-.55.62.62,0,0,1,.61.63A.63.63,0,0,1,78.07,75.85Zm.59,2.41a.4.4,0,0,1,.41.42.42.42,0,0,1-.47.37.41.41,0,0,1-.41-.42A.43.43,0,0,1,78.66,78.26Zm-4.5,1.16h0a18.15,18.15,0,0,0,.45-2.94c.11-1.47.15-2.46.15-2.46h.58s0,1-.15,2.46-.16,3-.16,3L74,80.08ZM74.1,80.7c1-.17,1.88-1.26,3.84-1.27h0a4.8,4.8,0,0,1,1.23.17v0a.34.34,0,0,1,.38-.29.32.32,0,0,1,.32.33.27.27,0,0,1-.11.21,8.27,8.27,0,0,0,2,.88Zm7-1.34a11.82,11.82,0,0,1,.13-3,19,19,0,0,0,.39,2.93,4.8,4.8,0,0,0,.25.67Zm3.08-3A1.11,1.11,0,0,1,83,77.48a.88.88,0,0,1-.84-.77v.05c0-.62-.07-1.56-.09-2.49.17,0,.54-.13.54-.73s-.1-1.1.93-1.1S84.17,75.79,84.17,76.37Z"/>
  <path class="cls-3" d="M84.17,72c-.11-.26-.45-.29-.73-.29h-1c-.31,0-.89,0-.91-.21v-.13a3,3,0,0,0,1.18-.24,1.81,1.81,0,0,0,.82-.75,1.61,1.61,0,0,0,.17-1,1.71,1.71,0,0,0-.57-.94,1.92,1.92,0,0,0-1.05-.45H82a1.26,1.26,0,0,0-.42-1.07,1.61,1.61,0,0,0-1.46-.33,1.79,1.79,0,0,0-.3-.58,2.17,2.17,0,0,0-1.26-.77,2.42,2.42,0,0,0-1.41.1A2.47,2.47,0,0,0,75.31,65a2.14,2.14,0,0,0-1.55,1.31,1.67,1.67,0,0,0-.11.66,1.47,1.47,0,0,0-.92.36,1.2,1.2,0,0,0-.42.86A1.56,1.56,0,0,0,71,69.67c0,.84.74,1.53,1.89,1.53,0,0,0,4.17-.14,5.61a20.81,20.81,0,0,1-.47,3.28h0l-.17.71a.59.59,0,0,0,.61.68h8.92a.6.6,0,0,0,.62-.68l-.18-.73h0s0-.09,0-.19c-.06-.9,1.58-1.58,2.13-2.5C84.67,76.63,84.62,73.08,84.17,72Zm-4-4.75a1.48,1.48,0,0,0,0-.21,1,1,0,0,1,1,.18.78.78,0,0,1,.24.77,1.77,1.77,0,0,0-.8.46l-.11-.08a1.36,1.36,0,0,0-.68-.27A1.68,1.68,0,0,0,80.14,67.2Zm-8.55,2.47a1.06,1.06,0,0,1,.83-1,1.08,1.08,0,0,0,.66.58,1.22,1.22,0,0,1-.31-.86,1.05,1.05,0,0,1,.35-.71,1.24,1.24,0,0,1,.61-.29,1.55,1.55,0,0,0,.24.46,1.23,1.23,0,0,0-.15.55,1.35,1.35,0,0,0,.27.83,1.7,1.7,0,0,0,1.59.5,1.45,1.45,0,0,1-1.21-.7,1,1,0,0,1,.12-1.15,1.34,1.34,0,0,1,1.19-.42,1.41,1.41,0,0,1,1.08.85,1.24,1.24,0,0,0-1-1.23,1.7,1.7,0,0,0-1,0,1.61,1.61,0,0,0-.8.51l-.09.13a1.83,1.83,0,0,1,.22-1.23,1.91,1.91,0,0,1,1.22-.89,2.16,2.16,0,0,1,1.55.22,2.07,2.07,0,0,1,1,1.29,1.61,1.61,0,0,0-.44-1.49,2,2,0,0,1,1.83.52A1.64,1.64,0,0,1,79.68,68a1.23,1.23,0,0,0-.47,0,1.09,1.09,0,0,0-.83.76,1.5,1.5,0,0,1,.91-.37,1.26,1.26,0,0,1,.82.24,1.06,1.06,0,0,1,.43.68,1.25,1.25,0,0,1-.22.88,1.05,1.05,0,0,0,.66-.89,1.15,1.15,0,0,0-.27-.84A1.75,1.75,0,0,1,82,68.38a1.33,1.33,0,0,1,1,1c.09.46-.22,1.27-1.65,1.27H79.57a1.07,1.07,0,0,0,0-.4,1.33,1.33,0,0,0-.68-.81,1.09,1.09,0,0,1,.47.88,1.31,1.31,0,0,1-.64,1.08,1.24,1.24,0,0,1-1.18,0,1.44,1.44,0,0,0,.13-.32,1.6,1.6,0,0,0-.44-1.51,1.46,1.46,0,0,1-.06,1.71,1.73,1.73,0,0,1-1.95.6,1.34,1.34,0,0,1-1-1.25H72.94C72.21,70.66,71.59,70.23,71.59,69.67Zm7.72,7.87a.39.39,0,0,1,.37.39.4.4,0,0,1-.43.33.37.37,0,0,1-.36-.38A.38.38,0,0,1,79.31,77.54Zm-.56-3.4a.58.58,0,0,1,.63-.49.55.55,0,0,1,.54.57.59.59,0,0,1-1.17-.08Zm.89,2.08a.49.49,0,0,1-.48-.5.52.52,0,0,1,.56-.44.47.47,0,1,1-.08.94Zm-1.3-3.34a.88.88,0,0,1,0,.17.56.56,0,0,1-.62.48.53.53,0,0,1-.53-.53c-1.36.24-2.45.71-3.5.25,0,0,0-1.6,0-2.09a1.93,1.93,0,0,0,1.43,1.29,2.26,2.26,0,0,0,2.23-.55,1.76,1.76,0,0,0,2.17-.61h1.09v2A6.25,6.25,0,0,0,78.34,72.88Zm-.25,3.56a.43.43,0,0,1,.43.44.46.46,0,0,1-.49.39.44.44,0,0,1-.43-.45A.45.45,0,0,1,78.09,76.44Zm-.52-.59a.6.6,0,0,1-.6-.62.64.64,0,0,1,.7-.55.61.61,0,0,1,.6.63A.63.63,0,0,1,77.57,75.85Zm.6,2.41a.41.41,0,0,1,.41.42.43.43,0,0,1-.47.37.4.4,0,0,1-.41-.42A.42.42,0,0,1,78.17,78.26Zm-4.51,1.16h0a17.61,17.61,0,0,0,.46-2.94c.1-1.47.14-2.46.14-2.46h.59s0,1-.15,2.46-.17,3-.17,3l-1.05.62ZM73.6,80.7c1-.17,1.88-1.26,3.84-1.27h0a4.82,4.82,0,0,1,1.24.17s0,0,0,0a.35.35,0,0,1,.38-.29.33.33,0,0,1,.33.33.31.31,0,0,1-.11.21,8,8,0,0,0,2,.88Zm7-1.34a12.15,12.15,0,0,1,.14-3,17.74,17.74,0,0,0,.39,2.93,4.8,4.8,0,0,0,.25.67Zm3.09-3a1.11,1.11,0,0,1-1.17,1.11.9.9,0,0,1-.85-.77v.05c0-.62-.07-1.56-.09-2.49.17,0,.55-.13.55-.73s-.1-1.1.93-1.1S83.68,75.79,83.68,76.37Z"/>
  <g>
    <path class="cls-2" d="M50.65,72.18c-.11-.27-.45-.29-.73-.29h-1c-.31,0-.89,0-.91-.22v-.12a3,3,0,0,0,1.18-.25,1.74,1.74,0,0,0,.82-.74,1.57,1.57,0,0,0,.16-1.06,1.67,1.67,0,0,0-.56-.94,1.9,1.9,0,0,0-1.05-.44h-.12A1.25,1.25,0,0,0,48,67.05a1.59,1.59,0,0,0-1.46-.34,1.65,1.65,0,0,0-.3-.57A2.18,2.18,0,0,0,45,65.36a2.51,2.51,0,0,0-1.41.11,2.47,2.47,0,0,0-1.79-.25,2.16,2.16,0,0,0-1.55,1.31,1.72,1.72,0,0,0-.11.67,1.47,1.47,0,0,0-.92.36,1.18,1.18,0,0,0-.42.85,1.57,1.57,0,0,0-1.28,1.49c0,.84.74,1.53,1.89,1.53,0,0,0,4.16-.14,5.6a21.07,21.07,0,0,1-.47,3.29h0l-.17.71a.6.6,0,0,0,.62.67h8.92a.6.6,0,0,0,.62-.67l-.18-.73h0s0-.1,0-.2c-.07-.9,1.58-1.58,2.13-2.5C51.15,76.85,51.1,73.31,50.65,72.18Zm-4-4.75a1.55,1.55,0,0,0,0-.22,1,1,0,0,1,1,.19.77.77,0,0,1,.24.77,1.74,1.74,0,0,0-.4.15,1.38,1.38,0,0,0-.4.31L47,68.54a1.46,1.46,0,0,0-.68-.27A1.61,1.61,0,0,0,46.62,67.43ZM38.07,69.9a1,1,0,0,1,.83-1,1.07,1.07,0,0,0,.66.57,1.22,1.22,0,0,1-.31-.86,1.08,1.08,0,0,1,.35-.71,1.32,1.32,0,0,1,.61-.28,1.68,1.68,0,0,0,.24.46,1.19,1.19,0,0,0-.15.55,1.32,1.32,0,0,0,.27.82,1.73,1.73,0,0,0,1.59.51A1.45,1.45,0,0,1,41,69.27a1,1,0,0,1,.12-1.14,1.3,1.3,0,0,1,1.19-.42,1.37,1.37,0,0,1,1.08.85,1.25,1.25,0,0,0-1-1.24,1.71,1.71,0,0,0-.95,0,1.59,1.59,0,0,0-.8.5l-.09.13a1.85,1.85,0,0,1,.22-1.23A1.93,1.93,0,0,1,42,65.84a2.15,2.15,0,0,1,1.55.21,2,2,0,0,1,1,1.3,1.61,1.61,0,0,0-.43-1.5,2,2,0,0,1,1.83.53,1.63,1.63,0,0,1,.26,1.88,1.47,1.47,0,0,0-.47,0,1.13,1.13,0,0,0-.83.76,1.53,1.53,0,0,1,.91-.37,1.27,1.27,0,0,1,.82.25,1.05,1.05,0,0,1,.43.68,1.22,1.22,0,0,1-.22.87,1,1,0,0,0,.66-.89,1.18,1.18,0,0,0-.27-.84,1.81,1.81,0,0,1,1.26-.16,1.36,1.36,0,0,1,1,1c.09.46-.22,1.27-1.65,1.27H46.05a1.09,1.09,0,0,0,0-.4,1.36,1.36,0,0,0-.68-.81,1.12,1.12,0,0,1,.47.89,1.28,1.28,0,0,1-.64,1.07,1.21,1.21,0,0,1-1.18,0,1.79,1.79,0,0,0,.13-.32,1.6,1.6,0,0,0-.44-1.51,1.45,1.45,0,0,1-.07,1.71,1.71,1.71,0,0,1-1.94.61,1.35,1.35,0,0,1-.95-1.26H39.42C38.69,70.88,38.07,70.46,38.07,69.9Zm7.72,7.87a.37.37,0,0,1,.37.38.39.39,0,0,1-.43.33.37.37,0,0,1-.37-.38A.39.39,0,0,1,45.79,77.77Zm-.56-3.4a.58.58,0,0,1,.63-.49.54.54,0,0,1,.54.56.56.56,0,0,1-.62.49A.55.55,0,0,1,45.23,74.37Zm.89,2.08a.5.5,0,0,1-.48-.51.51.51,0,0,1,.55-.43.49.49,0,0,1,.49.5A.51.51,0,0,1,46.12,76.45Zm-1.3-3.35a1,1,0,0,1,0,.17.56.56,0,0,1-.62.49.54.54,0,0,1-.53-.54c-1.37.24-2.45.71-3.5.26,0,0,0-1.61,0-2.1a1.94,1.94,0,0,0,1.43,1.3,2.28,2.28,0,0,0,2.23-.55A1.74,1.74,0,0,0,46,71.51h1.1v2A6.08,6.08,0,0,0,44.82,73.1Zm-.25,3.56a.45.45,0,0,1,.43.45.44.44,0,0,1-.49.38.42.42,0,0,1-.43-.44A.46.46,0,0,1,44.57,76.66Zm-.52-.58a.61.61,0,0,1-.6-.63.64.64,0,0,1,.7-.55.62.62,0,0,1,.6.63A.64.64,0,0,1,44.05,76.08Zm.6,2.4a.43.43,0,0,1,.41.43.44.44,0,0,1-.47.37.41.41,0,0,1-.41-.43A.43.43,0,0,1,44.65,78.48Zm-4.51,1.17h0a18.05,18.05,0,0,0,.46-2.94c.1-1.47.14-2.46.14-2.46h.59s0,1-.15,2.46-.17,3-.17,3L40,80.3Zm-.06,1.27c1-.17,1.88-1.26,3.84-1.26h0a4.42,4.42,0,0,1,1.24.17s0,0,0,0a.35.35,0,0,1,.38-.3.33.33,0,0,1,.33.34.36.36,0,0,1-.11.21,8,8,0,0,0,2,.87Zm7-1.34a12.07,12.07,0,0,1,.14-3,17.55,17.55,0,0,0,.39,2.92,4.28,4.28,0,0,0,.25.67Zm3.08-3A1.09,1.09,0,0,1,49,77.7a.89.89,0,0,1-.85-.76v0c0-.62-.07-1.55-.09-2.49.17,0,.55-.13.55-.73s-.1-1.1.93-1.1S50.15,76,50.15,76.6Z"/>
    <path class="cls-3" d="M50.15,71.73c-.1-.27-.45-.29-.73-.29h-1c-.32,0-.9,0-.91-.22V71.1a3,3,0,0,0,1.18-.25,1.72,1.72,0,0,0,.81-.74,1.57,1.57,0,0,0,.17-1.06,1.67,1.67,0,0,0-.56-.94,1.93,1.93,0,0,0-1-.44h-.12a1.23,1.23,0,0,0-.43-1.06,1.54,1.54,0,0,0-1.45-.33,1.8,1.8,0,0,0-.31-.58,2.19,2.19,0,0,0-1.25-.78,2.55,2.55,0,0,0-1.42.11,2.46,2.46,0,0,0-1.79-.25,2.2,2.2,0,0,0-1.55,1.31,1.73,1.73,0,0,0-.1.67,1.47,1.47,0,0,0-.93.36,1.17,1.17,0,0,0-.41.85A1.58,1.58,0,0,0,37,69.45c0,.84.75,1.53,1.9,1.53,0,0,0,4.16-.15,5.61a21.87,21.87,0,0,1-.46,3.28h0l-.17.71a.6.6,0,0,0,.62.67h8.91a.59.59,0,0,0,.62-.67l-.17-.73h0s0-.1,0-.19c-.07-.91,1.58-1.59,2.13-2.51C50.65,76.4,50.61,72.86,50.15,71.73Zm-4-4.75a1.55,1.55,0,0,0,0-.22,1,1,0,0,1,1,.19.77.77,0,0,1,.24.77,1.53,1.53,0,0,0-.81.46l-.1-.09a1.54,1.54,0,0,0-.69-.27A1.63,1.63,0,0,0,46.13,67Zm-8.55,2.47a1,1,0,0,1,.82-1,1.09,1.09,0,0,0,.66.57,1.27,1.27,0,0,1-.31-.86,1,1,0,0,1,.36-.71,1.23,1.23,0,0,1,.61-.28,1.65,1.65,0,0,0,.23.46,1.32,1.32,0,0,0-.14.55,1.25,1.25,0,0,0,.27.82,1.71,1.71,0,0,0,1.58.51,1.43,1.43,0,0,1-1.2-.71,1,1,0,0,1,.12-1.14,1.29,1.29,0,0,1,1.18-.42,1.39,1.39,0,0,1,1.09.85,1.27,1.27,0,0,0-1-1.24,1.7,1.7,0,0,0-.95,0,1.68,1.68,0,0,0-.79.5,1,1,0,0,0-.09.13,1.79,1.79,0,0,1,.21-1.23,2,2,0,0,1,1.23-.88A2.15,2.15,0,0,1,43,65.6a2.08,2.08,0,0,1,1,1.3,1.64,1.64,0,0,0-.44-1.5,2,2,0,0,1,1.83.53,1.64,1.64,0,0,1,.27,1.88,1.47,1.47,0,0,0-.47,0,1.14,1.14,0,0,0-.84.76,1.65,1.65,0,0,1,.92-.37,1.27,1.27,0,0,1,.82.25,1,1,0,0,1,.42.68,1.2,1.2,0,0,1-.22.88,1,1,0,0,0,.66-.89,1.11,1.11,0,0,0-.27-.84A1.79,1.79,0,0,1,48,68.15a1.35,1.35,0,0,1,1,1c.1.46-.22,1.27-1.64,1.27H45.56a1.81,1.81,0,0,0,0-.4,1.35,1.35,0,0,0-.68-.8,1.12,1.12,0,0,1,.47.88,1.29,1.29,0,0,1-.65,1.07,1.19,1.19,0,0,1-1.17,0,1.75,1.75,0,0,0,.12-.32,1.57,1.57,0,0,0-.43-1.51,1.46,1.46,0,0,1-.07,1.71,1.72,1.72,0,0,1-1.94.61,1.35,1.35,0,0,1-1-1.26H38.93C38.2,70.43,37.58,70,37.58,69.45Zm7.71,7.87a.36.36,0,0,1,.37.38.4.4,0,0,1-.79,0A.39.39,0,0,1,45.29,77.32Zm-.55-3.4a.57.57,0,0,1,.63-.49.55.55,0,0,1,.54.56.56.56,0,0,1-.62.49A.55.55,0,0,1,44.74,73.92ZM45.63,76a.5.5,0,0,1-.49-.5.51.51,0,0,1,.56-.44.48.48,0,0,1,.48.5A.5.5,0,0,1,45.63,76Zm-1.31-3.35a.5.5,0,0,1-.59.66.55.55,0,0,1-.54-.54c-1.36.25-2.45.72-3.49.26,0,0,0-1.61,0-2.1a1.93,1.93,0,0,0,1.43,1.3,2.26,2.26,0,0,0,2.22-.55,1.75,1.75,0,0,0,2.17-.62h1.09v2A6.08,6.08,0,0,0,44.32,72.65Zm-.24,3.56a.42.42,0,1,1-.5.39A.46.46,0,0,1,44.08,76.21Zm-.52-.58A.63.63,0,0,1,43,75a.65.65,0,0,1,.7-.55.63.63,0,0,1,.61.63A.64.64,0,0,1,43.56,75.63Zm.59,2.4a.41.41,0,0,1,.41.43.42.42,0,0,1-.47.37.43.43,0,0,1-.41-.43A.44.44,0,0,1,44.15,78Zm-4.5,1.17h0a18.62,18.62,0,0,0,.45-2.94c.11-1.47.15-2.46.15-2.46h.58s0,1-.14,2.46-.17,3-.17,3l-1.05.62Zm-.06,1.28c1-.18,1.88-1.27,3.84-1.27h0a4.4,4.4,0,0,1,1.23.17v0a.34.34,0,0,1,.38-.3.33.33,0,0,1,.32.34.28.28,0,0,1-.11.21,8.27,8.27,0,0,0,2,.88Zm7-1.35a11.5,11.5,0,0,1,.14-3,16.49,16.49,0,0,0,.39,2.92,3.73,3.73,0,0,0,.24.67Zm3.08-3a1.1,1.1,0,0,1-1.17,1.1.89.89,0,0,1-.84-.76v0c0-.62-.07-1.55-.09-2.49.17,0,.54-.13.54-.73s-.1-1.1.93-1.1S49.66,75.57,49.66,76.15Z"/>
  </g>
  <path class="cls-3" d="M115.68,67.3V81.45H111V67.3h-4.44V65H120.1V67.3Z"/>
  <g>
    <path class="cls-2" d="M174,81.7h-4.94V65.21h5.3c3.85,0,7.37.77,7.37,3.74a4.18,4.18,0,0,1-3,3.63v.07c2,.54,3.87,1.71,3.87,3.92C182.57,79.94,179,81.7,174,81.7Zm-.07-14.17v4.06c.13,0,.63,0,.74,0a2.06,2.06,0,0,0,2.1-2.09C176.76,68.12,175.74,67.53,173.92,67.53Zm0,6.35V79.4c2.05,0,3.58-.83,3.58-2.72S175.83,73.88,173.92,73.88Z"/>
    <path class="cls-3" d="M173.51,81.2h-4.94V64.7h5.3c3.86,0,7.37.77,7.37,3.74a4.18,4.18,0,0,1-3,3.63v.07c2,.54,3.88,1.71,3.88,3.92C182.1,79.44,178.56,81.2,173.51,81.2ZM173.44,67v4.06a5.9,5.9,0,0,0,.75,0,2,2,0,0,0,2.09-2.09C176.28,67.61,175.27,67,173.44,67Zm0,6.36V78.9c2.06-.05,3.59-.84,3.59-2.73S175.36,73.38,173.44,73.38Z"/>
  </g>
  <g>
    <path class="cls-2" d="M10.11,81.7H5.17V65.21h5.3c3.85,0,7.37.77,7.37,3.74a4.18,4.18,0,0,1-3,3.63v.07c2,.54,3.87,1.71,3.87,3.92C18.69,79.94,15.16,81.7,10.11,81.7ZM10,67.53v4.06c.13,0,.63,0,.74,0a2.06,2.06,0,0,0,2.1-2.09C12.88,68.12,11.86,67.53,10,67.53Zm0,6.35V79.4c2.05,0,3.58-.83,3.58-2.72S12,73.88,10,73.88Z"/>
    <path class="cls-3" d="M9.63,81.2H4.69V64.7H10c3.86,0,7.37.77,7.37,3.74a4.18,4.18,0,0,1-3,3.63v.07c2,.54,3.88,1.71,3.88,3.92C18.22,79.44,14.68,81.2,9.63,81.2ZM9.56,67v4.06a5.9,5.9,0,0,0,.75,0,2,2,0,0,0,2.09-2.09C12.4,67.61,11.39,67,9.56,67Zm0,6.36V78.9c2.06-.05,3.59-.84,3.59-2.73S11.48,73.38,9.56,73.38Z"/>
  </g>
  <g>
    <path class="cls-2" d="M277.72,81.7l-2.61-8.2c1.65-.31,2.69-1,2.69-3.13a2.87,2.87,0,0,0-3.18-2.91V81.7h-4.85V65.21h5c4.32,0,7.95.9,7.95,4.69a4.78,4.78,0,0,1-2.63,4.41L283,81.7Z"/>
    <path class="cls-3" d="M277,81.2,274.38,73c1.65-.31,2.69-1,2.69-3.13A2.88,2.88,0,0,0,273.89,67V81.2H269V64.7h5c4.32,0,7.95.9,7.95,4.69a4.81,4.81,0,0,1-2.63,4.42l2.92,7.39Z"/>
  </g>
</svg>
