<svg id="Layer_1" data-name="Layer 1" xmlns="http://www.w3.org/2000/svg" width="287.06" height="85.03" viewBox="0 0 287.06 85.03">
  <defs>
    <style>
      .cls-1 {
        fill: #df3227;
      }

      .cls-2 {
        fill: #156ab0;
      }

      .cls-3 {
        fill: #fff;
      }
    </style>
  </defs>
  <path class="cls-1" d="M23.67,57.39V32.71H12.48V57.39H0V.21H12.48V24.58H23.67V.21H36.05V57.39Z"/>
  <path class="cls-1" d="M61.38,57.28c-12.52,0-20.71-6.76-20.71-27.12S49.11,0,61.51,0C74.1,0,82.35,7.38,82.35,27.43,82.35,48.25,73.66,57.28,61.38,57.28Zm.07-49.57c-5.33,0-8.4,7.09-8.4,19.83s3.07,22,8.4,22,8.33-6.86,8.33-19.75C69.78,17.09,66.77,7.71,61.45,7.71Z"/>
  <path class="cls-1" d="M87,57.07V.1H99.45v49l19-.79v8.73Z"/>
  <path class="cls-1" d="M136.23,57.28a43.49,43.49,0,0,1-13.07-1.67l.46-8.13a33,33,0,0,0,11.24,2.13c4.63,0,9.34-2,9.34-6.31,0-4.71-6.76-8.88-10.71-12.07-5.47-4.41-10.4-8.13-10.4-15.8,0-8.81,8.35-15.11,22.1-15.11A70.33,70.33,0,0,1,158.1,1.69l-.61,8.2a33.92,33.92,0,0,0-10.56-1.82c-3.26,0-6.6,2.12-6.6,5.54s5.24,7.29,9.64,10.25c7.22,4.94,11.47,9.49,11.47,17.24C161.44,49.07,153.54,57.28,136.23,57.28Z"/>
  <path class="cls-1" d="M191.22,8.06V57.44H178.61V8.06H166.06V.16h37.77v7.9Z"/>
  <path class="cls-1" d="M208.45,57.17V.2h32.34V7.89h-20v15.6h11.67v7.38H220.82V49.63h20.05v7.54Z"/>
  <path class="cls-1" d="M278.06,57.24,257.9,24.06,258,57.24H245.48V0h9.35l19.94,34.22L274.48,0h12.58V57.24Z"/>
  <g>
    <path class="cls-2" d="M213.44,62c.92.09,1.38,1.18,1.15,2.36a2,2,0,0,1-2,1.88,1.88,1.88,0,0,1-1.15-2.37C211.72,62.82,212.64,61.94,213.44,62Zm-3.78.88c.69.1,1,.79.92,1.68a1.19,1.19,0,1,1-2.3-.2C208.51,63.52,209,62.92,209.66,62.92Zm-3,.89a1.16,1.16,0,0,1,1,1.19c0,.59-.46,1.28-1,1.28a1.19,1.19,0,0,1-1-1.28A1.17,1.17,0,0,1,206.68,63.81Zm-2.06,1.28a1,1,0,0,1,1,.89,1,1,0,0,1-.58,1.19c-.45.1-.91-.3-1-.89A1,1,0,0,1,204.62,65.09Zm-1,1.39a.82.82,0,0,1,.69.88.72.72,0,0,1-.69.79.82.82,0,0,1-.68-.88A.72.72,0,0,1,203.58,66.48Zm7,.88c1,0,3.09.2,3.09,2.27,0,3-4.13,3-4.13,6.32,0,2.66,3.21,3,3.1,6C212.53,83.55,212,85,209,85a3.09,3.09,0,0,1-3.09-3.26c0-4.14-3.21-5.43-3-9.47C202.9,68.05,208.51,67.36,210.58,67.36Z"/>
    <path class="cls-3" d="M213.29,62c.93.09,1.39,1.16,1.16,2.33a2,2,0,0,1-2,1.84,1.84,1.84,0,0,1-1.16-2.33C211.56,62.81,212.49,61.94,213.29,62Zm-3.81.87c.69.1,1,.78.92,1.65a1.19,1.19,0,1,1-2.31-.19C208.32,63.49,208.79,62.91,209.48,62.91Zm-3,.87a1.15,1.15,0,0,1,1,1.17c0,.58-.46,1.26-1,1.26a1.23,1.23,0,0,1,0-2.43Zm-2.08,1.27a1,1,0,0,1,1,.87,1,1,0,0,1-.57,1.17,1,1,0,0,1-1.05-.88A1,1,0,0,1,204.39,65.05Zm-1,1.36a.83.83,0,0,1,.7.87.72.72,0,0,1-.7.78.83.83,0,0,1-.69-.87A.73.73,0,0,1,203.35,66.41Zm7.05.87c1,0,3.13.2,3.13,2.24,0,2.92-4.17,2.92-4.17,6.22,0,2.62,3.24,2.92,3.13,5.93-.12,1.55-.7,3-3.7,3a3.07,3.07,0,0,1-3.13-3.2c0-4.09-3.23-5.35-3-9.34C202.66,68,208.32,67.28,210.4,67.28Z"/>
  </g>
  <g>
    <path class="cls-2" d="M237,62c-.93.09-1.39,1.18-1.16,2.36a2,2,0,0,0,2,1.88,1.88,1.88,0,0,0,1.16-2.37C238.71,62.82,237.78,61.94,237,62Zm3.83.88c-.7.1-1.05.79-.93,1.68a1.2,1.2,0,1,0,2.32-.2C242,63.52,241.49,62.92,240.8,62.92Zm3,.89a1.16,1.16,0,0,0-1,1.19c0,.59.46,1.28,1,1.28A1.19,1.19,0,0,0,244.86,65,1.17,1.17,0,0,0,243.81,63.81Zm2.09,1.28a1,1,0,0,0-1,.89,1,1,0,0,0,.58,1.19c.46.1.92-.3,1-.89A1,1,0,0,0,245.9,65.09Zm1,1.39a.83.83,0,0,0-.69.88.72.72,0,0,0,.69.79.83.83,0,0,0,.7-.88A.73.73,0,0,0,246.94,66.48Zm-7.07.88c-1,0-3.13.2-3.13,2.27,0,3,4.17,3,4.17,6.32,0,2.66-3.24,3-3.13,6,.12,1.58.7,3.06,3.71,3.06a3.11,3.11,0,0,0,3.14-3.26c0-4.14,3.24-5.43,3-9.47C247.64,68.05,242,67.36,239.87,67.36Z"/>
    <path class="cls-3" d="M236.85,62c-.91.09-1.37,1.16-1.14,2.33a2,2,0,0,0,1.94,1.84,1.84,1.84,0,0,0,1.14-2.33C238.57,62.81,237.65,61.94,236.85,62Zm3.77.87c-.68.1-1,.78-.91,1.65a1.18,1.18,0,1,0,2.28-.19C241.76,63.49,241.31,62.91,240.62,62.91Zm3,.87a1.15,1.15,0,0,0-1,1.17c0,.58.46,1.26,1,1.26a1.23,1.23,0,0,0,0-2.43Zm2.06,1.27a1,1,0,0,0-1,.87,1,1,0,0,0,.57,1.17,1,1,0,0,0,1-.88A1,1,0,0,0,245.65,65.05Zm1,1.36a.82.82,0,0,0-.69.87.71.71,0,0,0,.69.78.82.82,0,0,0,.68-.87A.72.72,0,0,0,246.68,66.41Zm-7,.87c-1,0-3.09.2-3.09,2.24,0,2.92,4.12,2.92,4.12,6.22,0,2.62-3.2,2.92-3.09,5.93.12,1.55.69,3,3.66,3a3.05,3.05,0,0,0,3.08-3.2c0-4.09,3.2-5.35,3-9.34C247.36,68,241.76,67.28,239.71,67.28Z"/>
  </g>
  <path class="cls-2" d="M115.82,67.62V81.77h-4.65V67.62h-4.45V65.28h13.52v2.34Z"/>
  <path class="cls-2" d="M84.33,72.28c-.11-.27-.45-.29-.73-.29h-1c-.31,0-.89,0-.91-.22v-.12a3,3,0,0,0,1.18-.25,1.74,1.74,0,0,0,.82-.74,1.63,1.63,0,0,0,.17-1.06,1.75,1.75,0,0,0-.57-.94,1.9,1.9,0,0,0-1-.44h-.12a1.25,1.25,0,0,0-.42-1.06,1.55,1.55,0,0,0-1.46-.33,1.61,1.61,0,0,0-.3-.58,2.18,2.18,0,0,0-1.26-.78,2.51,2.51,0,0,0-1.41.11,2.47,2.47,0,0,0-1.79-.25,2.16,2.16,0,0,0-1.55,1.31,1.72,1.72,0,0,0-.11.67,1.47,1.47,0,0,0-.92.36,1.18,1.18,0,0,0-.42.85A1.57,1.57,0,0,0,71.19,70c0,.84.74,1.53,1.89,1.53,0,0,0,4.16-.14,5.6a21.07,21.07,0,0,1-.47,3.29h0l-.17.71a.59.59,0,0,0,.62.67h8.91a.6.6,0,0,0,.62-.67l-.18-.73h0a1.64,1.64,0,0,0,0-.19c-.06-.91,1.58-1.59,2.13-2.51C84.83,77,84.78,73.41,84.33,72.28Zm-4-4.75a1.55,1.55,0,0,0,0-.22,1,1,0,0,1,1,.19.77.77,0,0,1,.24.77,1.74,1.74,0,0,0-.4.15,1.78,1.78,0,0,0-.4.31l-.11-.09a1.46,1.46,0,0,0-.68-.27A1.61,1.61,0,0,0,80.3,67.53ZM71.75,70a1,1,0,0,1,.83-1,1.07,1.07,0,0,0,.66.57,1.22,1.22,0,0,1-.31-.86,1.08,1.08,0,0,1,.35-.71,1.32,1.32,0,0,1,.61-.28,1.68,1.68,0,0,0,.24.46,1.19,1.19,0,0,0-.15.55,1.32,1.32,0,0,0,.27.82,1.73,1.73,0,0,0,1.59.51,1.46,1.46,0,0,1-1.21-.71,1,1,0,0,1,.12-1.14,1.31,1.31,0,0,1,1.19-.42,1.39,1.39,0,0,1,1.08.85,1.25,1.25,0,0,0-1-1.24,1.7,1.7,0,0,0-1,0,1.59,1.59,0,0,0-.8.5l-.09.13a1.85,1.85,0,0,1,.22-1.23,1.93,1.93,0,0,1,1.22-.88,2.15,2.15,0,0,1,1.55.21,2.09,2.09,0,0,1,1,1.3,1.64,1.64,0,0,0-.44-1.5,2,2,0,0,1,1.83.53,1.64,1.64,0,0,1,.27,1.88,1.54,1.54,0,0,0-.48,0,1.13,1.13,0,0,0-.83.76,1.58,1.58,0,0,1,.91-.37,1.27,1.27,0,0,1,.82.25,1,1,0,0,1,.43.68,1.25,1.25,0,0,1-.22.88,1.05,1.05,0,0,0,.66-.89,1.15,1.15,0,0,0-.27-.84,1.76,1.76,0,0,1,1.26-.17,1.36,1.36,0,0,1,1,1c.09.46-.22,1.27-1.65,1.27H79.73a1.09,1.09,0,0,0,0-.4,1.31,1.31,0,0,0-.68-.8,1.09,1.09,0,0,1,.47.88,1.28,1.28,0,0,1-.64,1.07,1.21,1.21,0,0,1-1.18,0,1.27,1.27,0,0,0,.13-.32,1.6,1.6,0,0,0-.44-1.51,1.46,1.46,0,0,1-.06,1.71,1.73,1.73,0,0,1-2,.61,1.35,1.35,0,0,1-1-1.26H73.1C72.37,71,71.75,70.56,71.75,70Zm7.72,7.87a.37.37,0,0,1,.37.38.39.39,0,0,1-.43.33.36.36,0,0,1-.36-.38A.37.37,0,0,1,79.47,77.87Zm-.56-3.4a.58.58,0,0,1,.63-.49.56.56,0,0,1,.55.56.58.58,0,0,1-.63.49A.56.56,0,0,1,78.91,74.47Zm.89,2.08a.5.5,0,0,1-.48-.51.51.51,0,0,1,.56-.43.49.49,0,0,1,.48.5A.51.51,0,0,1,79.8,76.55ZM78.5,73.2a1.1,1.1,0,0,1,0,.18.56.56,0,0,1-.62.48.54.54,0,0,1-.53-.54c-1.36.25-2.45.71-3.5.26,0,0,0-1.61,0-2.1a1.94,1.94,0,0,0,1.43,1.3,2.28,2.28,0,0,0,2.23-.55,1.76,1.76,0,0,0,2.17-.62H80.8v2A6.08,6.08,0,0,0,78.5,73.2Zm-.25,3.56a.42.42,0,1,1-.06.83.42.42,0,0,1-.43-.44A.46.46,0,0,1,78.25,76.76Zm-.52-.58a.62.62,0,0,1-.6-.63.65.65,0,0,1,.7-.55.61.61,0,0,1,.6.63A.64.64,0,0,1,77.73,76.18Zm.6,2.4a.42.42,0,0,1,.41.43.44.44,0,0,1-.47.37.41.41,0,0,1-.41-.43A.44.44,0,0,1,78.33,78.58Zm-4.51,1.17h0a18.05,18.05,0,0,0,.46-2.94c.11-1.47.14-2.46.14-2.46H75s0,1-.15,2.46-.17,3-.17,3l-1,.62ZM73.76,81c1-.17,1.88-1.26,3.84-1.26h0a4.42,4.42,0,0,1,1.24.17s0,0,0,0a.35.35,0,0,1,.38-.3.33.33,0,0,1,.33.34.36.36,0,0,1-.11.21,7.57,7.57,0,0,0,2,.87Zm7-1.34a12.07,12.07,0,0,1,.14-3,17.55,17.55,0,0,0,.39,2.92,4.28,4.28,0,0,0,.25.67Zm3.09-3a1.1,1.1,0,0,1-1.17,1.1.89.89,0,0,1-.85-.76v0c0-.62-.07-1.55-.09-2.49.17,0,.55-.13.55-.73s-.1-1.1.93-1.1S83.84,76.11,83.84,76.7Z"/>
  <path class="cls-3" d="M83.83,72.28c-.1-.27-.45-.29-.73-.29h-1c-.32,0-.9,0-.91-.22v-.12a3,3,0,0,0,1.18-.25,1.72,1.72,0,0,0,.81-.74,1.57,1.57,0,0,0,.17-1.06,1.67,1.67,0,0,0-.56-.94,1.9,1.9,0,0,0-1.05-.44h-.12a1.25,1.25,0,0,0-.42-1.06,1.56,1.56,0,0,0-1.46-.33,1.8,1.8,0,0,0-.31-.58,2.19,2.19,0,0,0-1.25-.78,2.55,2.55,0,0,0-1.42.11A2.44,2.44,0,0,0,75,65.32a2.16,2.16,0,0,0-1.55,1.31,1.55,1.55,0,0,0-.11.67,1.49,1.49,0,0,0-.93.36,1.21,1.21,0,0,0-.41.85A1.58,1.58,0,0,0,70.69,70c0,.84.75,1.53,1.9,1.53,0,0,0,4.16-.15,5.6A21.89,21.89,0,0,1,72,80.42h0l-.17.71a.6.6,0,0,0,.62.67h8.91a.59.59,0,0,0,.62-.67l-.17-.73h0s0-.1,0-.19c-.07-.91,1.58-1.59,2.13-2.51C84.33,77,84.29,73.41,83.83,72.28Zm-4-4.75a1.55,1.55,0,0,0,0-.22,1,1,0,0,1,1,.19.77.77,0,0,1,.24.77,1.53,1.53,0,0,0-.81.46l-.1-.09a1.54,1.54,0,0,0-.69-.27A1.63,1.63,0,0,0,79.81,67.53ZM71.26,70a1,1,0,0,1,.82-1,1.09,1.09,0,0,0,.66.57,1.21,1.21,0,0,1-.3-.86,1,1,0,0,1,.35-.71,1.23,1.23,0,0,1,.61-.28,1.65,1.65,0,0,0,.23.46,1.32,1.32,0,0,0-.14.55,1.26,1.26,0,0,0,.27.82,1.71,1.71,0,0,0,1.58.51,1.43,1.43,0,0,1-1.2-.71,1,1,0,0,1,.12-1.14,1.29,1.29,0,0,1,1.18-.42,1.39,1.39,0,0,1,1.09.85,1.26,1.26,0,0,0-1-1.24,1.7,1.7,0,0,0-1,0,1.6,1.6,0,0,0-.79.5l-.09.13a1.85,1.85,0,0,1,.21-1.23,2,2,0,0,1,1.23-.88,2.15,2.15,0,0,1,1.55.21,2.08,2.08,0,0,1,1,1.3,1.61,1.61,0,0,0-.44-1.5,2,2,0,0,1,1.83.53,1.64,1.64,0,0,1,.27,1.88,1.47,1.47,0,0,0-.47,0,1.11,1.11,0,0,0-.83.76,1.53,1.53,0,0,1,.91-.37,1.27,1.27,0,0,1,.82.25,1,1,0,0,1,.42.68,1.2,1.2,0,0,1-.22.88,1,1,0,0,0,.66-.89,1.1,1.1,0,0,0-.26-.84,1.76,1.76,0,0,1,1.26-.17,1.38,1.38,0,0,1,1,1c.09.46-.23,1.27-1.65,1.27H79.24a1.81,1.81,0,0,0,0-.4,1.35,1.35,0,0,0-.68-.8,1.12,1.12,0,0,1,.47.88,1.3,1.3,0,0,1-.64,1.07,1.21,1.21,0,0,1-1.18,0,1.75,1.75,0,0,0,.12-.32,1.57,1.57,0,0,0-.43-1.51,1.46,1.46,0,0,1-.07,1.71,1.72,1.72,0,0,1-1.94.61,1.35,1.35,0,0,1-1-1.26H72.61C71.88,71,71.26,70.56,71.26,70ZM79,77.87a.36.36,0,0,1,.36.38.4.4,0,0,1-.79,0A.39.39,0,0,1,79,77.87Zm-.56-3.4a.57.57,0,0,1,.63-.49.55.55,0,0,1,.54.56A.56.56,0,0,1,79,75,.55.55,0,0,1,78.42,74.47Zm.89,2.08a.5.5,0,0,1-.49-.51.52.52,0,0,1,.56-.43.48.48,0,0,1,.48.5A.49.49,0,0,1,79.31,76.55ZM78,73.2a.5.5,0,0,1-.59.66.56.56,0,0,1-.54-.54c-1.36.25-2.45.71-3.49.26,0,0,0-1.61,0-2.1a1.94,1.94,0,0,0,1.43,1.3A2.26,2.26,0,0,0,77,72.23a1.75,1.75,0,0,0,2.17-.62H80.3v2A6.08,6.08,0,0,0,78,73.2Zm-.24,3.56a.42.42,0,1,1-.5.39A.46.46,0,0,1,77.76,76.76Zm-.52-.58a.61.61,0,0,1-.6-.63.65.65,0,0,1,1.3.08A.65.65,0,0,1,77.24,76.18Zm.6,2.4a.41.41,0,0,1,.4.43.42.42,0,0,1-.47.37.43.43,0,0,1-.41-.43A.44.44,0,0,1,77.84,78.58Zm-4.51,1.17h0a19.37,19.37,0,0,0,.46-2.94c.1-1.47.14-2.46.14-2.46h.58s0,1-.14,2.46-.17,3-.17,3l-1,.62ZM73.27,81c1-.17,1.88-1.26,3.84-1.26h0a4.53,4.53,0,0,1,1.24.17s0,0,0,0a.34.34,0,0,1,.38-.3.33.33,0,0,1,.33.34.33.33,0,0,1-.12.21A7.86,7.86,0,0,0,81,81Zm7-1.34a11.5,11.5,0,0,1,.14-3,16.49,16.49,0,0,0,.39,2.92,3.73,3.73,0,0,0,.24.67Zm3.08-3a1.1,1.1,0,0,1-1.17,1.1.89.89,0,0,1-.84-.76v0c0-.62-.07-1.55-.09-2.49.17,0,.54-.13.54-.73s-.1-1.1.93-1.1S83.34,76.11,83.34,76.7Z"/>
  <g>
    <path class="cls-2" d="M50.31,72.5c-.1-.26-.45-.29-.73-.29h-1c-.32,0-.9,0-.91-.21v-.13a3,3,0,0,0,1.18-.24,1.79,1.79,0,0,0,.81-.75,1.56,1.56,0,0,0,.17-1.06,1.65,1.65,0,0,0-.56-.93,1.87,1.87,0,0,0-1.05-.45H48.1a1.26,1.26,0,0,0-.42-1.07A1.62,1.62,0,0,0,46.22,67a1.91,1.91,0,0,0-.31-.58,2.18,2.18,0,0,0-1.25-.77,2.46,2.46,0,0,0-1.42.1,2.45,2.45,0,0,0-1.79-.24,2.16,2.16,0,0,0-1.55,1.31,1.66,1.66,0,0,0-.1.66,1.47,1.47,0,0,0-.93.36,1.23,1.23,0,0,0-.41.86,1.56,1.56,0,0,0-1.29,1.48c0,.84.75,1.53,1.9,1.53,0,0,0,4.17-.15,5.61a21.61,21.61,0,0,1-.46,3.28h0l-.17.71a.6.6,0,0,0,.62.68h8.91a.59.59,0,0,0,.62-.68l-.17-.73h0s0-.09,0-.19c-.07-.9,1.58-1.58,2.13-2.5C50.81,77.18,50.77,73.63,50.31,72.5Zm-4-4.75a1.48,1.48,0,0,0,0-.21,1,1,0,0,1,1,.18.78.78,0,0,1,.24.77,2.05,2.05,0,0,0-.41.16,2,2,0,0,0-.4.3.39.39,0,0,0-.1-.08,1.43,1.43,0,0,0-.69-.27A1.7,1.7,0,0,0,46.29,67.75Zm-8.55,2.47a1,1,0,0,1,.82-1,1.11,1.11,0,0,0,.66.58,1.29,1.29,0,0,1-.31-.86,1,1,0,0,1,.36-.71,1.16,1.16,0,0,1,.61-.29,1.53,1.53,0,0,0,.23.46A1.36,1.36,0,0,0,40,69a1.29,1.29,0,0,0,.27.83,1.68,1.68,0,0,0,1.58.5,1.42,1.42,0,0,1-1.2-.7,1,1,0,0,1,.12-1.15A1.32,1.32,0,0,1,41.92,68a1.41,1.41,0,0,1,1.09.85,1.25,1.25,0,0,0-1-1.23,1.7,1.7,0,0,0-1,0,1.62,1.62,0,0,0-.79.51l-.09.13a1.77,1.77,0,0,1,.21-1.23,1.93,1.93,0,0,1,1.23-.89,2.16,2.16,0,0,1,1.55.22,2.06,2.06,0,0,1,1,1.29,1.61,1.61,0,0,0-.44-1.49,1.94,1.94,0,0,1,1.83.52,1.65,1.65,0,0,1,.27,1.88,1.48,1.48,0,0,0-.47,0,1.08,1.08,0,0,0-.83.76,1.47,1.47,0,0,1,.91-.37,1.26,1.26,0,0,1,.82.24,1,1,0,0,1,.42.68,1.2,1.2,0,0,1-.22.88,1,1,0,0,0,.66-.89,1.11,1.11,0,0,0-.27-.84,1.73,1.73,0,0,1,1.27-.16,1.32,1.32,0,0,1,1,1c.1.46-.22,1.27-1.64,1.27H45.72a1.75,1.75,0,0,0,0-.4A1.37,1.37,0,0,0,45,70a1.12,1.12,0,0,1,.47.88A1.32,1.32,0,0,1,44.82,72a1.22,1.22,0,0,1-1.17,0,2.08,2.08,0,0,0,.12-.32,1.6,1.6,0,0,0-.43-1.52,1.48,1.48,0,0,1-.07,1.72,1.72,1.72,0,0,1-1.94.6,1.34,1.34,0,0,1-1-1.25H39.09C38.36,71.21,37.74,70.78,37.74,70.22Zm7.72,7.87a.37.37,0,0,1,.36.38.4.4,0,0,1-.79,0A.4.4,0,0,1,45.46,78.09Zm-.56-3.4a.57.57,0,0,1,.63-.49.56.56,0,0,1,.54.57.56.56,0,0,1-.62.49A.56.56,0,0,1,44.9,74.69Zm.89,2.08a.49.49,0,0,1-.49-.5.52.52,0,0,1,.56-.44.49.49,0,0,1,.48.51A.49.49,0,0,1,45.79,76.77Zm-1.31-3.34a.47.47,0,0,1,0,.17.56.56,0,0,1-.62.48.54.54,0,0,1-.54-.53c-1.36.24-2.45.71-3.49.25,0,0,0-1.6,0-2.09A1.93,1.93,0,0,0,41.3,73a2.24,2.24,0,0,0,2.22-.55,1.75,1.75,0,0,0,2.17-.61h1.09v2A6.25,6.25,0,0,0,44.48,73.43ZM44.24,77a.42.42,0,0,1,.42.44.46.46,0,0,1-.92-.06A.45.45,0,0,1,44.24,77Zm-.52-.59a.61.61,0,0,1-.61-.62.64.64,0,0,1,.7-.55.62.62,0,0,1,.61.63A.64.64,0,0,1,43.72,76.4Zm.59,2.41a.4.4,0,0,1,.41.42.44.44,0,0,1-.88,0A.43.43,0,0,1,44.31,78.81ZM39.81,80h0A18.86,18.86,0,0,0,40.28,77c.1-1.47.14-2.46.14-2.46H41s0,1-.14,2.46-.17,3-.17,3l-1,.62Zm-.06,1.28c1-.17,1.88-1.26,3.84-1.27h0a4.53,4.53,0,0,1,1.24.17s0,0,0,0a.35.35,0,0,1,.38-.3.33.33,0,0,1,.32.34.25.25,0,0,1-.11.21,8.27,8.27,0,0,0,2,.88Zm7-1.34a11.58,11.58,0,0,1,.14-3,16.66,16.66,0,0,0,.39,2.93,4.11,4.11,0,0,0,.24.67Zm3.08-3A1.11,1.11,0,0,1,48.65,78a.89.89,0,0,1-.84-.77v0c0-.62-.07-1.56-.09-2.49.17,0,.54-.13.54-.73s-.1-1.1.93-1.1S49.82,76.34,49.82,76.92Z"/>
    <path class="cls-3" d="M49.82,72.05c-.11-.26-.45-.29-.73-.29h-1c-.31,0-.89,0-.9-.21a.66.66,0,0,1,0-.13,3,3,0,0,0,1.18-.24,1.76,1.76,0,0,0,.82-.75,1.55,1.55,0,0,0,.17-1.05,1.6,1.6,0,0,0-.57-.94A1.92,1.92,0,0,0,47.72,68H47.6a1.26,1.26,0,0,0-.42-1.07,1.61,1.61,0,0,0-1.46-.33,1.79,1.79,0,0,0-.3-.58,2.22,2.22,0,0,0-1.26-.77,2.42,2.42,0,0,0-1.41.1A2.51,2.51,0,0,0,41,65.1a2.16,2.16,0,0,0-1.55,1.31,1.66,1.66,0,0,0-.1.66,1.43,1.43,0,0,0-.93.37,1.22,1.22,0,0,0-.42.85,1.57,1.57,0,0,0-1.28,1.48c0,.85.74,1.53,1.89,1.53,0,0,0,4.17-.14,5.61A21.89,21.89,0,0,1,38,80.2h0l-.17.7a.59.59,0,0,0,.62.68h8.91A.6.6,0,0,0,48,80.9l-.18-.73h0s0-.09,0-.19c-.06-.9,1.58-1.58,2.13-2.5C50.32,76.73,50.28,73.18,49.82,72.05Zm-4-4.75a1.47,1.47,0,0,0,0-.21,1,1,0,0,1,1,.18A.8.8,0,0,1,47,68a1.84,1.84,0,0,0-.41.16,1.53,1.53,0,0,0-.4.31.31.31,0,0,0-.11-.09,1.36,1.36,0,0,0-.68-.27A1.79,1.79,0,0,0,45.8,67.3Zm-8.56,2.47a1.06,1.06,0,0,1,.83-1,1.08,1.08,0,0,0,.66.58,1.22,1.22,0,0,1-.31-.86,1.05,1.05,0,0,1,.35-.71,1.23,1.23,0,0,1,.62-.29,1.53,1.53,0,0,0,.23.46,1.23,1.23,0,0,0-.15.55,1.35,1.35,0,0,0,.27.83,1.7,1.7,0,0,0,1.59.5,1.43,1.43,0,0,1-1.21-.7A1,1,0,0,1,40.25,68a1.29,1.29,0,0,1,1.18-.43,1.43,1.43,0,0,1,1.09.85,1.26,1.26,0,0,0-1-1.23,1.7,1.7,0,0,0-.95,0,1.54,1.54,0,0,0-.79.51.64.64,0,0,0-.1.13,1.83,1.83,0,0,1,.22-1.23,1.91,1.91,0,0,1,1.22-.89,2.16,2.16,0,0,1,1.55.22,2.07,2.07,0,0,1,1,1.29,1.62,1.62,0,0,0-.44-1.49,1.93,1.93,0,0,1,1.83.53,1.64,1.64,0,0,1,.27,1.88,1.47,1.47,0,0,0-.47,0,1.09,1.09,0,0,0-.84.76,1.52,1.52,0,0,1,.92-.37,1.34,1.34,0,0,1,.82.24,1.09,1.09,0,0,1,.42.68,1.2,1.2,0,0,1-.22.88,1.05,1.05,0,0,0,.66-.89,1.15,1.15,0,0,0-.27-.84,1.82,1.82,0,0,1,1.26-.16,1.35,1.35,0,0,1,1,1c.09.46-.22,1.27-1.65,1.27H45.22a1.07,1.07,0,0,0,0-.4,1.33,1.33,0,0,0-.68-.81,1.11,1.11,0,0,1,.47.89,1.31,1.31,0,0,1-.64,1.07,1.24,1.24,0,0,1-1.18,0,1.44,1.44,0,0,0,.13-.32,1.58,1.58,0,0,0-.44-1.51,1.46,1.46,0,0,1-.06,1.71,1.73,1.73,0,0,1-2,.6,1.34,1.34,0,0,1-.95-1.25H38.6C37.86,70.76,37.24,70.33,37.24,69.77ZM45,77.64a.38.38,0,0,1,.37.39.4.4,0,0,1-.42.33.38.38,0,0,1-.37-.38A.38.38,0,0,1,45,77.64Zm-.55-3.4a.56.56,0,0,1,.62-.49.56.56,0,0,1,.55.57.57.57,0,0,1-.63.49A.54.54,0,0,1,44.41,74.24Zm.88,2.08a.48.48,0,0,1-.48-.5.52.52,0,0,1,.56-.44.47.47,0,1,1-.08.94ZM44,73a.32.32,0,0,1,0,.17.55.55,0,0,1-.61.48.53.53,0,0,1-.54-.53c-1.36.24-2.45.71-3.5.25,0,0,0-1.6,0-2.09a1.92,1.92,0,0,0,1.42,1.29A2.25,2.25,0,0,0,43,72a1.75,1.75,0,0,0,2.17-.61h1.09v2A6.25,6.25,0,0,0,44,73Zm-.25,3.56a.42.42,0,0,1,.43.44.46.46,0,0,1-.49.39.44.44,0,0,1-.43-.45A.45.45,0,0,1,43.74,76.54ZM43.23,76a.61.61,0,0,1-.61-.62.64.64,0,0,1,.7-.55.6.6,0,0,1,.6.63A.62.62,0,0,1,43.23,76Zm.59,2.41a.41.41,0,0,1,.41.42.43.43,0,0,1-.47.37.41.41,0,0,1-.41-.42A.43.43,0,0,1,43.82,78.36Zm-4.5,1.16h0a17.61,17.61,0,0,0,.46-2.94c.11-1.47.15-2.45.15-2.45h.58s0,1-.15,2.45-.16,3-.16,3l-1.06.62Zm-.07,1.28c1-.17,1.89-1.26,3.84-1.26h0a4.42,4.42,0,0,1,1.23.16v0a.35.35,0,0,1,.7,0,.31.31,0,0,1-.11.2,7.75,7.75,0,0,0,2,.88Zm7-1.34a11.82,11.82,0,0,1,.13-3,17.56,17.56,0,0,0,.39,2.93,4.8,4.8,0,0,0,.25.67Zm3.08-3a1.11,1.11,0,0,1-1.17,1.11.9.9,0,0,1-.85-.77v0c0-.62-.06-1.56-.09-2.49.17,0,.55-.13.55-.73s-.1-1.1.93-1.1S49.33,75.89,49.33,76.47Z"/>
  </g>
  <path class="cls-3" d="M115.34,67.62V81.77h-4.65V67.62h-4.45V65.28h13.53v2.34Z"/>
  <g>
    <path class="cls-2" d="M173.65,82h-4.94V65.54H174c3.86,0,7.37.76,7.37,3.74a4.16,4.16,0,0,1-3,3.62V73c2,.54,3.88,1.71,3.88,3.92C182.24,80.27,178.7,82,173.65,82Zm-.07-14.17v4c.14,0,.64,0,.75,0a2.06,2.06,0,0,0,2.09-2.1C176.42,68.44,175.41,67.86,173.58,67.86Zm0,6.35v5.52c2.06,0,3.59-.83,3.59-2.73S175.5,74.21,173.58,74.21Z"/>
    <path class="cls-3" d="M173.18,81.52h-4.94V65h5.3c3.85,0,7.37.76,7.37,3.74a4.18,4.18,0,0,1-3,3.63v.06c2,.54,3.88,1.72,3.88,3.92C181.77,79.76,178.23,81.52,173.18,81.52Zm-.07-14.17V71.4c.14,0,.63,0,.74,0a2.06,2.06,0,0,0,2.1-2.1C176,67.93,174.94,67.35,173.11,67.35Zm0,6.35v5.52c2,0,3.59-.83,3.59-2.72S175,73.7,173.11,73.7Z"/>
  </g>
  <g>
    <path class="cls-2" d="M9.77,82H4.83V65.54h5.3c3.86,0,7.37.76,7.37,3.74a4.16,4.16,0,0,1-3,3.62V73c2,.54,3.88,1.71,3.88,3.92C18.36,80.27,14.82,82,9.77,82ZM9.7,67.86v4c.14,0,.64,0,.75,0a2.06,2.06,0,0,0,2.09-2.1C12.54,68.44,11.53,67.86,9.7,67.86Zm0,6.35v5.52c2.06,0,3.59-.83,3.59-2.73S11.62,74.21,9.7,74.21Z"/>
    <path class="cls-3" d="M9.3,81.52H4.36V65h5.3c3.85,0,7.37.76,7.37,3.74a4.18,4.18,0,0,1-3,3.63v.06c2,.54,3.88,1.72,3.88,3.92C17.89,79.76,14.35,81.52,9.3,81.52ZM9.23,67.35V71.4c.14,0,.63,0,.74,0a2.06,2.06,0,0,0,2.1-2.1C12.07,67.93,11.06,67.35,9.23,67.35Zm0,6.35v5.52c2,0,3.58-.83,3.58-2.72S11.15,73.7,9.23,73.7Z"/>
  </g>
  <g>
    <path class="cls-2" d="M277.38,82l-2.6-8.2c1.64-.32,2.69-1,2.69-3.14a2.87,2.87,0,0,0-3.18-2.9V82h-4.86V65.54h5c4.32,0,8,.9,8,4.68a4.79,4.79,0,0,1-2.62,4.42L282.7,82Z"/>
    <path class="cls-3" d="M276.65,81.52l-2.6-8.2c1.64-.32,2.69-1,2.69-3.13a2.88,2.88,0,0,0-3.18-2.91V81.52H268.7V65h5c4.32,0,7.95.9,7.95,4.68a4.79,4.79,0,0,1-2.62,4.42L282,81.52Z"/>
  </g>
</svg>
