<?xml version="1.0" encoding="utf-8"?>
<!-- Generator: Adobe Illustrator 26.0.3, SVG Export Plug-In . SVG Version: 6.00 Build 0)  -->
<svg version="1.1" id="Layer_1" xmlns="http://www.w3.org/2000/svg" xmlns:xlink="http://www.w3.org/1999/xlink" x="0px" y="0px"
	 viewBox="0 0 235.7 54.8" style="enable-background:new 0 0 235.7 54.8;" xml:space="preserve">
<style type="text/css">
	.st0{fill:#E02F26;}
	.st1{fill:#1569B0;}
	.st2{font-family:'MosquitoStd-Black';}
	.st3{font-size:11.2889px;}
	.st4{letter-spacing:8;}
</style>
<path class="st0" d="M21.7,52.4V29.8H11.4v22.6H0V0h11.4v22.3h10.3V0H33v52.4H21.7z"/>
<path class="st0" d="M53.5,36.9c-8.5,0-15.4-4.7-15.4-17.8c0-13.2,7.1-19,15.4-19c8.5,0,15.3,4.8,15.3,17.7
	C68.9,31.1,61.8,36.9,53.5,36.9z M53.6,5c-3.6,0-5.7,4.6-5.7,12.8c0,8.3,2.1,14.2,5.7,14.2c3.6,0,5.6-4.4,5.6-12.7
	C59.2,11,57.2,5,53.6,5z"/>
<path class="st0" d="M74.1,35.9V0H85v30.9l12.3-0.5v5.5H74.1z"/>
<path class="st0" d="M112.3,36.8c-3.5,0-6.3-0.4-8.4-1.1l0.3-5.3c2.8,0.9,4.8,1.4,7.3,1.4c3,0,6-1.3,6-4.1c0-3-4.4-5.7-6.9-7.8
	c-3.5-2.8-6.7-5.3-6.7-10.2c0-5.7,5.4-9.8,14.3-9.8c3.1,0,5.9,0.4,8.3,0.9L126,6.2c-2.4-0.7-4.4-1.2-6.8-1.2c-2.1,0-4.3,1.4-4.3,3.6
	s3.4,4.7,6.2,6.6c4.7,3.2,7.4,6.1,7.4,11.1C128.6,31.5,123.5,36.8,112.3,36.8z"/>
<path class="st0" d="M151.3,5.1v30.8h-10.8V5.1h-10.4V0h31.5v5.1H151.3z"/>
<path class="st0" d="M165.6,35.9V0h23.9v5h-13v10.2h10.2V20h-10.2v10.9H190v5H165.6z"/>
<path class="st0" d="M227,52.4l-18.5-30.6l0.1,30.6h-11.5V0h8.6L224,31.1L223.7,0h12v52.4H227z"/>
<text transform="matrix(1 0 0 1 45.7295 52.3996)" class="st1 st2 st3 st4">BOOT BEER</text>
</svg>
