<svg id="Layer_1" data-name="Layer 1" xmlns="http://www.w3.org/2000/svg" width="1.18in" height="4.72in" viewBox="0 0 84.95 339.88">
  <defs>
    <style>
      .cls-1 {
        fill: #fefefe;
      }

      .cls-2 {
        fill: #8dabb7;
      }

      .cls-3 {
        fill: #781411;
      }
    </style>
  </defs>
  <g>
    <path class="cls-1" d="M3.62,195.93a1.29,1.29,0,0,0-.06,1.76v1.16a14.68,14.68,0,0,0-.39,2.42Q3.1,218.64,2.48,236c-.25,6.76-.4,13.54-.17,20.3s-.95,13.22-.53,19.88c.34,5.44-.59,10.91-.31,16.38-.08,1.87-.15,3.73-.27,5.6,0,.39,0,1-.64.94-.42-.06-.73-.43-.45-1a.89.89,0,0,0,.06.15A4,4,0,0,1,1,301.85a2.66,2.66,0,0,0-.09,2.82l-.05,1.21a1.35,1.35,0,0,0-.06,1.69l.06.88-.06.48a4.44,4.44,0,0,0-.7,2.76c.51,3.68.52,7.42,1.38,11.06,1.89,8,6.15,13.34,14.84,14.86a147.93,147.93,0,0,0,21.29,2.22c9.77.29,19.4-.74,29-2,3.8-.51,6.52-3.14,9.77-4.73.87.6,1.31-.07,1.71-.64a11.85,11.85,0,0,0,1.91-3.53,36,36,0,0,0,3.25-16.44c-.22-11.2-.46-22.39,0-33.59a8.08,8.08,0,0,0,.39-2.89c.09-8.28.24-16.56.27-24.84,0-10.52,0-21,0-31.56,0-9.49,0-19,0-28.46,0-7.37.35-14.71.88-22.07.5-7-1.31-13.84-3.25-20.56-.19-.63-.68-1.27-.36-1.9.72-1.38-.11-1.64-1.16-1.83a22.92,22.92,0,0,0-2.46-5.08,1.31,1.31,0,0,0-.87-1.77,80.16,80.16,0,0,1-6.38-17.85c-.4-4.09-.91-8.17-1.17-12.27-.11-1.63-.86-3.46.7-4.92.38-.35,0-.47-.3-.42-1.47.24-.86-.9-.91-1.47-.6-6.58-1.14-13.16-1.72-19.73-.45-5.07-.92-10.13-1.38-15.19v0s.15-.08.15-.11-.08-.23-.12-.34a2.14,2.14,0,0,1-.08-.44,11.92,11.92,0,0,0,0-1.79c-1.16-9.68-1.78-19.4-2.39-29.13-.27-4.45-.19-9-1.65-13.33,1.71-1.24,2.48-2.75,1.36-4.8A2,2,0,0,0,62.12,14c.72-1.14,2.67-1.25,2.45-3.22C64,5.62,62.16,2.49,56.92,1.3A52.86,52.86,0,0,0,35.73.86c-5.37.94-7.3,3.9-7.84,9.09a2.06,2.06,0,0,0,1.46,2.36l.27,2.3c-.73.89-1.5,2.1-.91,3,1.28,2,.64,3.89.2,5.84a6.34,6.34,0,0,0-.52,3.88c-.32,3.14-.68,6.28-1,9.43-.54,6.11-1,12.22-1.53,18.33a41.83,41.83,0,0,0-.54,8.21c-.11.45-.23.9-.35,1.36l-.05.5,0,.85c-.76,6.72-1.61,13.43-2.26,20.17-.29,3-1.46,6-.46,9.1l-.53.61-.29.48c-.2,4.5-1.07,8.94-1.4,13.42a62.68,62.68,0,0,1-8.11,26.83c-4.08,7.19-7.15,14.69-8.16,23-.77,6.33-.47,12.63-.2,19,0,0-.16.12-.15.15a2.31,2.31,0,0,0,.18.35c0,.93.07,1.86.11,2.79-.61.6-.31,1.18.05,1.75l0,4.2-.14,0,.13.19v1.15c-.31.21-.31.42,0,.64v2l-.08.1.08.11Z"/>
    <path class="cls-2" d="M1.47,292.54c-.28-5.47.65-10.94.31-16.38-.42-6.66.75-13.23.53-19.88s-.08-13.54.17-20.3q.63-17.35.69-34.71a14.68,14.68,0,0,1,.39-2.42,11.25,11.25,0,0,0,.14-6.77L3.62,192l.08-.1c.94-2.6,0-5.34.59-8a3.26,3.26,0,0,0-.57-.28c-.36-.57-.66-1.15-.05-1.75l.51.62a2.37,2.37,0,0,0,.14-.57c.22-6.22-.81-12.45.2-18.64.58-3.59.65-7.4,3.59-10.22.45,1.79,1.26,3.39,1.75,5.05a79.71,79.71,0,0,1,2.83,26.54,97.71,97.71,0,0,0,.58,17.14c9-11,19.57-18.25,34.32-16.45-2.84.3-5.82-.32-8.65,1,1.11-.05,1.1,1.64,2,1.33,3.15-1.12,6.27.28,9.42,0-.22-.74-1.56-1.65.53-1.69A17.36,17.36,0,0,1,58,187.63c7.7,3.18,13.3,8.6,17.39,15.76,1.26,2.2,2.78,4.25,4.18,6.37a80.72,80.72,0,0,0,.85-10.65c.13-6.56.13-13.11.56-19.66.34-5.29,1.72-10.55,0-15.87-.34-1.06.61-2.74-1.63-2.62-.26,0-.57-.46-.22-.89,1-1.28-.88-.57-.83-1.3,1.43.33,1.79-.39,1.32-1.54-1.32-3.21-1.78-6.63-3.54-9.82-2.94-5.34-5-11.15-8.17-16.43-.35-.58-.37-1.45-1.3-1.7a12.8,12.8,0,0,0,.39,4.81c-2.38-.9-2.42-.91-2-3.24a4.39,4.39,0,0,0-.12-1.28c-.23-2.55-2.9-4-2.9-6.64,0,0-.11-.09-.17-.12a1.7,1.7,0,0,1-.34-2.89c1.63-1.36,1.33-3.12,1.47-4.76.27-3.19.82-6.47.38-9.58-.56-4-.81-8-1-12-.22-4.42-.66-8.85-.72-13.3-.07-4.76-.89-9.51-1.39-14.26v0l5.41,0c.46,5.06.93,10.12,1.38,15.19.58,6.57,1.12,13.15,1.72,19.73.05.57-.56,1.71.91,1.47.31,0,.68.07.3.42-1.56,1.46-.81,3.29-.7,4.92.26,4.1.77,8.18,1.17,12.27l0,.22c-.56,3.39.38,6.86-.62,10.23-.18.62.44,1.07.86,1.5A14.31,14.31,0,0,0,73,134.38c1.54.93,1.83,3.14,3.81,3.53a1.31,1.31,0,0,1,.87,1.76,7.73,7.73,0,0,0,2.46,5.09c1.05.19,1.88.45,1.16,1.83-.32.63.17,1.27.36,1.9,1.94,6.72,3.75,13.53,3.25,20.56-.53,7.36-.89,14.7-.88,22.07,0,9.49,0,19,0,28.46,0,10.52,0,21,0,31.56,0,8.28-.18,16.56-.27,24.84a8.13,8.13,0,0,1-.38,2.87c-1,1.51-.61,3.31-1,4.95-2.7,10-7.69,18.41-16.17,24.72-6.63,4.92-13.8,7.7-22.09,7.61-10.44-.12-18.87-4.88-26.54-11.39a52,52,0,0,1-8-9.22c.79,5.32-1.28,9.78-1,14.61-4.71-2.46-4.46-6.69-4.56-10.8-1,1.74-.14,3.77-1.33,5.35-.19-3.93-.2-7.84-.18-11.74C2.33,292.06,2.17,291.79,1.47,292.54Zm5.8-6.68-.16-.57-.2.17.38.38,0,1A.61.61,0,0,0,7.27,285.86Zm30.21-6,.25.25-.68,1.31c.76.38,1.46-.05,2.2,0,3.21.31,6.45.38,9.67.37.63,0,1.88.25,2-.85a1.76,1.76,0,0,0-2-2c-2.53.36-5-.36-7.49-.13-1.37.13-2.77,0-4.13.17-.35,0-1.22.26-.82,1C36.73,280.41,37.13,279.81,37.48,279.86Zm-1.18-51.4-.09-.07c-2.25-1-2,1.4-3.24,2.06,1.64.15,3.06.32,4.49.4s2.85,0,4.27.06,3.12,0,4.67.1c1.22.11,2.62.9,2.48-1.38a.71.71,0,0,1,.89-.75c.22.15.41.47.73.17,0,0,0-.14,0-.21l-.78.07c0-.58-.13-.94-.89-.95-2.12,0-4.32-.53-6.35-.13S38.29,227.63,36.3,228.46ZM12.72,211.68a62.32,62.32,0,0,1,7.17-9.7,32.94,32.94,0,0,1,20-10.73c17.42-2.42,31.11,9.25,36.3,23.22.07,1-.77,1.71-.62,2.93.33,2.74-.3,5.61.17,8.3.36,2.11-.65,4-.15,6.07.67,2.77.23,5.66,0,8.44s1.33,5.42.1,8.12c1.69.95-1.13,3,.92,3.88a1,1,0,0,1-.17.61c-1.61,1.61-.3,2.82.53,4.1l0,0c-.27.4,0,1-.15,1.26-.83,1.27-.88,1.24-.21,2.72.41.91.76,1.75-.5,2.42-.72.39-.84.88-.39,1.94,1.13,2.64,2.42,5.42.44,8.34-.6.89.6,2.32-.73,3.12.65.9,0,2.08.44,2.88,1.08,2,1.41,2.59.58,4.05s-.31,1.92,1.14,1.93c.09.35.07.64-.35.75-.52-.06-1.09-.07-1.31.49s.3.72.68.92a5.13,5.13,0,0,1-.21,1.31C69.86,304,54,314.35,36.5,309.88c-10.49-2.67-18.11-9.2-23.78-18.22.76-.3.78-1,.89-1.66.59-3.72-1.2-7.35-.28-11.12.36-1.5-.26-3.22-.18-4.82.23-4.47.57-8.93.44-13.41,0-.68,0-1.38.79-1.7,1.85,0,2.91-.39,2.43-2.72-.31-1.54-1.59-.8-2.17-1.47-.37-.62.18-2-.46-1.91-1.95.43-1.12-.94-1.13-1.54-.05-3.69,0-7.38,0-11.07,0-2,1.09-4.07-.38-6,1.61-2.78.78-5.84.87-8.76.08-2.49.5-5-.43-7.54-.24-.66.68-1.64.49-2.58s-.4-1.62-.73-2.94c-3.2,7.36-5.53,14.36-5.58,21.93,0,8.51,0,17-.08,25.53a65.1,65.1,0,0,1,0,6.84,38.6,38.6,0,0,0-.12,7.44,50.34,50.34,0,0,0,2.84,12.17c-.7.58-.29,1.23-.11,1.86a34.27,34.27,0,0,0,4.86,9.89,42.24,42.24,0,0,0,9,9,31.53,31.53,0,0,0,12.83,5.45c.4.09,1.16,0,1,.52-.41,1.93,1.2,1.85,2.16,2.14a20.63,20.63,0,0,0,8.71.29c1.79-.24,3.69-.35,5.27-1.4-.25-1.13-1.35-.45-1.83-1,.36-.7,1.09-.39,1.6-.65,2.69-1.37,6.35-1.28,7.53-5a.47.47,0,0,1,.75-.17c1.33,1,1.36,1,2.64.07a47.48,47.48,0,0,0,8.41-8.35c1.15-1.42,2.94-2.88,3-4.85,0-2.65,1.55-4.67,2.25-7,1.83-6.07,3.26-12.16,2.16-18.57l-.11-.17.1-.17a1.06,1.06,0,0,0,0-1.51l-.1-.16.11-.16a3.86,3.86,0,0,0,0-3.24c-.56-2.16-.08-4.36-.14-6.53-.28-9.88.28-19.78-.34-29.66a1.43,1.43,0,0,0,.41-1.45c-.45-3.74-1.51-7.37-1.89-11.14-.23-2.33-1.59-4.43-2.69-6.55-2.06-3.95-5-7.19-7.87-10.52s-7.42-4-10.52-6.84c-.1-.1-.28-.1-.42-.16-10.75-4.59-25.57-3.3-36.88,7.84a24.43,24.43,0,0,0-7.07,13.5l-.15.08ZM48,199.14c0-1.35-.08-2.71,0-4.06s-.49-1.86-1.73-1.48a10.4,10.4,0,0,1-5.34.08c-2.21-.48-2.65.24-2.26,2.59a32.83,32.83,0,0,1,.37,7c-.16,2.76,1.66,5.72,4.16,6.13,1.7.28,3.77-1.82,4.4-4.42A26,26,0,0,0,48,199.14Zm20.34,48,.47-.09c1,1.94,1.89,3.89,2.91,5.79.27.52.33,1.48,1.32,1.21s1-.94,1-1.76q-.06-5.41,0-10.83c0-.94,0-1.58-1.25-1.6-1.37,0-1.07.88-1.15,1.67-.17,1.77.45,3.6-.39,5.74-1.11-2.41-2.07-4.44-3-6.49a1.5,1.5,0,0,0-1.78-1c-1,.17-.71,1-.71,1.61,0,3.61,0,7.22,0,10.83,0,1,.18,1.52,1.35,1.53s1.28-.69,1.27-1.59C68.34,250.49,68.36,248.81,68.36,247.14Zm-37.47-1.25a22.85,22.85,0,0,0-.31-2.57c-.53-2.48-1.89-3.66-4.11-3.72s-3.6,1.07-4.26,3.55a14.35,14.35,0,0,0,0,7.13,3.75,3.75,0,0,0,3.62,3.13A4,4,0,0,0,30,251,12.08,12.08,0,0,0,30.89,245.89ZM5.8,211.77c1.11-.36,2.34-.23,2.68-1.23.73-2.18,2.09-4.2,2-6.62-.17-4.84-.26-9.69-.6-14.52-.13-1.86.22-3.66.15-5.49,0-.81-.37-1.35-1.12-1.43-1-.11-.68.8-.7,1.28-.14,3.5-.15,7-.47,10.5-.29,3.17-1.24,6.25-1.07,9.52C6.81,206.34,6.14,208.94,5.8,211.77Zm38.76,27.87v.17a3.08,3.08,0,0,1-.61,0,3.35,3.35,0,0,0-4,2.13,3.87,3.87,0,0,0,1,4.54c.63.64,1.38,1.17,2,1.82s1.59,1.11,1,2.24-1.51.76-2.38.9c-.63.11-1.69-1.06-1.87.57s.92,1.46,1.89,1.57a8.08,8.08,0,0,0,2,.14c1.91-.29,3.75-.83,4.41-2.94s-.24-3.8-1.89-5.14a19.8,19.8,0,0,1-1.7-1.46c-.47-.48-1-1.06-.47-1.76s1-1.33,2-.65c.74.52,1.24.32,1.47-.58s-.16-1.45-1.09-1.53C45.75,239.6,45.15,239.64,44.56,239.64Zm13.5,7.05v2c0,5,0,5,4.91,4.94.75,0,2.09.62,2-1-.12-1.42-1.35-1-2.1-.78-1.18.35-2.17.07-2-1.09s-1.45-3.25,1.28-3.47c.7-.06,1.18-.22,1.14-1s-.55-.83-1.1-.79c-2,.13-1.29-1.36-1.41-2.34-.17-1.3.6-1.52,1.65-1.45.53,0,1,0,1.58,0,.77,0,1.07-.39,1-1.13s-.48-.85-1.07-.84c-1.43,0-2.86.05-4.29,0-1.16-.06-1.62.35-1.57,1.55C58.12,243.08,58.06,244.89,58.06,246.69Zm-6.39,1.11c0,1.43,0,2.86,0,4.29,0,1.08.2,1.66,1.48,1.64s1.56-.45,1.53-1.6c-.06-2.85,0-5.71,0-8.57,0-1.11.08-2,1.52-1.8.73.08,1.1-.27,1.12-1s-.5-1-1.16-1c-2,0-4.07,0-6.1-.06-.71,0-1.15.19-1.14,1s0,1.48,1,1.34c1.9-.28,1.84.89,1.79,2.18S51.66,246.6,51.67,247.8ZM51,270.4c-.58-1.36.39-3.59-1.88-3.13-1.55.31-2.94-.27-4.46-.12-2.65.26-3.26.49-3.11,3.35.11,2.18,1.51,2,3.05,1.46.3-.1.7.16,1,.21,1.61.25,3.12.22,3.81-1.76.79,1.53,2.17,1.92,4.22,1.33-.38-.5-2.55-.71-.3-1.65a.34.34,0,0,0,0-.66c-2.45-.83.41-1.28.19-1.94C51.59,267.26,51.59,267.26,51,270.4Zm-19.23-24v1.8c0,5.68,0,5.68,5.77,5.26.22,0,.45,0,.67,0,.66-.13.74-.64.72-1.2s-.19-.89-.75-.93a5,5,0,0,0-1.34,0c-1.86.41-2.34-.4-2.26-2.15.12-2.61,0-5.24,0-7.87,0-1,0-1.75-1.38-1.71-1.23,0-1.52.54-1.48,1.65C31.81,243,31.76,244.69,31.76,246.41Zm-10.94.11h0c0-1.87,0-3.74,0-5.62,0-.79-.2-1.28-1.13-1.24s-1.5.07-1.45,1.18,0,2.1,0,3.14c0,.76.1,1.52-1,1.69-1.8.28-1,1.36-.22,1.58,1.3.36,1.14,1.14,1.13,2s.05,1.95,0,2.92c-.06,1.15.72,1.09,1.48,1.15s1.18-.38,1.16-1.21C20.8,250.26,20.82,248.39,20.82,246.52Zm2.23,20.94c-2-1-3.75,1.1-5.65-.3a5.85,5.85,0,0,1,0,1.4c-.62,2.27,1.19,3.21,2.49,2.82,2.17-.66,4,.7,5.95.3.09,0,.15-.18.58-.73-1.84.63-1.52-.95-2.06-1.53-.84.27-.25,1.83-1.21,1.3C21.59,269.87,22.08,268.53,23.05,267.46ZM8.17,177.86h0c0,1-.06,1.95,0,2.92,0,.58.62.8,1.14.91s.51-.23.51-.54c0-2.73.42-5.45.14-8.19-.08-.81-.26-1.62-1.24-1.46s-1,.89-.89,1.75C8.06,174.78,8.08,176.32,8.17,177.86ZM49.28,257.1c-.06,1.22-.26,2.33,1.45,2.13,1-.11,2,0,1.88-1.49s-.27-2.63-2.11-2.67S49.5,256.45,49.28,257.1ZM28.34,259c1.38.05,2.91.72,3-1.36,0-1.13-.21-2.34-1.47-2.36C26.55,255.24,29.8,258.11,28.34,259Zm8.48,11.47c-.44.66-.78.35-1.1.37-1.22.07-.83.69-.2,1s1.58.47,1.83-.14c.35-.84.81-2.05-.63-2.58-.41-.15-1-.14-.79-.77.16-.48.58-.27.91-.06s.69.34.83-.22a.75.75,0,0,0-.49-.89,1.89,1.89,0,0,0-1.73-.06c-.54.31-.41.89-.49,1.4C34.73,269.94,36.15,269.81,36.82,270.47Zm33.33-12.83c.32.57-.73,1.81,1.18,1.87,2.24.07,1.35-1.57,1.6-2.44.31-1.05-.53-1.56-1.54-1.59C69.83,255.43,70.19,256.61,70.15,257.64Zm-10,9.39c-1.06,1.7,0,3.23-1.23,4.37-.93-1.24.05-2.82-1.12-4.41v3.78c0,.78.32,1.36,1.16,1.35s1.22-.66,1.2-1.52S60.14,268.66,60.14,267Zm1.57,4.21c-.14,0-.45-.8-.55.1,0,.37,0,.76.56.78s1.33.32,1.63-.35c.56-1.27-.34-2.57-.06-3.91.1-.5-.8-.48-1.32-.46a.74.74,0,0,0-.79.87c0,.68-.35,1.55.79,1.8.49.11,1.12.31.77,1.05C62.54,271.54,62.15,271.49,61.71,271.24Zm-2.4-15.46c.41-1.12-.15-1.09-1-.9s-1.27.86-1.33,1.78a4.43,4.43,0,0,0,1,3.27c.41.48,1.25-.25,1-.6C58.17,258,59.35,257,59.31,255.78Zm5.27,2.87c0,.46-.55,1.07.22,1.33s.9-.47,1.11-1a5.08,5.08,0,0,0,.33-2.83,1.26,1.26,0,0,0-1.45-1.1c-1.05.09-.71,1-.67,1.58S65.14,257.8,64.58,258.65Zm-42.46-3.52c-.74.24-1.31.65-.93,1.6s-.64,2.52,1.42,2.35c1.29-.1,1.32-1.09,1.33-2A1.83,1.83,0,0,0,22.12,255.13Zm6.94,16.51c0-.78-2.66-.83-.31-1.84.36-.15.36-.45,0-.6-2.71-1,.42-1.3.29-2.05-1.21-.24-2.41-.46-2.09,1.4C27.15,269.83,25.9,272.24,29.06,271.64ZM44.9,215.43c1.3.19,0-1.55,1-1.74L44.45,212l-1.64,1.71C43.82,213.84,42.37,216.7,44.9,215.43Zm-9.21,40.12c.61.46,1.47.7,1.38,1.71-.06.57-.62,1.79.62,1.73s1-1,.56-1.8c-.14-.29.11-.57.42-.68.51-.16.77-.47.53-1s-.72-.48-1.16-.43C37.33,255.15,36.56,254.83,35.69,255.55ZM34,271.64c.22-1.52.65-3.07-.23-5A6.56,6.56,0,0,0,34,271.64ZM56.4,228.16c-1.38.27-1.88,1.37-2.85,2.43C55.43,230.48,55.45,228.78,56.4,228.16Zm-24.1,67.4c-.78,0-1.76-.59-1.93.71,0,.32.15,1,.27,1C31.7,297.32,31.94,296.4,32.3,295.56ZM72,212.67a2.86,2.86,0,0,0-.76,2.57c0,.13.42.32.51.27,1-.59.54-1.57.61-2.4C72.35,213,72.18,212.91,72,212.67Zm-18.1,15.51a6.72,6.72,0,0,0-2.75,2.49C53,230.58,53.13,229,53.88,228.18Zm16.25,58.93c.58-1.14,1.42-2.3,0-3.66ZM59.76,282a1,1,0,0,0,.75-.8c.08-.46-.12-.69-.56-.71s-.94.06-1.06.55S59.19,281.75,59.76,282Zm-53.51.72-.11-.18L6,282.6l.19.26Zm.41,1.51c0-.07,0-.15,0-.2s-.19-.15-.24,0a.27.27,0,0,0,.07.18S6.61,284.19,6.66,284.18Z"/>
    <path class="cls-3" d="M65.61,66.06,60.2,66c0-.3-.13-.39-.38-.16l.37.18c.5,4.75,1.32,9.5,1.39,14.26.06,4.45.5,8.88.72,13.3.19,3.94.44,8,1,12,.44,3.11-.11,6.39-.38,9.58-.14,1.64.16,3.4-1.47,4.76a1.7,1.7,0,0,0,.34,2.89c.06,0,.17.08.17.12,0,2.63,2.67,4.09,2.9,6.64a4.39,4.39,0,0,1,.12,1.28c-.38,2.33-.34,2.34,2,3.24a12.8,12.8,0,0,1-.39-4.81c.93.25,1,1.12,1.3,1.7,3.14,5.28,5.23,11.09,8.17,16.43,1.76,3.19,2.22,6.61,3.54,9.82.47,1.15.11,1.87-1.32,1.54,0,.73,1.88,0,.83,1.3-.35.43,0,.9.22.89,2.24-.12,1.29,1.56,1.63,2.62,1.69,5.32.31,10.58,0,15.87-.43,6.55-.43,13.1-.56,19.66a80.72,80.72,0,0,1-.85,10.65c-1.4-2.12-2.92-4.17-4.18-6.37-4.09-7.16-9.69-12.58-17.39-15.76A17.36,17.36,0,0,0,50.84,186c-2.09,0-.75,1-.53,1.69-3.15.27-6.27-1.13-9.42,0-.85.31-.84-1.38-2-1.33,2.83-1.28,5.81-.66,8.65-1-14.75-1.8-25.32,5.4-34.32,16.45a97.71,97.71,0,0,1-.58-17.14,79.71,79.71,0,0,0-2.83-26.54c-.49-1.66-1.3-3.26-1.75-5.05-2.94,2.82-3,6.63-3.59,10.22-1,6.19,0,12.42-.2,18.64a2.37,2.37,0,0,1-.14.57l-.51-.62c0-.93-.07-1.86-.11-2.79,0-.05.13-.11.12-.15a2.63,2.63,0,0,0-.15-.35c-.27-6.32-.57-12.62.2-19,1-8.3,4.08-15.8,8.16-23A62.68,62.68,0,0,0,20,109.81c.33-4.48,1.2-8.92,1.4-13.42.24-.07.4-.19.29-.48l.53-.61a213.45,213.45,0,0,1-2,23.34,7.18,7.18,0,0,1,1.39-3.06,7.3,7.3,0,0,0,1.32-3.71,79.31,79.31,0,0,1,.69-9.26c.62-5.65,1.31-11.29,1.75-17,.21-2.82,1.89-5.42,1.39-8.22-.57-3.12.09-6.09.34-9.12A5.77,5.77,0,0,0,27,65.46c-.83-.18-1.26.92-2.1.57l0-.85c.05-.05.13-.1.13-.14a2.33,2.33,0,0,0-.08-.36l.35-1.36a5.57,5.57,0,0,1,.73-.5c1.45-.66,3-1.87,4.45-.45.48.47.57.69.94.24,2.64-3.14,6.21-1.08,9.31-1.6,1.1-.18,2.51-.53,3.66.29.69-2.61,2.47-.11,3.64-.72a1.36,1.36,0,0,1,1.35.86c.13.55-.76.17-.85.66,1.3.72,2.24.53,2.69-1-.71-.33-1.9-.28-1.82-1.33a5.21,5.21,0,0,1,1.1-2.87,6.12,6.12,0,0,1,5.76-1.43c-.52.69-.31,1.24.19,2a7.5,7.5,0,0,0,2.06,2.48c-1.14,1,1.58,1.31.43,2.31,1.3.36,2.64.72,3.9,1.08,1.94.55,2.13.05,2.67,1.81a2.14,2.14,0,0,0,.08.44l0,.45Zm7.56,84.4c.54-2.37-.39-4.21-1.38-6a.93.93,0,0,0-1.12-.53c-.39.11-.28.43-.19.72C71.05,146.61,71,148.91,73.17,150.46Zm-35-67.52a1.59,1.59,0,0,0-1.51-.7c-.63.05-1.2.46-1,1.16s.74.6,1.29.57A1.23,1.23,0,0,0,38.19,82.94Zm20.93-17.2-.63-.18c0,.09-.06.25,0,.27a.77.77,0,0,0,.39.09C58.93,65.92,59,65.82,59.12,65.74Z"/>
    <path class="cls-3" d="M1.47,292.54c.7-.75.86-.48.85.4,0,3.9,0,7.81.18,11.74,1.19-1.58.35-3.61,1.33-5.35.1,4.11-.15,8.34,4.56,10.8-.24-4.83,1.83-9.29,1-14.61a52,52,0,0,0,8,9.22C25.12,311.25,33.55,316,44,316.13c8.29.09,15.46-2.69,22.09-7.61,8.48-6.31,13.47-14.71,16.17-24.72.44-1.64.1-3.44,1-4.95-.46,11.22-.22,22.41,0,33.61a36,36,0,0,1-3.25,16.44c-.86.39-1.7.86-2.58,1.18-2.16.78-2.3,1.13-1,3-3.25,1.59-6,4.22-9.77,4.73-9.64,1.29-19.27,2.32-29,2a147.93,147.93,0,0,1-21.29-2.22c-8.69-1.52-12.95-6.85-14.84-14.86-.86-3.64-.87-7.38-1.38-11.06a4.44,4.44,0,0,1,.7-2.76c.32-.12.36-.28.06-.48l-.06-.88a1.87,1.87,0,0,0,.06-1.69c0-.4,0-.8.05-1.2A6.15,6.15,0,0,0,1,301.85a4,4,0,0,0-.84-3.63.89.89,0,0,1-.06-.15c-.28.58,0,.95.45,1,.64.09.62-.55.64-.94C1.32,296.27,1.39,294.41,1.47,292.54Zm20.79,40.57c.79,2,1.89,2.31,3.83,1.44A9.5,9.5,0,0,1,22.26,333.11ZM60.14,335c-1.71-1.53-1.93-1.51-3.34.15Z"/>
    <path class="cls-2" d="M65.57,65.14c-.54-1.76-.73-1.26-2.67-1.81-1.26-.36-2.6-.72-3.9-1.08,1.15-1-1.57-1.31-.43-2.31a7.5,7.5,0,0,1-2.06-2.48c-.5-.73-.71-1.28-.19-2a6.12,6.12,0,0,0-5.76,1.43,5.21,5.21,0,0,0-1.1,2.87c-.08,1.05,1.11,1,1.82,1.33-.45,1.51-1.39,1.7-2.69,1,.09-.49,1-.11.85-.66a1.36,1.36,0,0,0-1.35-.86c-1.17.61-3-1.89-3.64.72-1.15-.82-2.56-.47-3.66-.29-3.1.52-6.67-1.54-9.31,1.6-.37.45-.46.23-.94-.24-1.44-1.42-3-.21-4.45.45a5.57,5.57,0,0,0-.73.5,41.83,41.83,0,0,1,.54-8.21c.87-.22,2,0,2.07-1.44.14-2.92.38-5.84.58-8.75a12.45,12.45,0,0,1-1.27,2.66c.27-4.58.51-9,.8-13.51a9.06,9.06,0,0,1,.43-2.18c.11-.35-.69-1.7.79-.9-.41-1.19.95-2.81-.91-3.64a6.34,6.34,0,0,1,.52-3.88c0,1.81.43,2.38,2.13,1.14A1.88,1.88,0,0,0,32,22.84c0-.92.18-2,1.58-2,.79,0,2.1-.11,1.71-1.1-.32-.82-.39-3-2.49-2-.18.08-.95.79-.89-.2.11-1.71-1.46-2-2.28-2.94l-.27-2.3c1,1.19,2,1.94,2.72-.22,0-.15.36-.22.55-.32.39.65-.52,1.94.7,2.06s1.8-.93,1.92-2.07a3.61,3.61,0,0,1,.49-1.71c.52-.8,1.36-.43,2.05-.52,5.49-.68,10.82.41,16.16,1.41,2.92.54,6,.74,8.18,3.09a2,2,0,0,1,.81,2.06c-1.46,1.75-3.28.26-4.9.54l2.5-1.18A3.39,3.39,0,0,1,58.42,13c-.62.49-.38,1.26-1.15,1.6-1.26.57-.62,1.37.12,2-1.56.46-2.46-.4-3.17-1.61-.27-.46-.52-.89-1.15-1a61,61,0,0,0-16-.15c-.5.07-1.61.08-1.11.84s-.85,2.15,1,2.13c.89,0,1.79.38,2.65.28,5.19-.61,10.36.59,15.54.09.74-.08,1.64-.1,1.93.77a2.63,2.63,0,0,0,3,1.95c.47,0,1,.61,1.46.94C63,25.22,63,29.77,63.22,34.22c.61,9.73,1.23,19.45,2.39,29.13A11.92,11.92,0,0,1,65.57,65.14Zm-6.24-21.5c0,4.09-.15,7.45.4,10.81.2,1.17.65,1.56,1.71,1.57,1.26,0,1-.93.93-1.59a44.54,44.54,0,0,1,0-7.12,29.87,29.87,0,0,0-.33-6c-.77-4-2.39-8-1.1-12.27.18-.6-.34-1.28-.9-1.73s-1-.74-1.64-.4-.11.92-.12,1.4C58.25,33.66,60.07,38.93,59.33,43.64Zm-2.75-21c-1.62,1.19-3.35.91-4.94,1-5.56.36-11.24,1.34-16.4-1.9-.3-.19-.57-.55-.93-.09s-.17.83.25,1.12A8.26,8.26,0,0,0,37.7,24c5.78,1.24,11.62.62,17.45.4C55.88,24.37,56.68,24.17,56.58,22.68ZM46.19,20.12c-1.21-1.27-5-2.23-6.22-1.72a.69.69,0,0,0-.5.85c.06.25.39.68.45.66C42,19.08,43.94,20.93,46.19,20.12ZM36.4,59.92c1.15,1,3.39.65,3.67-.5a1.64,1.64,0,0,0,0-1c-.15-.28-.69-.21-.74,0C38.92,60.05,37.37,59.4,36.4,59.92Z"/>
    <path class="cls-3" d="M62.12,14c-2.23-2.35-5.26-2.55-8.18-3.09-5.34-1-10.67-2.09-16.16-1.41-.69.09-1.53-.28-2.05.51-1.47-.19-2.81-.17-3.11,1.73-.19.1-.5.17-.55.32-.75,2.16-1.72,1.41-2.72.22A2.06,2.06,0,0,1,27.89,10c.54-5.19,2.47-8.15,7.84-9.09a52.86,52.86,0,0,1,21.19.44c5.24,1.19,7,4.32,7.65,9.51C64.79,12.78,62.84,12.89,62.12,14Z"/>
    <path class="cls-2" d="M24.94,66c.84.35,1.27-.75,2.1-.57a5.77,5.77,0,0,1,.05,2.86c-.25,3-.91,6-.34,9.12.5,2.8-1.18,5.4-1.39,8.22-.44,5.66-1.13,11.3-1.75,17a79.31,79.31,0,0,0-.69,9.26,7.3,7.3,0,0,1-1.32,3.71,7.18,7.18,0,0,0-1.39,3.06,213.45,213.45,0,0,0,2-23.34c-1-3.09.17-6.09.46-9.1C23.33,79.46,24.18,72.75,24.94,66Z"/>
    <path class="cls-3" d="M61.57,20.89c-.48-.33-1-1-1.46-.94a2.63,2.63,0,0,1-3-1.95c-.29-.87-1.19-.85-1.93-.77-5.18.5-10.35-.7-15.54-.09-.86.1-1.76-.3-2.65-.28-1.84,0-.54-1.44-1-2.13s.61-.77,1.11-.84a61,61,0,0,1,16,.15c.63.08.88.51,1.15,1,.71,1.21,1.61,2.07,3.18,1.61H58c1.62-.28,3.44,1.21,4.9-.54C64.05,18.14,63.28,19.65,61.57,20.89Z"/>
    <path class="cls-3" d="M28.39,27.35c1.86.83.5,2.45.91,3.64-1.48-.8-.68.55-.79.9a9.06,9.06,0,0,0-.43,2.18c-.29,4.47-.53,8.93-.8,13.51a12.45,12.45,0,0,0,1.27-2.66c-.2,2.91-.44,5.83-.58,8.75-.08,1.47-1.2,1.22-2.07,1.44.51-6.11,1-12.22,1.53-18.33C27.71,33.63,28.07,30.49,28.39,27.35Z"/>
    <path class="cls-3" d="M76.77,137.91c-2-.39-2.27-2.6-3.81-3.53A14.31,14.31,0,0,1,70.6,132c-.42-.43-1-.88-.86-1.5,1-3.37.06-6.84.62-10.23l0-.22A80.16,80.16,0,0,0,76.77,137.91Z"/>
    <path class="cls-3" d="M29.62,14.61c.82.93,2.39,1.23,2.28,2.94-.06,1,.71.28.89.2,2.1-1,2.17,1.15,2.49,2,.39,1-.92,1.08-1.71,1.1-1.4,0-1.56,1.1-1.58,2A1.88,1.88,0,0,1,31,24.61c-1.7,1.24-2.17.67-2.13-1.14.44-1.95,1.08-3.83-.2-5.84C28.12,16.71,28.89,15.5,29.62,14.61Z"/>
    <path class="cls-2" d="M76.43,333.07c-1.26-1.86-1.12-2.21,1-3,.88-.32,1.72-.79,2.58-1.18a11.85,11.85,0,0,1-1.91,3.53C77.74,333,77.3,333.67,76.43,333.07Z"/>
    <path class="cls-3" d="M80.1,144.76a7.73,7.73,0,0,1-2.46-5.09A23.2,23.2,0,0,1,80.1,144.76Z"/>
    <path class="cls-3" d="M3.72,183.62a3.26,3.26,0,0,1,.57.28c-.62,2.63.35,5.37-.59,8,0-.68,0-1.36,0-2V188l.09-.11-.08-.11Z"/>
    <path class="cls-3" d="M3.7,192.08a11.25,11.25,0,0,1-.14,6.77V197.7a1.83,1.83,0,0,0,.06-1.77Z"/>
    <path class="cls-2" d="M1,301.85a6.15,6.15,0,0,1-.09,2.83A2.68,2.68,0,0,1,1,301.85Z"/>
    <path class="cls-2" d="M.87,305.88a1.87,1.87,0,0,1-.06,1.69A1.35,1.35,0,0,1,.87,305.88Z"/>
    <path class="cls-2" d="M3.62,195.93a1.83,1.83,0,0,1-.06,1.77A1.3,1.3,0,0,1,3.62,195.93Z"/>
    <path class="cls-2" d="M3.69,189.19v.64C3.38,189.61,3.38,189.4,3.69,189.19Z"/>
    <path class="cls-2" d="M3.53,178.58a2.63,2.63,0,0,1,.15.35s-.08.1-.12.15a2.31,2.31,0,0,1-.18-.35S3.48,178.63,3.53,178.58Z"/>
    <path class="cls-2" d="M65.62,66l0-.45c0,.11.09.23.12.34S65.67,66,65.62,66Z"/>
    <path class="cls-2" d="M3.7,187.82l.08.11-.09.11c0-.06-.09-.12-.13-.19Z"/>
    <path class="cls-2" d="M25,64.68a2.33,2.33,0,0,1,.08.36s-.08.09-.13.14Z"/>
    <path class="cls-2" d="M21.69,95.91c.11.29-.05.41-.29.48Z"/>
    <path class="cls-2" d="M.87,308.45c.3.2.26.36-.06.48Z"/>
    <path class="cls-1" d="M9.93,286.36a50.34,50.34,0,0,1-2.84-12.17,38.6,38.6,0,0,1,.12-7.44,65.1,65.1,0,0,0,0-6.84c.12-8.51,0-17,.08-25.53.05-7.57,2.38-14.57,5.58-21.93.33,1.32.55,2.13.73,2.94s-.73,1.92-.49,2.58c.93,2.5.51,5.05.43,7.54-.09,2.92.74,6-.87,8.76,1.47,1.9.34,4,.38,6,.07,3.69,0,7.38,0,11.07,0,.6-.82,2,1.13,1.54.64-.14.09,1.29.46,1.91l0,0c-.42-.08-.59.12-.54.53l0,.1c-1.31.51-1.22-.7-1.54-1.41a1.41,1.41,0,0,0-.3,2c.64.94,1.31-.14,2,0l.11.6c-.69.52-2,1-.24,1.82l.35.54c-.81.32-.81,1-.79,1.7.13,4.48-.21,8.94-.44,13.41-.08,1.6.54,3.32.18,4.82-.92,3.77.87,7.4.28,11.12-.11.7-.13,1.36-.89,1.66Z"/>
    <path class="cls-1" d="M79.68,227c.62,9.88.06,19.78.34,29.66.06,2.17-.42,4.37.14,6.54l0,3.23-.11.16.1.16v1.51l-.1.17.11.17c-.37,5.73-.42,11.5-2.59,16.94-1.45,0-2-.38-1.14-1.93s.5-2-.58-4.05c-.42-.8.21-2-.44-2.88,1.33-.8.13-2.23.73-3.12,2-2.92.69-5.7-.44-8.34-.45-1.06-.33-1.55.39-1.94,1.26-.67.91-1.51.5-2.42-.67-1.48-.62-1.45.21-2.72.17-.27-.12-.86.15-1.27a.7.7,0,0,0,.44-.89c0-.07-.2-.1-.3-.15L77,256.92c-.83-1.28-2.14-2.49-.53-4.1a1,1,0,0,0,.17-.61c-2-.88.77-2.93-.92-3.88,1.23-2.7-.35-5.37-.1-8.12s.7-5.67,0-8.44c-.5-2.08.51-4,.15-6.07-.47-2.69.16-5.56-.17-8.3-.15-1.22.69-1.92.62-2.93A54.14,54.14,0,0,1,79.68,227Z"/>
    <path class="cls-3" d="M77.54,285.56c2.17-5.44,2.22-11.21,2.59-16.94,1.1,6.41-.33,12.5-2.16,18.57-.7,2.35-2.23,4.37-2.25,7,0,2-1.8,3.43-3,4.85a47.48,47.48,0,0,1-8.41,8.35c-1.28.94-1.31.9-2.64-.07a.47.47,0,0,0-.75.17c-1.18,3.68-4.84,3.59-7.53,5-.51.26-1.24-.05-1.6.65.48.57,1.58-.11,1.83,1-1.58,1.05-3.48,1.16-5.27,1.4a20.63,20.63,0,0,1-8.71-.29c-1-.29-2.57-.21-2.16-2.14.12-.57-.64-.43-1-.52a31.53,31.53,0,0,1-12.83-5.45,42.24,42.24,0,0,1-9-9,34.27,34.27,0,0,1-4.86-9.89c-.18-.63-.59-1.28.11-1.86l2.79,5.3c5.67,9,13.29,15.55,23.78,18.22C54,314.35,69.86,304,76.35,289a5.13,5.13,0,0,0,.21-1.31,1.79,1.79,0,0,0,.63-1.41C77.61,286.2,77.63,285.91,77.54,285.56Z"/>
    <path class="cls-3" d="M79.68,227a54.14,54.14,0,0,0-3.48-12.55c-5.19-14-18.88-25.64-36.3-23.22a32.94,32.94,0,0,0-20,10.73,62.32,62.32,0,0,0-7.17,9.7l0,0a24.43,24.43,0,0,1,7.07-13.5C31.13,187.06,46,185.77,56.7,190.36c.14.06.32.06.42.16,3.1,2.89,7.6,3.5,10.52,6.84s5.81,6.57,7.87,10.52c1.1,2.12,2.46,4.22,2.69,6.55.38,3.77,1.44,7.4,1.89,11.14A1.43,1.43,0,0,1,79.68,227Z"/>
    <path class="cls-3" d="M48,199.14a26,26,0,0,1-.38,5.84c-.63,2.6-2.7,4.7-4.4,4.42-2.5-.41-4.32-3.37-4.16-6.13a32.83,32.83,0,0,0-.37-7c-.39-2.35,0-3.07,2.26-2.59a10.4,10.4,0,0,0,5.34-.08c1.24-.38,1.83.1,1.73,1.48S48,197.79,48,199.14Zm-3.61.36c-.73.4-2.79-.71-2.07,1.17a4.89,4.89,0,0,1,.13,4.19,1,1,0,0,0,.63,1.28.75.75,0,0,0,1-.66c.28-2,1.7-3.94.27-6,.2-1.07.18-1.18-1.25-1.6-.35-.11-1-.93-1.24,0-.19.65.28.8,1,.72A1.35,1.35,0,0,1,44.41,199.5Z"/>
    <path class="cls-3" d="M68.36,247.14c0,1.67,0,3.35,0,5,0,.9,0,1.61-1.27,1.59s-1.35-.56-1.35-1.53c0-3.61,0-7.22,0-10.83,0-.6-.32-1.44.71-1.61a1.5,1.5,0,0,1,1.78,1c.91,2.05,1.87,4.08,3,6.49.84-2.14.22-4,.39-5.74.08-.79-.22-1.71,1.15-1.67,1.2,0,1.26.66,1.25,1.6q-.06,5.41,0,10.83c0,.82-.08,1.52-1,1.76s-1-.69-1.32-1.21c-1-1.9-1.95-3.85-2.91-5.79Z"/>
    <path class="cls-3" d="M30.89,245.89A12.08,12.08,0,0,1,30,251a4,4,0,0,1-4.21,2.37,3.75,3.75,0,0,1-3.62-3.13,14.35,14.35,0,0,1,0-7.13c.66-2.48,2-3.6,4.26-3.55s3.58,1.24,4.11,3.72A22.85,22.85,0,0,1,30.89,245.89Zm-2.77.11a9.79,9.79,0,0,0-.56-3.07c-.2-.62-.48-1.35-1.33-1.31-.69,0-1,.61-1.21,1.17a12.09,12.09,0,0,0,.09,7.5,1.37,1.37,0,0,0,1.28,1.1c.69,0,1-.61,1.2-1.18A12.18,12.18,0,0,0,28.12,246Z"/>
    <path class="cls-1" d="M5.8,211.77c.34-2.83,1-5.43.87-8-.17-3.27.78-6.35,1.07-9.52.32-3.5.33-7,.47-10.5,0-.48-.35-1.39.7-1.28.75.08,1.1.62,1.12,1.43.07,1.83-.28,3.63-.15,5.49.34,4.83.43,9.68.6,14.52.09,2.42-1.27,4.44-2,6.62C8.14,211.54,6.91,211.41,5.8,211.77Z"/>
    <path class="cls-3" d="M44.56,239.64c.59,0,1.19,0,1.79,0,.93.08,1.33.57,1.09,1.53s-.73,1.1-1.47.58c-1-.68-1.52.05-2,.65s0,1.28.47,1.76a19.8,19.8,0,0,0,1.7,1.46c1.65,1.34,2.56,3,1.89,5.14s-2.5,2.65-4.41,2.94a8.08,8.08,0,0,1-2-.14c-1-.11-2.06-.07-1.89-1.57s1.24-.46,1.87-.57c.87-.14,1.87.1,2.38-.9s-.43-1.62-1-2.24-1.36-1.18-2-1.82a3.87,3.87,0,0,1-1-4.54,3.35,3.35,0,0,1,4-2.13,3.08,3.08,0,0,0,.61,0Z"/>
    <path class="cls-3" d="M58.06,246.69c0-1.8.06-3.61,0-5.41,0-1.2.41-1.61,1.57-1.55,1.43.08,2.86,0,4.29,0,.59,0,1,.13,1.07.84s-.27,1.13-1,1.13c-.53,0-1,0-1.58,0-1.05-.07-1.82.15-1.65,1.45.12,1-.59,2.47,1.41,2.34.55,0,1.07.06,1.1.79s-.44,1-1.14,1c-2.73.22-1.14,2.3-1.28,3.47s.86,1.44,2,1.09c.75-.22,2-.64,2.1.78.13,1.59-1.21,1-2,1-4.91.09-4.91.07-4.91-4.94Z"/>
    <path class="cls-3" d="M51.67,247.8c0-1.2-.05-2.41,0-3.61s.11-2.46-1.79-2.18c-1,.14-1-.6-1-1.34s.43-1,1.14-1c2,0,4.07.05,6.1.06.66,0,1.18.12,1.16,1s-.39,1.13-1.12,1c-1.44-.16-1.53.69-1.52,1.8,0,2.86,0,5.72,0,8.57,0,1.15-.33,1.58-1.53,1.6s-1.52-.56-1.48-1.64C51.71,250.66,51.67,249.23,51.67,247.8Z"/>
    <path class="cls-3" d="M51,270.4c.6-3.14.6-3.14,2.53-2.91.22.66-2.64,1.11-.19,1.94a.34.34,0,0,1,0,.66c-2.25.94-.08,1.15.3,1.65-2.05.59-3.43.2-4.22-1.33-.69,2-2.2,2-3.81,1.76-.35-.05-.75-.31-1-.21-1.54.53-2.94.72-3.05-1.46-.15-2.86.46-3.09,3.11-3.35,1.52-.15,2.91.43,4.46.12C51.38,266.81,50.41,269,51,270.4Z"/>
    <path class="cls-3" d="M49.77,228.88a.71.71,0,0,0-.89.75c.14,2.28-1.26,1.49-2.48,1.38-1.55-.14-3.11-.08-4.67-.1s-2.85,0-4.27-.06-2.85-.25-4.49-.4c1.2-.66,1-3.1,3.24-2.06a1.37,1.37,0,0,0-1.09,1.18c-.09.16-.29.41-.25.47.24.33.43.09.61-.12a1.29,1.29,0,0,0,.82-1.46c2-.83,4.12-.21,6.2-.63s4.23.11,6.35.13c.76,0,.88.37.89.95Z"/>
    <path class="cls-3" d="M31.76,246.41c0-1.72,0-3.45,0-5.17,0-1.11.25-1.62,1.48-1.65s1.39.74,1.38,1.71c0,2.63.09,5.26,0,7.87-.08,1.75.4,2.56,2.26,2.15a5,5,0,0,1,1.34,0c.56,0,.74.43.75.93s-.06,1.07-.72,1.2c-.22,0-.45,0-.67,0-5.78.42-5.78.42-5.77-5.26Z"/>
    <path class="cls-3" d="M37.48,279.86c-.35-.05-.75.55-1,.13-.4-.75.47-1,.82-1,1.36-.14,2.76,0,4.13-.17,2.5-.23,5,.49,7.49.13a1.76,1.76,0,0,1,2,2c-.13,1.1-1.38.84-2,.85-3.22,0-6.46-.06-9.67-.37-.74-.07-1.44.36-2.2,0,.23-.44.45-.88.68-1.31.06-.16.22-.43.18-.45C37.69,279.5,37.57,279.65,37.48,279.86Z"/>
    <path class="cls-3" d="M20.82,246.52c0,1.87,0,3.74,0,5.62,0,.83-.26,1.27-1.16,1.21s-1.54,0-1.48-1.15c.05-1,0-1.95,0-2.92s.17-1.67-1.13-2c-.77-.22-1.58-1.3.22-1.58,1.08-.17,1-.93,1-1.69,0-1,0-2.09,0-3.14s.64-1.14,1.45-1.18,1.14.45,1.13,1.24c0,1.88,0,3.75,0,5.62Z"/>
    <path class="cls-3" d="M23.05,267.46c-1,1.07-1.46,2.41.08,3.26,1,.53.37-1,1.21-1.3.54.58.22,2.16,2.06,1.53-.43.55-.49.71-.58.73-2,.4-3.78-1-5.95-.3-1.3.39-3.11-.55-2.49-2.82a5.85,5.85,0,0,0,0-1.4C19.3,268.56,21,266.41,23.05,267.46Z"/>
    <path class="cls-1" d="M8.17,177.86c-.09-1.54-.11-3.08-.27-4.61-.1-.86,0-1.6.89-1.75S10,172.15,10,173c.28,2.74-.18,5.46-.14,8.19,0,.31-.1.62-.51.54s-1.09-.33-1.14-.91c-.09-1,0-1.94,0-2.92Z"/>
    <path class="cls-3" d="M49.28,257.1c.22-.65-.68-2.08,1.22-2s2,1.26,2.11,2.67-.87,1.38-1.88,1.49C49,259.43,49.22,258.32,49.28,257.1Z"/>
    <path class="cls-3" d="M28.34,259c1.46-.89-1.79-3.76,1.54-3.72,1.26,0,1.52,1.23,1.47,2.36C31.25,259.72,29.72,259.05,28.34,259Z"/>
    <path class="cls-3" d="M14.38,259c-.12-.18-.24-.36-.35-.54l.24-1.82c0-.2-.07-.4-.11-.6l-.12-.62,0-.1c.29-.06.55-.16.54-.53l0,0c.58.67,1.86-.07,2.17,1.47C17.29,258.56,16.23,259,14.38,259Z"/>
    <path class="cls-3" d="M36.82,270.47c-.67-.66-2.09-.53-1.86-1.91.08-.51-.05-1.09.49-1.4a1.89,1.89,0,0,1,1.73.06.75.75,0,0,1,.49.89c-.14.56-.48.45-.83.22s-.75-.42-.91.06c-.22.63.38.62.79.77,1.44.53,1,1.74.63,2.58-.25.61-1.25.46-1.83.14s-1-1,.2-1C36,270.82,36.38,271.13,36.82,270.47Z"/>
    <path class="cls-3" d="M70.15,257.64c0-1-.32-2.21,1.24-2.16,1,0,1.85.54,1.54,1.59-.25.87.64,2.51-1.6,2.44C69.42,259.45,70.47,258.21,70.15,257.64Z"/>
    <path class="cls-3" d="M60.14,267c0,1.63,0,2.6,0,3.57s-.25,1.51-1.2,1.52-1.16-.57-1.16-1.35V267c1.17,1.59.19,3.17,1.12,4.41C60.13,270.26,59.08,268.73,60.14,267Z"/>
    <path class="cls-3" d="M61.71,271.24c.44.25.83.3,1-.12.35-.74-.28-.94-.77-1.05-1.14-.25-.74-1.12-.79-1.8a.74.74,0,0,1,.79-.87c.52,0,1.42,0,1.32.46-.28,1.34.62,2.64.06,3.91-.3.67-1.05.37-1.63.35s-.6-.41-.56-.78C61.26,270.44,61.57,271.2,61.71,271.24Z"/>
    <path class="cls-3" d="M59.31,255.78c0,1.17-1.14,2.22-.25,3.55.23.35-.61,1.08-1,.6a4.43,4.43,0,0,1-1-3.27c.06-.92.35-1.55,1.33-1.78S59.72,254.66,59.31,255.78Z"/>
    <path class="cls-3" d="M64.58,258.65c.56-.85-.43-1.35-.46-2s-.38-1.49.67-1.58a1.26,1.26,0,0,1,1.45,1.1,5.08,5.08,0,0,1-.33,2.83c-.21.55-.24,1.31-1.11,1S64.59,259.11,64.58,258.65Z"/>
    <path class="cls-3" d="M22.12,255.13a1.83,1.83,0,0,1,1.82,2c0,.87,0,1.86-1.33,2-2.06.17-1.07-1.5-1.42-2.35S21.38,255.37,22.12,255.13Z"/>
    <path class="cls-3" d="M29.06,271.64c-3.16.6-1.91-1.81-2.13-3.09-.32-1.86.88-1.64,2.09-1.4.13.75-3,1-.29,2.05.38.15.38.45,0,.6C26.4,270.81,29,270.86,29.06,271.64Z"/>
    <path class="cls-3" d="M44.9,215.43c-2.53,1.27-1.08-1.59-2.09-1.72L44.45,212l1.43,1.69C44.94,213.88,46.2,215.62,44.9,215.43Z"/>
    <path class="cls-3" d="M35.69,255.55c.87-.72,1.64-.4,2.35-.47.44-.05.93-.08,1.16.43s0,.84-.53,1c-.31.11-.56.39-.42.68.41.83.56,1.75-.56,1.8s-.68-1.16-.62-1.73C37.16,256.25,36.3,256,35.69,255.55Z"/>
    <path class="cls-3" d="M34,271.64a6.56,6.56,0,0,1-.23-5C34.61,268.57,34.18,270.12,34,271.64Z"/>
    <path class="cls-3" d="M56.4,228.16c-.95.62-1,2.32-2.85,2.43C54.52,229.53,55,228.43,56.4,228.16Z"/>
    <path class="cls-1" d="M32.3,295.56c-.36.84-.6,1.76-1.66,1.69-.12,0-.31-.66-.27-1C30.54,295,31.52,295.53,32.3,295.56Z"/>
    <path class="cls-1" d="M72,212.67c.2.24.37.34.36.44-.07.83.35,1.81-.61,2.4-.09.05-.49-.14-.51-.27A2.86,2.86,0,0,1,72,212.67Z"/>
    <path class="cls-3" d="M53.88,228.18c-.75.83-.87,2.4-2.75,2.49A6.72,6.72,0,0,1,53.88,228.18Z"/>
    <path class="cls-1" d="M70.13,287.11v-3.66C71.55,284.81,70.71,286,70.13,287.11Z"/>
    <path class="cls-1" d="M59.76,282c-.57-.2-1-.42-.87-1s.6-.58,1.06-.55.64.25.56.71A1,1,0,0,1,59.76,282Z"/>
    <path class="cls-3" d="M80.13,266.45l0-3.23A3.84,3.84,0,0,1,80.13,266.45Z"/>
    <path class="cls-1" d="M77.19,286.31a1.79,1.79,0,0,1-.63,1.41c-.38-.2-.88-.39-.68-.92S76.67,286.25,77.19,286.31Z"/>
    <path class="cls-3" d="M49.74,228.91l.78-.07c0,.07,0,.17,0,.21-.32.3-.51,0-.73-.17Z"/>
    <path class="cls-1" d="M7.27,285.86a.61.61,0,0,1,.07.95l0-1Z"/>
    <path class="cls-3" d="M80.12,268.28v-1.51A1.06,1.06,0,0,1,80.12,268.28Z"/>
    <path class="cls-1" d="M6.25,282.67l-.08.19L6,282.6l.16-.11Z"/>
    <path class="cls-1" d="M6.66,284.18s-.13.05-.14,0a.27.27,0,0,1-.07-.18c0-.2.15-.22.24,0S6.67,284.11,6.66,284.18Z"/>
    <path class="cls-1" d="M7.29,285.84l-.38-.38.2-.17c0,.19.11.38.16.57Z"/>
    <path class="cls-3" d="M12.72,211.68l-.12.1.15-.08Z"/>
    <path class="cls-2" d="M73.17,150.46c-2.21-1.55-2.12-3.85-2.69-5.85-.09-.29-.2-.61.19-.72a.93.93,0,0,1,1.12.53C72.78,146.25,73.71,148.09,73.17,150.46Z"/>
    <path class="cls-2" d="M38.19,82.94a1.23,1.23,0,0,1-1.27,1c-.55,0-1.17,0-1.29-.57s.42-1.11,1-1.16A1.59,1.59,0,0,1,38.19,82.94Z"/>
    <path class="cls-2" d="M59.12,65.74c-.12.08-.19.18-.27.18a.77.77,0,0,1-.39-.09s0-.18,0-.27Z"/>
    <path class="cls-2" d="M60.19,66.06l-.37-.18c.25-.23.36-.14.38.16Z"/>
    <path class="cls-2" d="M22.26,333.11a9.5,9.5,0,0,0,3.83,1.44C24.15,335.42,23.05,335.13,22.26,333.11Z"/>
    <path class="cls-2" d="M60.14,335l-3.34.15C58.21,333.53,58.43,333.51,60.14,335Z"/>
    <path class="cls-1" d="M59.33,43.64c.74-4.71-1.08-10-1.06-15.37,0-.48-.5-1.05.12-1.4s1.16,0,1.64.4,1.08,1.13.9,1.73c-1.29,4.25.33,8.23,1.1,12.27a29.87,29.87,0,0,1,.33,6,44.54,44.54,0,0,0,0,7.12c.1.66.33,1.61-.93,1.59-1.06,0-1.51-.4-1.71-1.57C59.18,51.09,59.37,47.73,59.33,43.64Z"/>
    <path class="cls-3" d="M56.58,22.68c.1,1.49-.7,1.69-1.43,1.72-5.83.22-11.67.84-17.45-.4a8.26,8.26,0,0,1-3.14-1.18c-.42-.29-.62-.64-.25-1.12s.63-.1.93.09c5.16,3.24,10.84,2.26,16.4,1.9C53.23,23.59,55,23.87,56.58,22.68Z"/>
    <path class="cls-1" d="M32.62,11.77c.3-1.9,1.64-1.92,3.11-1.73a3.68,3.68,0,0,0-.49,1.72c-.12,1.14-.66,2.2-1.92,2.07S33,12.42,32.62,11.77Z"/>
    <path class="cls-3" d="M46.19,20.12c-2.25.81-4.2-1-6.27-.21-.06,0-.39-.41-.45-.66a.69.69,0,0,1,.5-.85C41.22,17.89,45,18.85,46.19,20.12Z"/>
    <path class="cls-1" d="M58,16.63H57.4c-.75-.63-1.39-1.43-.13-2,.77-.34.53-1.11,1.15-1.6a3.39,3.39,0,0,0,2.11,2.43Z"/>
    <path class="cls-3" d="M36.4,59.92c1-.52,2.52.13,2.9-1.49.05-.23.59-.3.74,0a1.64,1.64,0,0,1,0,1C39.79,60.57,37.55,60.9,36.4,59.92Z"/>
    <path class="cls-2" d="M14,255.37l.12.62c-.65-.13-1.32.95-2,0a1.41,1.41,0,0,1,.3-2C12.82,254.67,12.73,255.88,14,255.37Z"/>
    <path class="cls-2" d="M14.27,256.59,14,258.41C12.29,257.55,13.58,257.11,14.27,256.59Z"/>
    <path class="cls-2" d="M14.61,254.74c0,.37-.25.47-.54.53C14,254.86,14.19,254.66,14.61,254.74Z"/>
    <path class="cls-2" d="M77,256.92l.11-1.07c.1.05.27.08.3.15a.7.7,0,0,1-.44.89Z"/>
    <path class="cls-2" d="M44.37,199.47c1.43,2.07,0,4-.27,6a.75.75,0,0,1-1,.66,1,1,0,0,1-.63-1.28,4.89,4.89,0,0,0-.13-4.19c-.72-1.88,1.34-.77,2.07-1.17Z"/>
    <path class="cls-2" d="M44.41,199.5a1.35,1.35,0,0,0-1.57-.92c-.68.08-1.15-.07-1-.72.27-.92.89-.1,1.24,0,1.43.42,1.45.53,1.25,1.6Z"/>
    <path class="cls-2" d="M28.12,246a12.18,12.18,0,0,1-.53,4.21c-.22.57-.51,1.16-1.2,1.18a1.37,1.37,0,0,1-1.28-1.1,12.09,12.09,0,0,1-.09-7.5c.18-.56.52-1.14,1.21-1.17.85,0,1.13.69,1.33,1.31A9.79,9.79,0,0,1,28.12,246Z"/>
    <path class="cls-2" d="M36.3,228.46a1.29,1.29,0,0,1-.82,1.46l-.36-.35a1.37,1.37,0,0,1,1.09-1.18Z"/>
    <path class="cls-2" d="M35.48,229.92c-.18.21-.37.45-.61.12,0-.06.16-.31.25-.47Z"/>
    <path class="cls-2" d="M37.48,279.86c.09-.21.21-.36.43-.2,0,0-.12.29-.18.45Z"/>
  </g>
</svg>
