<svg id="Layer_1" data-name="Layer 1" xmlns="http://www.w3.org/2000/svg" width="1.58in" height="6.39in" viewBox="0 0 113.86 459.92">
  <defs>
    <style>
      .cls-1 {
        fill: #fff;
      }

      .cls-2 {
        fill: #332718;
      }

      .cls-3 {
        fill: #8999ab;
      }
    </style>
  </defs>
  <g>
    <path class="cls-1" d="M2.58,346.55c0,4.16-.13,8.32,0,12.48.06,2.9-.72,5.8.08,8.69-.47,1-1.51,1.93-.61,3.21C1.9,385.8,1,400.63.24,415.48c-.36,7-.51,14,1,20.86,2.39,10.76,7.87,18.17,19.61,20.45a180.86,180.86,0,0,0,33,3.12,176.42,176.42,0,0,0,37.63-3.33c8.36-1.74,15-6.06,17.65-14.9,1.55-5.17,3.1-10.39,3-15.79-.4-16.3-.09-32.59-.26-48.88.92-.79.64-1.88.64-2.85.07-20.94.06-41.88.55-62.82,0-1.17.38-2.47-.64-3.47.15-10.19.39-20.37.42-30.56,0-13.87-.62-27.79.63-41.58a88.58,88.58,0,0,0-5.42-39.15c-1.66-4.53-4.31-8.53-6.3-12.88-3.44-7.51-6.52-15.26-7.37-23.41-2.22-21.47-3.83-43-5.61-64.52-.14-1.72-.42-2.9-2.69-2.9,2.31-.79,2.16-2.51,2-4.11-.35-4.16-.86-8.31-1.2-12.47q-1.82-22.7-3.56-45.39c-.11-1.34-.21-2.63.74-3.77,1.57-1.89,1.4-3.93.35-6-.7-1.39-1.11-2.52.81-3.45a2.85,2.85,0,0,0,1.57-3.06c-1-7.11-3.19-11-9.94-12.65a68.24,68.24,0,0,0-31.11-.36c-6.87,1.43-8.49,7.55-8.85,12.59a2.12,2.12,0,0,0,1.53,2.38c1.45.37,1.37,1.34.89,2.37-1.27,2.67-2,5.31-.19,8.09.26.41,0,1.2-.09,1.79-2.4,10.37-2.67,21-3.57,31.51-.93,10.85-1.57,21.72-2.83,32.54-1.4,11.93-2.58,23.88-3.95,35.81-1.3,11.2-2.18,22.45-4.42,33.52-2.06,10.15-6.83,19.2-11.74,28.16a75.4,75.4,0,0,0-9,34.39c-.38,11.83,1.14,23.63.61,35.46,0,0-.16.12-.15.16a3,3,0,0,0,.14.39l0,1.9A4.52,4.52,0,0,0,4,266.37c0,.39,0,.79-.08,1.18-.06.06-.19.12-.18.17a2.54,2.54,0,0,0,.13.45c0,.59,0,1.17.05,1.75l-.1,1.24L3,323.92C2,331.44,2.38,339,2.58,346.55Z"/>
    <path class="cls-2" d="M3.93,267.55,4,266.37a6.71,6.71,0,0,0,.15-3.69c0-.63,0-1.27,0-1.9a.38.38,0,0,0,0-.55c.53-11.83-1-23.63-.61-35.46a75.4,75.4,0,0,1,9-34.39c4.91-9,9.68-18,11.74-28.16,2.24-11.07,3.12-22.32,4.42-33.52,1.37-11.93,2.55-23.88,3.95-35.81,1.26-10.82,1.9-21.69,2.83-32.54.9-10.53,1.17-21.14,3.57-31.51.13-.59.35-1.38.09-1.79-1.77-2.78-1.08-5.42.19-8.09.48-1,.56-2-.89-2.37a2.12,2.12,0,0,1-1.53-2.38c.36-5,2-11.16,8.85-12.59A68.24,68.24,0,0,1,76.9,2c6.75,1.69,8.92,5.54,9.94,12.65a2.85,2.85,0,0,1-1.57,3.06c-1.92.93-1.51,2.06-.81,3.45,1.05,2.06,1.22,4.1-.35,6-1,1.14-.85,2.43-.74,3.77q1.78,22.7,3.56,45.39c.34,4.16.85,8.31,1.2,12.47.14,1.6.29,3.32-2,4.11,2.27,0,2.55,1.18,2.69,2.9,1.78,21.51,3.39,43.05,5.61,64.52.85,8.15,3.93,15.9,7.37,23.41,2,4.35,4.64,8.35,6.3,12.88a88.58,88.58,0,0,1,5.42,39.15c-1.25,13.79-.58,27.71-.63,41.58,0,10.19-.27,20.37-.42,30.56-.7-3.56-1.54-7.1-2-10.69a51.37,51.37,0,0,0-4.17-13.61,86.18,86.18,0,0,0-6.71-11.5,48.44,48.44,0,0,0-13.43-13.73c-9.6-6.55-20.62-8.94-32.27-7.76a24.68,24.68,0,0,0-7.45,1.5c-6,2.66-12.08,5.22-17.44,9.39a54.6,54.6,0,0,0-16,19.53l-.1.63,0-.06C8.33,288.5,7,296.54,5,304.35c-.13.49.24,1.12.38,1.68-1.41.85-.91,2.33-1.09,3.54C3.12,317.35,3.88,325.21,3,333v-9.11l.81-52.75c.42-.39.67-.79.1-1.25,0-.58,0-1.16-.05-1.74.07-.06.2-.12.2-.17A2.24,2.24,0,0,0,3.93,267.55ZM34.23,103c.11-.47.3-1-.48-1-.18,0-.35.39-.53.6l1.06.34a11,11,0,0,1-.28,4.77c-.09.51,0,1,.64,1.14.23,0,.73.21.62-.29C34.87,106.72,36.53,104.48,34.23,103ZM5.39,269.73c.57-.14,1.34.34,1.72-.45a.8.8,0,0,0-.25-.74C6,268.18,5.7,268.86,5.39,269.73Z"/>
    <path class="cls-2" d="M111.9,377c.17,16.29-.14,32.58.26,48.88.13,5.4-1.42,10.62-3,15.79-2.66,8.84-9.29,13.16-17.65,14.9a176.42,176.42,0,0,1-37.63,3.33,180.86,180.86,0,0,1-33-3.12C9.13,454.51,3.65,447.1,1.26,436.34c-1.53-6.88-1.38-13.86-1-20.86C1,400.63,1.9,385.8,2,370.93c1.57.23.87,1.51,1.06,2.36.49,2.28-.08,4.76,1.31,6.87a52.49,52.49,0,0,0,7.29,18.34,39.19,39.19,0,0,0,5.33,8c3.34,3.95,7.46,7.09,11.56,10.2,5.71,4.32,11.88,7.83,19,9.46,1.6.37,1.89-.57,2.25-1.56.48-1.32-.43-1.42-1.42-1.62-1.38-.29-2.69-1-4.07-1.22-6.62-1.13-12-4.76-16.72-9.09a90.36,90.36,0,0,1-15-18.65c-1.87-4.11-3.85-8.17-4.6-12.68.47,1.24,1,2.47,1.46,3.79,1-.79.57-1.55.36-2.29a59.63,59.63,0,0,1-2.41-16.79c.24-14.86.59-29.73.6-44.6a79.35,79.35,0,0,1,3.78-25.22c1.42-4.31,3.21-8.51,4.83-12.76a1.64,1.64,0,0,0,1.05-1.85l-1.11.63a27.68,27.68,0,0,1,6.8-10.82c4.53-4.74,8.81-9.77,15.07-12.51C42.8,257,47.45,255.8,52,254.25c3-1,.39-1.65.39-2.49,3-.24,6-1.14,9-.64,1.06.17,3-.09,3,1.44,0,1.95-2,.22-2.78,1a4.6,4.6,0,0,0-.41.69c2.39.59,4.82.15,7.07,1,4.07,1.44,8.8,1.44,11.67,5.48.28.39.49,1,1.38.8,2.34-.44,5.61,1.65,6.94,4.22l-.66.41,1.26.81.58.63.62.61c.07,1.16.34,2.12,1.84,1.84l.6.61c1.51,1.19,1.91,3.32,3.68,4.29a2.77,2.77,0,0,0,1.87,2.31c-.61-.78-1.23-1.55-1.85-2.33l-.85-1.59.47-.47a23.12,23.12,0,0,1,5.58,9.16c1.28,4.12,2.3,8.38,4.42,12.5.17-.78.29-1.31.44-2a87.35,87.35,0,0,1,3.44,17.85l0,0c-1.15.39-.64,1.34-.64,2.07,0,11.47,0,22.95-.09,34.43,0,1,.4,2.05-.52,2.86-.9-.76-.74-1.81-.74-2.82.06-8.85.05-17.7.2-26.55a73.83,73.83,0,0,0-6.92-33.4c-.87-1.84-1.31-4.1-3.54-5,1.2-1.16-.17-1.82-.62-2.5-10.56-15.83-28.84-25.25-50.09-19-13,3.85-22.29,12.53-28.48,24.56-6.29,10.72-9,22.36-9.08,34.73C9,332.8,9,345.94,8.56,359.07c-.24,7.42-.3,15,1.58,22a52.74,52.74,0,0,0,8.22,16.85c10.14,13.05,22.5,22.28,39.81,22.75a44,44,0,0,0,17.29-2.81,51.73,51.73,0,0,0,13.66-8.21c3.58-2.85,7.08-6.07,8.77-10.62a44.2,44.2,0,0,0,6.78-13.72c2.86-8.72,2.81-17.73,3-26.76.06-2.65-.68-5.45.65-8,1.12,9.37.59,18.74-.08,28.1.13-.47.26-.94.38-1.42a9.43,9.43,0,0,1-.1,2.13c-.75,6.41-3.93,11.8-7,17.27-1.56,2.76-2.23,6.07-4,8.62a44.52,44.52,0,0,1-12.09,11.49c-4.84,3.13-9.8,6.3-15.74,7.27,2,.07,3.42,1.88,5.74.86a68.89,68.89,0,0,0,18.35-11.13c4.38-3.87,7.61-9,10.69-14C108.68,392.69,110.26,384.84,111.9,377Z"/>
    <path class="cls-3" d="M108.37,349.65c.92-.82.52-1.91.52-2.87,0-11.48,0-23,.09-34.43,0-.73-.51-1.68.64-2.07v42.16c.33-8.75.48-17.51.28-26.27-.13-5.28.65-10.58-.31-15.85a87.35,87.35,0,0,0-3.44-17.85c-.15.71-.27,1.24-.44,2-2.12-4.12-3.14-8.38-4.42-12.5a23.12,23.12,0,0,0-5.58-9.16l-.52-.69c-.31-.34-.57-1.14-1.06-.76-.72.57,0,1,.48,1.29l.63.63.85,1.59,0,0c-1.77-1-2.17-3.1-3.68-4.29l0,0c.34.11.9.58,1,.15.23-1.16-.61-1.69-1.6-2l0,0c0-.46-.15-.72-.65-.64l0,0c-.77-1.14-1.29-2.6-3.08-2.46h0c-1.33-2.57-4.6-4.66-6.94-4.22-.89.16-1.1-.41-1.38-.8-2.87-4-7.6-4-11.67-5.48-2.25-.8-4.68-.36-7.07-1a4.6,4.6,0,0,1,.41-.69c.8-.79,2.8.94,2.78-1,0-1.53-1.9-1.27-3-1.44-3-.5-6,.4-9,.64,0,.84,2.64,1.45-.39,2.49-4.51,1.55-9.16,2.76-13.57,4.68-6.26,2.74-10.54,7.77-15.07,12.51a27.68,27.68,0,0,0-6.8,10.82l.05-.06c-.81.14-.82.66-.62,1.28l-.45.08.17.37.26-.48.3,0h.3l0,.05c-1.62,4.24-3.41,8.44-4.83,12.75A79.35,79.35,0,0,0,8,321.46c0,14.87-.36,29.74-.6,44.6a59.63,59.63,0,0,0,2.41,16.79c.21.74.67,1.5-.36,2.29-.51-1.32-1-2.55-1.46-3.79l0,0c-.46-1,.1-2.2-.66-3.14l.06.08c-.41-.34-.26-.72-.06-1.1-1.27-1.69-.26-4-1.43-5.7a11.31,11.31,0,0,0,0,5.86c.33,1.25.72,2.76-1.48,2.77-1.39-2.11-.82-4.59-1.31-6.87-.19-.85.51-2.13-1.06-2.36-.9-1.28.14-2.19.61-3.21.12-5.89.31-11.78.28-17.68,0-1.12,1-2.45-.32-3.49C2.38,339,2,331.44,3,323.92V333c.86-7.82.1-15.68,1.26-23.46.18-1.21-.32-2.69,1.09-3.54,1.57-.07,2.24-.93,2.54-2.45a69.82,69.82,0,0,1,3.41-11.94c1.25-3.24,3.58-6.33,1.54-10.07l0,.05c.43-.14.42-.35.1-.62a54.6,54.6,0,0,1,16-19.53c5.36-4.17,11.4-6.73,17.44-9.39a24.68,24.68,0,0,1,7.45-1.5c11.65-1.18,22.67,1.21,32.27,7.76a48.44,48.44,0,0,1,13.43,13.73,86.18,86.18,0,0,1,6.71,11.5,51.37,51.37,0,0,1,4.17,13.61c.51,3.59,1.35,7.13,2,10.69,1,1,.67,2.3.64,3.47-.49,20.94-.48,41.88-.55,62.82,0,1,.28,2.06-.64,2.85-1.64,7.83-3.22,15.68-7.49,22.65-3.08,5-6.31,10.15-10.69,14a68.89,68.89,0,0,1-18.35,11.13c-2.32,1-3.77-.79-5.74-.86,5.94-1,10.9-4.14,15.74-7.27a44.52,44.52,0,0,0,12.09-11.49c1.81-2.55,2.48-5.86,4-8.62,3.1-5.47,6.28-10.86,7-17.27a9.43,9.43,0,0,0,.1-2.13c-.12.48-.25.95-.38,1.42.67-9.36,1.2-18.73.08-28.1C108.34,350.21,108.36,349.93,108.37,349.65Z"/>
    <path class="cls-2" d="M2.58,346.55c1.27,1,.31,2.37.32,3.49,0,5.9-.16,11.79-.28,17.68-.8-2.89,0-5.79-.08-8.69C2.45,354.87,2.56,350.71,2.58,346.55Z"/>
    <path class="cls-3" d="M4.16,262.68A6.71,6.71,0,0,1,4,266.37,4.52,4.52,0,0,1,4.16,262.68Z"/>
    <path class="cls-3" d="M3.93,269.92c.57.46.32.86-.1,1.25C3.86,270.75,3.89,270.33,3.93,269.92Z"/>
    <path class="cls-3" d="M3.93,267.55a2.24,2.24,0,0,1,.15.46c0,.05-.13.11-.2.17a2.92,2.92,0,0,1-.13-.46C3.74,267.67,3.87,267.61,3.93,267.55Z"/>
    <path class="cls-3" d="M4.22,260.23a.38.38,0,0,1,0,.55,3,3,0,0,1-.14-.39S4.17,260.28,4.22,260.23Z"/>
    <path class="cls-1" d="M12.86,281.57c2,3.74-.29,6.83-1.54,10.07a69.82,69.82,0,0,0-3.41,11.94c-.3,1.52-1,2.38-2.54,2.45-.14-.56-.51-1.19-.38-1.68C7,296.54,8.33,288.5,12.86,281.57Z"/>
    <path class="cls-3" d="M34.22,103c2.31,1.48.65,3.72,1,5.57.11.5-.39.32-.62.29-.67-.09-.73-.63-.64-1.14a11,11,0,0,0,.28-4.77Z"/>
    <path class="cls-3" d="M5.39,269.73c.31-.87.63-1.55,1.47-1.19a.8.8,0,0,1,.25.74C6.73,270.07,6,269.59,5.39,269.73Z"/>
    <path class="cls-3" d="M34.28,103l-1.06-.34c.18-.21.35-.59.53-.6.78,0,.59.52.48,1Z"/>
    <path class="cls-1" d="M12.92,281c.32.27.33.48-.1.62C12.86,281.42,12.89,281.21,12.92,281Z"/>
    <path class="cls-3" d="M97.89,399c-1.69,4.55-5.19,7.77-8.77,10.62a51.73,51.73,0,0,1-13.66,8.21,44,44,0,0,1-17.29,2.81c-17.31-.47-29.67-9.7-39.81-22.75,1-1.57,1-3.38,1.29-5.15.91-5.22-2.5-10.53.34-15.69,0-.07,0-.2,0-.3-.69-3.21.23-6.47-.28-9.84-.71.27-1.19,1.36-2.08.78-.64-.41-.38-1.05-.21-1.65,1.09-3.67,2.28-7.33,2.39-11.11,1.22-.28,2.47,1.37,2.78.39s1.31-2.7-.43-3.76a5.67,5.67,0,0,1-1.05-1.08c2.12-1,1-3,.74-4.22-.34-1.66-2.17-.79-3.4-.87-.2-1.1,2.61-3.27-1.15-3.16-.48,0-.28-.86-.28-1.34,0-4.88.06-9.76.05-14.64,0-1,.24-2,1.27-2.13,2-.2,1.33-1.75,1.43-2.71.37-3.64-1.11-7.17.06-11.05.63-2.07.19-5-.31-7.63s-1.23-5.66,1.58-7.82a.87.87,0,0,0-.28-1.51c-1.48-.47-.78-1.41-.88-2.38-.2-2.09,1.09-4.73-1.74-6.09,6.19-12,15.46-20.71,28.48-24.56,21.25-6.28,39.53,3.14,50.09,19,.45.68,1.82,1.34.62,2.5a12.7,12.7,0,0,1-1.48,7.41c-.71,1.36-1,2.85,1.43,2.77h0c-.2,3.32-1.19,6.68-.48,9.92.5,2.27-1.54,5.81,2.37,6.45.5,2.12-2.13-.56-2.27,2.16-.24,4.68,0,9.36-.37,14-.85,3.18.55,6.52-.71,10.59-1.63-3.57-2.92-6.37-4.18-9.19a2,2,0,0,0-2.38-1.39c-1.19.22-.89,1.18-.89,1.94,0,4.87,0,9.75,0,14.62,0,1.15-.1,2.19,1.62,2.27,2,.09,1.77-1.14,1.77-2.36v-7.77c2.45,2.86,3.23,5.69,4.5,8.23a3,3,0,0,0,2.68,2c-.51.9-2.36.58-2,2.24-1.09.12-2,.11-2.13,1.78-.31,3,.57,4.22,3.6,3.56-1.14,1.24-2.11,2.45-1.09,4.32.68,1.24-1,3.32,2,3.94,1.21.25-2.6,1.81-1.28,3.76.14.2.08.38.31.23.33-2.56,2.47-.81,3.67-1.4,1-.46,1.64,1,1.5,2.08-.2,1.63,1,3.95-1,4.71-1.46.58-3.7.74-4.93-1.27-1.72,3.93-1.16,8.18,1.34,10.38-.44,1.05-2.24.8-2.08,2.61a38.16,38.16,0,0,1-.14,9.49c-.58-.05-1.17-.08-1.51.51-.18.31,0,.57.36.56.68,0,1-.49,1.13-1.09A10,10,0,0,1,97,397C96.69,398,96.43,398.86,97.89,399Zm-56.28,4.4c-.26-1.47,1.61-2,1.6-3.4-1-.5-2.11-.67-2.66.33-.65,1.21-.09,2.32,1.09,3.05.24,1.2-.86,1.76-1.31,2.63s-.49,1.56.48,2c1.56.66,3.17,1.22,4.74,1.86.87.36,1.32,0,1.69-.75s.64-1.95-.24-2.11C44.62,406.55,43.52,404.4,41.61,403.4Zm9.79-94.26h0c-1-1.51-2,.66-3.07,0-2.22-.24-2.22-.24-3.84,2.87l2-.46c.2.22.44.66.61.63,3.1-.48,6.21.82,9.2.24s5.85.85,8.53-.87c2.78,2.06,5,1.22,7.48-2.89-1.89.95-4.06-.66-5.68,1.1-1.71-2.93-2.27.14-3.33.64-.21.1-.37.57-.65.19-.38-.86,1.21-1.16.54-2.08C59.28,308.94,55.3,308.28,51.4,309.14Zm22,69.75c-4.31-1.58-8.88-1.33-13.32-1.44a100.36,100.36,0,0,0-10.55.1c-.58.05-1.6.16-2,1,1.27.37.58,2.81,2.38,2.45,2.95-.6,5.84.7,8.7.24,3.24-.52,7,1.7,9.82-2.24-.12,1.57-.49,3,1.47,1.63a27.53,27.53,0,0,1,3.47-1.76c.55-.24,1.23-.3,1.42-1C74.14,377.86,73.51,378,73.43,378.89Zm-9.13-110c0-1.62,0-3.24,0-4.86s-.4-2.44-2.09-1.93a15.49,15.49,0,0,1-8.11,0c-1.86-.44-2.89.6-2.67,2.26.58,4.55,1.84,9,1.17,13.7,0,.26.21.56.33.83,1.11,2.43,2.72,4.76,5.53,4.45s4.51-2.62,5.07-5.41A32.12,32.12,0,0,0,64.3,268.9ZM40.88,333.69a26.88,26.88,0,0,0,0-3.36c-.52-3.87-2.28-5.73-5.4-5.89-3.4-.17-5.23,1.43-6.14,5.43a19.24,19.24,0,0,0,.09,8.44c.58,2.83,2,4.33,4.82,4.57,3,.26,4.86-1.24,5.94-3.82A10.78,10.78,0,0,0,40.88,333.69ZM55.3,340.3c-.61.37-1.95-1.25-2.22.7-.24,1.75.92,2,2.21,2.17.3,0,.58.2.88.24,3.42.44,6.69-1,7.86-3.44,1.28-2.68.4-5.23-2.73-7.93a25.37,25.37,0,0,1-2-1.82c-.67-.69-1.16-1.54-.26-2.38.65-.62,1.25-1.72,2.44-.59a1.18,1.18,0,0,0,1.86-.12,1.86,1.86,0,0,0,.17-2c-.38-.76-1.18-.72-1.87-.75-.87-.05-1.55.8-2.6.37-2.28-.92-3.94.4-5.16,2.06s-1.07,3.79.1,5.7c.88,1.43,2.28,2.29,3.41,3.45.81.85,2,1.64,1.5,3.07C58.23,340.62,56.69,340.19,55.3,340.3ZM78,333.83v2.74c0,7.37,0,7.37,7.49,6.75.21,0,.41,0,.61,0,.8,0,1-.48,1.07-1.17S86.83,341,86.08,341a6.87,6.87,0,0,0-1.82.09c-1.7.49-3-.06-2.79-1.82.24-1.56-1.91-4.43,1.89-4.56.81,0,1.4-.18,1.4-1.16,0-.74-.3-1.18-1.07-1.12-3.23.28-2.26-2.12-2.29-3.73-.05-2.44,1.92-1.41,3.13-1.63a11,11,0,0,1,1.52,0,1,1,0,0,0,1.1-1.17c0-.83-.31-1.18-1.21-1.36-6.57-1.26-8-.19-8,6.26Zm-8.67,1.46c0,1.83,0,3.66,0,5.49,0,1.35-.18,2.58,1.93,2.6s2-1,2-2.47c0-3.66,0-7.32,0-11,0-1.63-.13-3.17,2.25-2.86,1,.13,1.2-.5,1.22-1.31s-.36-1.27-1.26-1.28c-2.85,0-5.69-.13-8.54-.17-.81,0-1.35.32-1.36,1.24,0,.75,0,1.65,1,1.56,3.32-.34,2.86,1.89,2.82,3.91C69.27,332.44,69.3,333.86,69.3,335.29Zm-26.93-1.46c0,2.54,0,5.08,0,7.61,0,.75-.3,1.82,1,1.84,2.54,0,5.07,0,7.6-.09,1.11-.05,1.06-1,1.05-1.86s-.61-1.17-1.42-1.13a6.21,6.21,0,0,0-1.22,0c-2.84.64-3.47-.69-3.32-3.28.19-3.44,0-6.9.06-10.35,0-1.46-.3-2.25-2-2.21s-1.76.88-1.73,2.14C42.4,329,42.36,331.39,42.37,333.83Zm25.52,34c0-1.2,0-2.41,0-3.61.08-2.59-1-3.08-3.38-2.28a9.12,9.12,0,0,1-5,0c-1.72-.46-3.34.43-3.51.94a6.12,6.12,0,0,0,0,4.7c.44.85,1.35.76,2.17.72A1.24,1.24,0,0,0,59.54,367c0-.85,0-1.7,0-2.55.38,1.43-.11,3.38,1.66,3.89a5,5,0,0,0,4.33-.91C66.78,366.35,66.64,366.18,67.89,367.83ZM27.46,333.61h.07v-7c0-1.15.09-2.23-1.68-2.19-1.6,0-1.72.86-1.77,2.14-.07,2.41.78,5.06-1.59,7-.44.37-.48,1.15.5,1.26,1.18.13,1,1,1,1.83,0,1.42.08,2.85,0,4.27s.49,1.93,1.92,1.95,1.59-.78,1.57-1.92C27.43,338.5,27.46,336.06,27.46,333.61Zm38.7,14.28c0,1.5-.47,3.16,1.94,2.94,1.28-.11,2.66-.07,2.46-1.82s-.07-3.73-2.74-3.77C65.52,345.21,66.35,346.89,66.16,347.89Zm-24.47,0a2.1,2.1,0,0,0-1.45-2.2,2.09,2.09,0,0,0-2-.07c-1.2.78-.57,1.62-.14,2.57a2.6,2.6,0,0,1-.2,1.75c-.46,1.22.32,1.39,1.14,1.37C40.87,351.25,41.68,350.17,41.69,347.88Zm37.83-3.29c-1.3.56-3,.46-3.45,2-.56,1.72.47,3.27,1.23,4.78a1,1,0,0,0,1.27.53c.31-.14.76-.76.7-.85C77.73,348.92,80.36,347,79.52,344.59Zm6.42.26c-.4,2.32,1.68,4.23.6,6.43-.05.12.26.58.43.59.37,0,1,0,1.09-.2.53-1.59,1.33-3.13.89-4.93S87.21,345.17,85.94,344.85Zm-54.16,3.58c-.71-1.06-.31-3-2.27-3.07-.9,0-2.24.65-1.61,1.48.91,1.2-1.39,3.91,1.88,3.83C31.31,350.63,31.51,349.58,31.78,348.43ZM59.84,291.6c1.89.15.55-2.25,1.82-2.59-.66-.71-1.82-.9-2.08-2l-2.32,2C58.63,289.28,57.2,292.29,59.84,291.6ZM48,345.9c1.94.69,1.33,2.21,1.44,3.55,0,.46-.1,1.08.62,1.16.28,0,.82-.08.83-.17a7.93,7.93,0,0,1,1.53-4.4c.18-.21-.52-.84-1.08-.79C50.4,345.33,49.36,344.93,48,345.9Zm26.28-43.1c-.31-1.52-1.68-1.79-2.64-2.3-.62-.34-1.12.79-.91,1.45.28.89.5,2.14,1.83,2C73.28,303.9,74.23,303.76,74.31,302.8ZM46,391.16c-3.91,1.32-1.68-2.78-3.5-3.6-.2,1.52-.82,2.92.28,4.05C43.69,392.53,44.81,392.05,46,391.16ZM72.2,311.94c2-.21,2.19-2.2,4.06-3.25C73.52,308.8,73.28,310.86,72.2,311.94ZM21.93,333.28l-.18-.19-.19.18.27.2Z"/>
    <path class="cls-1" d="M18.18,284.93c2.83,1.36,1.54,4,1.74,6.09.1,1-.6,1.91.88,2.38a.87.87,0,0,1,.28,1.51c-2.81,2.16-2.09,5.2-1.58,7.82s.94,5.56.31,7.63c-1.17,3.88.31,7.41-.06,11.05-.1,1,.59,2.51-1.43,2.71-1,.1-1.27,1.12-1.27,2.13,0,4.88,0,9.76-.05,14.64,0,.48-.2,1.35.28,1.34,3.76-.11.95,2.06,1.15,3.16-.12.86.43,1.61.11,2.6-.75,2.25.55,2.83,2.55,2.49a5.67,5.67,0,0,0,1.05,1.08c1.74,1.06.75,2.78.43,3.76s-1.56-.67-2.78-.39c-.11,3.78-1.3,7.44-2.39,11.11-.17.6-.43,1.24.21,1.65.89.58,1.37-.51,2.08-.78.51,3.37-.41,6.63.28,9.84,0,.1.06.23,0,.3-2.84,5.16.57,10.47-.34,15.69-.31,1.77-.26,3.58-1.29,5.15A52.74,52.74,0,0,1,10.14,381c-1.88-7-1.82-14.55-1.58-22C9,345.94,9,332.8,9.1,319.66,9.18,307.29,11.89,295.65,18.18,284.93Z"/>
    <path class="cls-1" d="M96.89,345.74c-.31-1.66,1.54-1.34,2.06-2.25,1.1-.74.54-1.87.56-2.8.06-4.38-.15-8.78.1-13.14.14-2.53-.84-3.2-3-3,.38-4.67.13-9.35.37-14,.14-2.72,2.77,0,2.27-2.16-3.91-.64-1.87-4.18-2.37-6.45-.71-3.24.28-6.6.48-9.92.52-.1.9-.33.86-.94,0-.06-.16-.17-.24-.15-.65.11-.64.6-.61,1.1-2.41.08-2.14-1.41-1.43-2.77a12.7,12.7,0,0,0,1.48-7.41c2.23.93,2.67,3.19,3.54,5a73.83,73.83,0,0,1,6.92,33.4c-.15,8.85-.14,17.7-.2,26.55,0,1-.16,2.06.74,2.82,0,.29,0,.57,0,.85-1.33,2.58-.59,5.38-.65,8-.2,9-.15,18-3,26.76A44.2,44.2,0,0,1,97.89,399c-1.46-.14-1.2-1-.87-2a10,10,0,0,0-.33-7.11l0,0a38.16,38.16,0,0,0,.14-9.49c-.16-1.81,1.64-1.56,2.08-2.61-2.5-2.2-3.06-6.45-1.34-10.38,1.23,2,3.47,1.85,4.93,1.27,1.92-.76.76-3.08,1-4.71.14-1.11-.55-2.54-1.5-2.08-1.2.59-3.34-1.16-3.67,1.4-.23.15-.17,0-.31-.23-1.32-2,2.49-3.51,1.28-3.76-3-.62-1.33-2.7-2-3.94-1-1.87,0-3.08,1.09-4.32-.23-.83-.69-1.65-.27-2.55C98.75,347.14,98.14,346.31,96.89,345.74Z"/>
    <path class="cls-3" d="M12.56,394a90.36,90.36,0,0,0,15,18.65c4.68,4.33,10.1,8,16.72,9.09,1.38.24,2.69.93,4.07,1.22,1,.2,1.9.3,1.42,1.62-.36,1-.65,1.93-2.25,1.56-7.11-1.63-13.28-5.14-19-9.46-4.1-3.11-8.22-6.25-11.56-10.2a39.19,39.19,0,0,1-5.33-8c1-.49.47-1.19.11-1.68C10.83,395.5,11.5,394.73,12.56,394Z"/>
    <path class="cls-1" d="M12.56,394c-1.06.7-1.73,1.47-.78,2.79.36.49.86,1.19-.11,1.68a52.49,52.49,0,0,1-7.29-18.34c2.2,0,1.81-1.52,1.48-2.77a11.31,11.31,0,0,1,0-5.86c1.17,1.75.16,4,1.43,5.7-.86.41-.41.76.06,1.1l-.06-.08c.08,1.08-.23,2.24.66,3.14l0,0C8.71,385.86,10.69,389.92,12.56,394Z"/>
    <path class="cls-3" d="M96.09,274.89c.62.78,1.24,1.55,1.85,2.33a2.77,2.77,0,0,1-1.87-2.31Z"/>
    <path class="cls-3" d="M91.79,270c-1.5.28-1.77-.68-1.84-1.84l0,0c.41.16.81.7,1.23,0l0,0c-.31.74-.1,1,.65.64l0,0c-.7.42-.16.82,0,1.23Z"/>
    <path class="cls-3" d="M16.52,282.26l1.11-.63a1.64,1.64,0,0,1-1.05,1.85l0,0c0-.41,0-.83,0-1.24Z"/>
    <path class="cls-3" d="M88.75,266.93l-1.26-.81.66-.41h0c-.4.71.12,1,.62,1.23Z"/>
    <path class="cls-3" d="M92.39,270.62l-.6-.61,0,0,.61.61Z"/>
    <path class="cls-3" d="M90,268.17l-.62-.61,0,0,.62.61Z"/>
    <path class="cls-3" d="M89.33,267.56l-.58-.63h0l.61.61Z"/>
    <path class="cls-2" d="M109.59,310.32c1,5.27.18,10.57.31,15.85.2,8.76,0,17.52-.28,26.27V310.28Z"/>
    <path class="cls-2" d="M89.36,267.54l-.61-.61c-.5-.26-1-.52-.62-1.23,1.79-.14,2.31,1.32,3.08,2.46-.42.69-.82.15-1.23,0Z"/>
    <path class="cls-2" d="M8,381.39c-.89-.9-.58-2.06-.66-3.14C8.1,379.19,7.54,380.39,8,381.39Z"/>
    <path class="cls-2" d="M92.42,270.59l-.61-.61c-.17-.41-.71-.81,0-1.23,1,.3,1.83.83,1.6,2C93.32,271.17,92.76,270.7,92.42,270.59Z"/>
    <path class="cls-2" d="M16.57,282.2c0,.41,0,.83,0,1.24h-.3l-.3,0,0,0C15.75,282.86,15.76,282.34,16.57,282.2Z"/>
    <path class="cls-2" d="M7.4,378.33c-.47-.34-.92-.69-.06-1.1C7.14,377.61,7,378,7.4,378.33Z"/>
    <path class="cls-2" d="M94.61,272.67c-.52-.31-1.2-.72-.48-1.29.49-.38.75.42,1.06.76Z"/>
    <path class="cls-2" d="M91.83,268.78c-.75.32-1,.1-.65-.64C91.68,268.06,91.86,268.32,91.83,268.78Z"/>
    <path class="cls-2" d="M95.24,273.3l-.63-.63.58-.53.52.69Z"/>
    <path class="cls-2" d="M15.93,283.45l-.26.48-.17-.37.45-.08Z"/>
    <path class="cls-2" d="M64.3,268.9a32.12,32.12,0,0,1-.76,9c-.56,2.79-2.29,5.1-5.07,5.41s-4.42-2-5.53-4.45c-.12-.27-.37-.57-.33-.83.67-4.66-.59-9.15-1.17-13.7-.22-1.66.81-2.7,2.67-2.26a15.49,15.49,0,0,0,8.11,0c1.69-.51,2.16.39,2.09,1.93S64.3,267.28,64.3,268.9Zm-3.85,3.49a2.63,2.63,0,0,0-1.75-2.17,1.76,1.76,0,0,0-2,.08,1,1,0,0,0-.22,1.39c1.54,1.82,1.16,3.68.41,5.67a1.24,1.24,0,0,0,.83,1.72c.9.22,1.28-.44,1.46-1.18C59.56,276.33,59.91,274.74,60.45,272.39Zm-.19-2.4a2.5,2.5,0,0,0-1.8-1.93c-.81-.24-1.5-1-2.45-.61-.1,0-.12.37-.11.56.12,1.6,1.44.52,2.11.94A23.44,23.44,0,0,0,60.26,270Z"/>
    <path class="cls-2" d="M96.56,324.57c2.21-.22,3.19.45,3,3-.25,4.36,0,8.76-.1,13.14,0,.93.54,2.06-.56,2.8a3,3,0,0,1-2.69-2c-1.27-2.54-2.05-5.37-4.5-8.23v7.77c0,1.22.21,2.45-1.77,2.36-1.72-.08-1.62-1.12-1.62-2.27,0-4.87,0-9.75,0-14.62,0-.76-.3-1.72.89-1.94A2,2,0,0,1,91.67,326c1.26,2.82,2.55,5.62,4.18,9.19C97.11,331.09,95.71,327.75,96.56,324.57Z"/>
    <path class="cls-2" d="M40.88,333.69a10.78,10.78,0,0,1-.71,5.37c-1.08,2.58-3,4.08-5.94,3.82-2.8-.24-4.24-1.74-4.82-4.57a19.24,19.24,0,0,1-.09-8.44c.91-4,2.74-5.6,6.14-5.43,3.12.16,4.88,2,5.4,5.89A26.88,26.88,0,0,1,40.88,333.69Zm-3.5.29a11.89,11.89,0,0,0-.84-5.59c-.29-.74-.74-1.52-1.75-1.45a1.82,1.82,0,0,0-1.52,1.35A15.64,15.64,0,0,0,33.36,339a1.79,1.79,0,0,0,1.57,1.29c1,0,1.43-.7,1.75-1.46A10.21,10.21,0,0,0,37.38,334Z"/>
    <path class="cls-2" d="M55.3,340.3c1.39-.11,2.93.32,3.54-1.29.54-1.43-.69-2.22-1.5-3.07-1.13-1.16-2.53-2-3.41-3.45-1.17-1.91-1.43-3.89-.1-5.7s2.88-3,5.16-2.06c1,.43,1.73-.42,2.6-.37.69,0,1.49,0,1.87.75a1.86,1.86,0,0,1-.17,2,1.18,1.18,0,0,1-1.86.12c-1.19-1.13-1.79,0-2.44.59-.9.84-.41,1.69.26,2.38a25.37,25.37,0,0,0,2,1.82c3.13,2.7,4,5.25,2.73,7.93-1.17,2.44-4.44,3.88-7.86,3.44-.3,0-.58-.2-.88-.24-1.29-.16-2.45-.42-2.21-2.17C53.35,339.05,54.69,340.67,55.3,340.3Z"/>
    <path class="cls-2" d="M78,333.83v-3.05c0-6.45,1.4-7.52,8-6.26.9.18,1.23.53,1.21,1.36a1,1,0,0,1-1.1,1.17,11,11,0,0,0-1.52,0c-1.21.22-3.18-.81-3.13,1.63,0,1.61-.94,4,2.29,3.73.77-.06,1.07.38,1.07,1.12,0,1-.59,1.13-1.4,1.16-3.8.13-1.65,3-1.89,4.56-.25,1.76,1.09,2.31,2.79,1.82a6.87,6.87,0,0,1,1.82-.09c.75,0,1.09.39,1.06,1.13s-.27,1.18-1.07,1.17c-.2,0-.4,0-.61,0-7.49.62-7.49.62-7.49-6.75Z"/>
    <path class="cls-2" d="M69.3,335.29c0-1.43,0-2.85,0-4.27,0-2,.5-4.25-2.82-3.91-.93.09-1-.81-1-1.56,0-.92.55-1.26,1.36-1.24,2.85,0,5.69.14,8.54.17.9,0,1.29.38,1.26,1.28s-.24,1.44-1.22,1.31c-2.38-.31-2.27,1.23-2.25,2.86.06,3.66,0,7.32,0,11,0,1.45,0,2.5-2,2.47s-1.94-1.25-1.93-2.6C69.31,339,69.3,337.12,69.3,335.29Z"/>
    <path class="cls-2" d="M42.37,333.83c0-2.44,0-4.88,0-7.31,0-1.26.09-2.11,1.73-2.14s2,.75,2,2.21c-.05,3.45.13,6.91-.06,10.35-.15,2.59.48,3.92,3.32,3.28a6.21,6.21,0,0,1,1.22,0c.81,0,1.41.16,1.42,1.13s.06,1.81-1.05,1.86c-2.53.12-5.06.12-7.6.09-1.26,0-1-1.09-1-1.84C42.35,338.91,42.37,336.37,42.37,333.83Z"/>
    <path class="cls-2" d="M73.45,378.91A27.53,27.53,0,0,0,70,380.67c-2,1.39-1.59-.06-1.47-1.63-2.79,3.94-6.58,1.72-9.82,2.24-2.86.46-5.75-.84-8.7-.24-1.8.36-1.11-2.08-2.38-2.45.35-.88,1.37-1,2-1a100.36,100.36,0,0,1,10.55-.1c4.44.11,9-.14,13.32,1.44Zm-20.19,0a1,1,0,0,0-.95.91c-.05.37.28.45.56.3a.89.89,0,0,0,.38-1.22l.73-.14-.19-.36Z"/>
    <path class="cls-2" d="M67.89,367.83c-1.25-1.65-1.11-1.48-2.36-.44a5,5,0,0,1-4.33.91c-1.77-.51-1.28-2.46-1.66-3.89,0,.85,0,1.7,0,2.55a1.24,1.24,0,0,1-1.32,1.34c-.82,0-1.73.13-2.17-.72a6.12,6.12,0,0,1,0-4.7c.17-.51,1.79-1.4,3.51-.94a9.12,9.12,0,0,0,5,0c2.35-.8,3.46-.31,3.38,2.28C67.85,365.42,67.89,366.63,67.89,367.83Z"/>
    <path class="cls-2" d="M27.46,333.61c0,2.45,0,4.89,0,7.33,0,1.14,0,1.95-1.57,1.92s-2-.46-1.92-1.95,0-2.85,0-4.27c0-.82.16-1.7-1-1.83-1-.11-.94-.89-.5-1.26,2.37-1.95,1.52-4.6,1.59-7,.05-1.28.17-2.1,1.77-2.14,1.77,0,1.68,1,1.68,2.19v7Z"/>
    <path class="cls-2" d="M64.89,311.58c-2.68,1.72-5.68.33-8.53.87s-6.1-.72-9.2-.24c-.17,0-.41-.41-.61-.63l0,0c1.28-.34,2.23-.91,1.86-2.48v0c1,.64,2-1.53,3.07,0-.68.45-1.64.77-1,2.05.68-.64,1.39-1.09.95-2.06,3.9-.86,7.88-.2,11.85-.6.67.92-.92,1.22-.54,2.08.28.38.44-.09.65-.19,1.06-.5,1.62-3.57,3.33-.64l0-.05c-.55-.12-.67.21-.66.66l0,0c-.46,0-.61.27-.66.66l0-.05-.66.66Z"/>
    <path class="cls-1" d="M41.61,403.4c1.91,1,3,3.15,5.39,3.58.88.16.63,1.32.24,2.11s-.82,1.11-1.69.75c-1.57-.64-3.18-1.2-4.74-1.86-1-.41-.94-1.07-.48-2s1.55-1.43,1.31-2.63Z"/>
    <path class="cls-2" d="M66.16,347.89c.19-1-.64-2.68,1.66-2.65,2.67,0,2.55,2.09,2.74,3.77s-1.18,1.71-2.46,1.82C65.69,351.05,66.19,349.39,66.16,347.89Z"/>
    <path class="cls-2" d="M41.69,347.88c0,2.29-.82,3.37-2.66,3.42-.82,0-1.6-.15-1.14-1.37a2.6,2.6,0,0,0,.2-1.75c-.43-.95-1.06-1.79.14-2.57a2.09,2.09,0,0,1,2,.07A2.1,2.1,0,0,1,41.69,347.88Z"/>
    <path class="cls-2" d="M79.52,344.59c.84,2.39-1.79,4.33-.25,6.47.06.09-.39.71-.7.85a1,1,0,0,1-1.27-.53c-.76-1.51-1.79-3.06-1.23-4.78C76.56,345.05,78.22,345.15,79.52,344.59Z"/>
    <path class="cls-2" d="M66.69,309.79c1.62-1.76,3.79-.15,5.68-1.1-2.43,4.11-4.7,4.95-7.48,2.89l0,0c.41,0,.72-.16.66-.66l0,.05q.81.15.66-.66l0,0c.56.12.67-.21.66-.66Z"/>
    <path class="cls-2" d="M21.09,350.48c-2,.34-3.3-.24-2.55-2.49.32-1-.23-1.74-.11-2.6,1.23.08,3.06-.79,3.4.87C22.08,347.51,23.21,349.44,21.09,350.48Z"/>
    <path class="cls-2" d="M85.94,344.85c1.27.32,2.59.19,3,1.89s-.36,3.34-.89,4.93c-.06.18-.72.24-1.09.2-.17,0-.48-.47-.43-.59C87.62,349.08,85.54,347.17,85.94,344.85Z"/>
    <path class="cls-2" d="M31.78,348.43c-.27,1.15-.47,2.2-2,2.24-3.27.08-1-2.63-1.88-3.83-.63-.83.71-1.52,1.61-1.48C31.47,345.44,31.07,347.37,31.78,348.43Z"/>
    <path class="cls-2" d="M96.89,345.74c1.25.57,1.86,1.4,1.2,2.79-.42.9,0,1.72.27,2.55-3,.66-3.91-.59-3.6-3.56C94.93,345.85,95.8,345.86,96.89,345.74Z"/>
    <path class="cls-2" d="M59.84,291.6c-2.64.69-1.21-2.32-2.58-2.61l2.32-2c.26,1.12,1.42,1.31,2.08,2C60.39,289.35,61.73,291.75,59.84,291.6Z"/>
    <path class="cls-2" d="M48,345.9c1.33-1,2.37-.57,3.34-.65.56-.05,1.26.58,1.08.79a7.93,7.93,0,0,0-1.53,4.4c0,.09-.55.21-.83.17-.72-.08-.58-.7-.62-1.16C49.36,348.11,50,346.59,48,345.9Z"/>
    <path class="cls-1" d="M74.31,302.8c-.08,1-1,1.1-1.72,1.17-1.33.12-1.55-1.13-1.83-2-.21-.66.29-1.79.91-1.45C72.63,301,74,301.28,74.31,302.8Z"/>
    <path class="cls-1" d="M46,391.16c-1.2.89-2.32,1.37-3.22.45-1.1-1.13-.48-2.53-.28-4.05C44.33,388.38,42.1,392.48,46,391.16Z"/>
    <path class="cls-2" d="M72.2,311.94c1.08-1.08,1.32-3.14,4.06-3.25C74.39,309.74,74.21,311.73,72.2,311.94Z"/>
    <path class="cls-1" d="M41.64,403.38c-1.18-.73-1.74-1.84-1.09-3.05.55-1,1.66-.83,2.66-.33,0,1.42-1.86,1.93-1.6,3.4Z"/>
    <path class="cls-2" d="M46.55,311.58l-2,.46c1.62-3.11,1.62-3.11,3.84-2.87v0c-1.2.39-2.08,1-1.86,2.48Z"/>
    <path class="cls-2" d="M73.43,378.89c.08-.9.71-1,1.44-1-.19.73-.87.79-1.42,1Z"/>
    <path class="cls-1" d="M96.69,389.91c-.15.6-.45,1.06-1.13,1.09-.32,0-.54-.25-.36-.56.34-.59.93-.56,1.51-.51Z"/>
    <path class="cls-2" d="M21.93,333.28l-.1.19-.27-.2.19-.18Z"/>
    <path class="cls-3" d="M97.32,292c0-.5,0-1,.61-1.1.08,0,.24.09.24.15,0,.61-.34.84-.86.94Z"/>
    <path class="cls-3" d="M60.45,272.39c-.54,2.35-.89,3.94-1.28,5.51-.18.74-.56,1.4-1.46,1.18a1.24,1.24,0,0,1-.83-1.72c.75-2,1.13-3.85-.41-5.67a1,1,0,0,1,.22-1.39,1.76,1.76,0,0,1,2-.08A2.63,2.63,0,0,1,60.45,272.39Z"/>
    <path class="cls-3" d="M60.26,270A23.44,23.44,0,0,1,58,269c-.67-.42-2,.66-2.11-.94,0-.19,0-.52.11-.56,1-.38,1.64.37,2.45.61A2.5,2.5,0,0,1,60.26,270Z"/>
    <path class="cls-3" d="M37.38,334a10.21,10.21,0,0,1-.7,4.87c-.32.76-.76,1.5-1.75,1.46A1.79,1.79,0,0,1,33.36,339a15.64,15.64,0,0,1-.09-10.73,1.82,1.82,0,0,1,1.52-1.35c1-.07,1.46.71,1.75,1.45A11.89,11.89,0,0,1,37.38,334Z"/>
    <path class="cls-3" d="M53.25,378.9a.89.89,0,0,1-.38,1.22c-.28.15-.61.07-.56-.3a1,1,0,0,1,.95-.91Z"/>
    <path class="cls-3" d="M53.26,378.91l.53-.51.19.36-.73.14Z"/>
    <path class="cls-3" d="M46.51,311.61c-.22-1.46.66-2.09,1.86-2.48C48.74,310.7,47.79,311.27,46.51,311.61Z"/>
    <path class="cls-3" d="M51.4,309.14c.44,1-.27,1.42-.95,2.06-.66-1.28.3-1.6,1-2.05Z"/>
    <path class="cls-3" d="M65.52,311c.06.5-.25.62-.66.66Z"/>
    <path class="cls-3" d="M66.13,310.35q.15.81-.66.66C65.52,310.62,65.67,310.33,66.13,310.35Z"/>
    <path class="cls-3" d="M66.74,309.74c0,.45-.1.78-.66.66C66.07,310,66.19,309.62,66.74,309.74Z"/>
  </g>
</svg>
