<svg id="Layer_1" data-name="Layer 1" xmlns="http://www.w3.org/2000/svg" width="1.56in" height="6.28in" viewBox="0 0 112.43 451.95">
  <defs>
    <style>
      .cls-1 {
        fill: #fefefe;
      }

      .cls-2 {
        fill: #8babb5;
      }

      .cls-3 {
        fill: #917c0c;
      }
    </style>
  </defs>
  <g>
    <path class="cls-1" d="M93.67,447.39l.9-.12c5-2,9.82-4.26,11.64-10a45.58,45.58,0,0,0,4.43-21.52c-.38-14.69-.49-29.37-.15-44.06.93-2,.54-4.13.58-6.2.22-12.49.07-25,.31-37.48.19-10,1.14-20.18-.74-30.21-.82-4.39-2.09-8.81-2-13.21.07-10,.85-20.05,1.28-30.08.21-5,0-10.09.49-15.1.33-3.63,1.53-7.15,2-10.83.56-4.8-.94-9.15-2-13.61-1.34-5.7-2.68-11.4-4.27-17-.93-3.29-2.87-6.27-3-9.8l2.88,5.1c0-2.67-1.49-4.61-2.26-6.85a2.58,2.58,0,0,0-1.75-2.87,113.44,113.44,0,0,1-8.48-23.35c-.54-5.43-1.18-10.85-1.58-16.3-.18-2.56-1.15-5.31,1.51-8-1.68.73-2.21.64-2.31-.81-.72-10.22-1.34-20.47-2.45-30.65-.5-4.64.35-9.61-2.43-13.87l.27-.14.11.13-.14-.1c-.27-.94.55-1.58.66-2.42L87,86.26c-.61-7-1.24-13.92-1.83-20.88C84.1,53.08,84,40.7,82.26,28.45c1.23-2.4,3.25-4.69,1.09-7.58a2.2,2.2,0,0,0-1-2.07c1.25-1.26,3.87-1.72,3.51-3.91C84.79,8.13,83.5,4,75.86,2a62.67,62.67,0,0,0-30.55-.2,11.85,11.85,0,0,0-8.56,12.48,2.32,2.32,0,0,0,2,2.27c.63,1.15.21,2.33.08,3.5-1,1.48-1.61,3.14-.59,4.74,1.16,1.83.85,3.51.19,5.35-.42,1.18-1,2.38-.69,3.72A16.57,16.57,0,0,0,37.13,40c-.38,3.75-.8,7.51-1.12,11.27s-.64,7.73-.83,11.6c-.17,3.35-1.39,6.66-.39,10-1.44,2.93-1,6.1-1.2,9.2-.54,5.47-1,10.94-1.65,16.39-1.26,10.3-2.23,20.62-3.66,30.9-1.15,8.29-1.73,16.67-2.92,25-1.52,10.53-5.45,20.24-10.77,29.36C7.84,195.26,4,207.73,4.16,221.05c.29,19.51.52,39,.15,58.51-.1,5.06-.84,10.1-.39,15.18l.22.41v1.5a2.55,2.55,0,0,0-.1,2.87l0,1.29c-.3,4.36-.65,8.72-.87,13.09-.85,16.25,1.22,32.61-1.81,48.79-.08.41.43.89.48,1.36.49,4.33,1.72,8.74-1.28,12.72a2.12,2.12,0,0,0-.17,1.88c3.16-.37,1.25,2,1.41,2.89a36.79,36.79,0,0,1,.13,5.66c-1,3,1.23,6.68-1.86,9.29-.09.08,0,.66.23.8,1.45,1.11,1,2.61.88,4A3.69,3.69,0,0,0,1.07,405C1,406.35,1,407.69.9,409a1.26,1.26,0,0,0,0,1.59c-1.7,1.79-.36,3.75-.31,5.63.14,5,.15,10.06,1.8,14.81,2.47,7.07,5.39,14,13.57,16.29A100.24,100.24,0,0,0,33.8,451a203,203,0,0,0,47.82-1c4.09-.58,8.33-.58,12.11-2.66Z"/>
    <path class="cls-2" d="M101.93,183.52a2.58,2.58,0,0,1,1.75,2.87c-.21.58-.41,1.17-.62,1.75.11,3.53,2,6.51,3,9.8,1.59,5.64,2.93,11.34,4.27,17,1.06,4.46,2.56,8.81,2,13.61-.42,3.68-1.62,7.2-2,10.83-.46,5-.28,10.07-.49,15.1-.43,10-1.21,20-1.28,30.08,0,4.4,1.23,8.82,2,13.21,1.88,10,.93,20.16.74,30.21-.24,12.5-.09,25-.31,37.48,0,2.07.35,4.2-.58,6.2-.84.46-.81,1.4-.93,2.11a50.72,50.72,0,0,1-5,15.46c-4.22,8.06-9,15.58-16.68,20.8-5,3.38-9.94,6.8-15.92,8.36-10.45,2.73-20.67,2.44-30.69-1.79a60.55,60.55,0,0,1-22.54-16.16c-2-2.27-3.84-4.7-6.23-7.33.5,6.72-1.92,12.53-1.73,19.07-3.66-2.76-5.5-5.79-5.42-10a85.25,85.25,0,0,0-.26-9.59c-.2-2.19,0-4.91-3.16-5.48a36.79,36.79,0,0,0-.13-5.66c-.16-.94,1.75-3.26-1.41-2.89a2.12,2.12,0,0,1,.17-1.88c3-4,1.77-8.39,1.28-12.72-.05-.47-.56-.95-.48-1.36,3-16.18,1-32.54,1.81-48.79.22-4.37.57-8.73.87-13.1.13.62.26,1.24.4,1.86a4.8,4.8,0,0,1,.94-2c2.68-.83.83,2.7,2.46,2.8.28-5.5,3-10.48,2.92-15.94a.58.58,0,0,0,.22-.08s0-.1.05-.15l-.24.26c-.66,0-1.35-.29-.94-1.06.87-1.64,1-3.49,1.65-5.17,1.8-4.56,3.26-9.15,2.85-14.16-.25-3.07-.4-6.15-.49-9.22-.16-4.75.83-9.47.15-14.23a34.32,34.32,0,0,1,.08-8.94c.46-3.88.46-7.79-1.84-11.54-1.57,2.74-3.88,5-3.27,8.4a19.41,19.41,0,0,1,.3,6.14c-.29,2.14,0,4.38-.35,6.5-.27,1.52,2.57,2.9.1,4.36,1.48,2-.39,3.77-.44,5.67-.11,3.78-.16,7.57-.18,11.35s-1.19,7.77-.53,11.62c.58,3.44-.67,6.7.09,10.34.64,3.1-.62,7.34-2.53,10.67-.81-7.48.21-14.93.46-22.39.1-3.13-.68-6.1-.37-9.31.87-8.81.27-17.71.78-26.58A82.71,82.71,0,0,0,6,227.1a54.19,54.19,0,0,1,1.63-19c.45-1.73.42-1.53,1.92-.6,1,.66.39-.82.9-1.13.91,1.39-1.07,4.52,2.5,4.34,0,0,0,.38.06.58,1,5.87,2.46,11.7,2.89,17.61.54,7.56.34,15.18.28,22.76a146.92,146.92,0,0,0,.66,17.15c1.74-1.13,2.51-2.67,3.52-4A53.25,53.25,0,0,1,37.27,251c10.44-5.74,21.72-6.51,33.21-3.06,8.68,2.6,16.62,6.6,22.83,13.26a45.79,45.79,0,0,1,8.44,12.1c1.41,3.08,3.61,5.8,4.89,9.69.73-5.52,0-10.32.33-15.12.27-3.63.82-7.31.51-10.9a94.39,94.39,0,0,1,.38-18.12c.76-7.19,1.57-14.21.13-21.38-.37-1.84.07-3.83-3.07-3.82,3.08-.84,3.32-2.26,2.22-4.71-.57-1.28-.9-2.78-1.44-4.15-2.43-6.23-3.72-12.85-7-18.82A29.71,29.71,0,0,1,96.18,179c1.53.15,2,1.21,2.69,2C99.75,182,100.11,183.68,101.93,183.52Zm.12,2.4-.26.25.3-.21.1-.27ZM19,338.78c.28-.67-.07-1.63.9-2,2-1.55.56-3.69.93-5.52.21-1.06-.15-2.32,1.59-2.24s1.62,1.16,1.6,2.33.09,2.6,0,3.9c-.13,1.68,1.07,1.64,2.13,1.8,1.35.22,1.42-.67,1.42-1.66,0-5,0-10,.09-15,0-1.31-.32-2.08-1.85-2s-1.83.85-1.78,2.14c.05,1.5,0,3,0,4.5,0,1.19-.57,1.59-1.67,1.55s-1.5-.42-1.49-1.44c0-1.2.07-2.41,0-3.6-.09-1,.71-2.58-1.35-2.67s-1.91,1.28-1.92,2.62c-.06,4.9-.14,9.8-.2,14.69.09,1-1.15,2-.39,3,.63.8,1.2-.79,2-.39-.07,1.18-.11,2.36-.22,3.53-.13,1.33.25,2.18,1.77,1.95,1.15-.18,2-.53,1.88-2.08C22.25,339.89,21.23,338.81,19,338.78Zm65.67,22c.59.88.37,2.49,2.17,2.31.76-.08,1.26-.2,1.52-1.06.53-1.82-.87-2.45-2-3.23.74-.58,2-.1,1.91-1.33-.08-.93-.92-.87-1.62-.88-1.18,0-1.49.61-1.47,1.72,0,.81.93,1.88-.46,2.45-.58-.91-1.49-.87-2.4-.83-1.13.06-2-.23-2.06-1.57-.2-2.48-1.92-1.79-3.54-1.88-2.3-.12-1.34,1.42-1.52,2.38s.2,1.88-1.32,2.28c0-1.05,0-2,0-3,0-.79,0-1.2-1.27-1.32-4-.35-4.89.49-4.1,4.53.24,1.18,1,2.13,2,1.67,1.8-.81,3.51.17,5.29-.24,1.3-.31,2.58-.17,2.62-1.86,1.41,0,.44,1.86,1.91,1.74C80.07,358.31,82.89,360.88,84.65,360.82ZM50.38,371.64a3.82,3.82,0,0,0-.22-.78c-2.67.26-6-.95-7.06,3.23,1.77-.92,3.79,1.14,5.51-.68.56,2.28,2.07.07,3,.63h0c5.51.92,11.07.35,16.6.63,2.88.15,5.07-.67,6.3-4-2.31,2.53-4.49.43-6.72.29-3-.18-5.95,0-8.95-.24C56.11,370.5,53,369.87,50.38,371.64Zm0-66.7,0,0c-.35-.56,1.16-1.78-.4-1.77-2.62,0-5.66-.37-6.27,4.09,1.41-1.38,2.54-.15,3.84-.16,5.79,0,11.57.14,17.35,0,3.69-.12,8,1,10.28-4.12-3.52,1.64-8-1.87-10.41,3.16.06-1.17,1.09-1.76,1-2.91-2.79.11-5.54-.28-8.38-.07C54.87,303.27,52.39,302.94,50.41,304.94Zm-35.47-6c-2-3,1.6-6.18-.34-9.16-.5,0-.65.38-.8.73a59.47,59.47,0,0,0-4.29,22.15c0,11,0,22-.09,33,0,3.14-.77,6.29,1.43,9.05.45.56-.15,1.18-.47,1.05-2-.82-1.46.68-1.43,1.56.1,2.37.31,4.74.39,7.11.17,5.21,1.87,10.11,3.1,15.1a2.53,2.53,0,0,0-.16,2.57,62.21,62.21,0,0,0,6.86,14.33,34.42,34.42,0,0,0,11.8,11.48,86.42,86.42,0,0,0,15.71,7.4C57.51,419,67.88,417.7,78,412.85c1.35-.64,2.72-1.33,2.65-3.23,0-.63.47-1.36,1.11-.95,2.88,1.86,4.47-.77,6-2a64.44,64.44,0,0,0,11.93-14c5.45-8.25,6.11-17.6,7.19-26.89.26-2.26.81-4.77-.63-7-.26-5.13.46-10.3.18-15.36-.77-13.62.45-27.25-.64-40.85.3-.22.88-.5.85-.67-1-5.84-1.49-11.86-3.28-17.46a45.49,45.49,0,0,0-8.1-15.12c-4.54-5.56-9.16-10.44-15.63-13.88a43.9,43.9,0,0,0-26.89-5.18c-7.06.91-13.92,3-19.57,7.36-7.65,5.87-14.61,12.51-16.69,22.62-.1.5-.66,1,.33,1.64,3-4.88,5.95-9.72,10-13.79,12.87-13.07,28.09-17.32,45.7-11.86,8.47,2.63,15.21,8,20.59,14.92,3.66,4.74,7.08,9.67,8.54,15.64-.94.06-1.78.76-1.5,1.48.57,1.5.09,2.94.12,4.38.05,3.23.8,6.55.51,9.62-.48,5,.11,9.91,0,14.86-.12,3.46-.41,6.87.39,10.45.53,2.32-.89,5.2.55,7.78a.93.93,0,0,1-.22.83c-2.16,2.14-.39,3.75.71,5.44l0,0c-1.15.12,1.06,2.46-1.21,1.83a1.23,1.23,0,0,0-.08-.23s-.11,0-.17-.05l.29.24a4.36,4.36,0,0,0,.28,2.92c1.07,1.61,1.53,3-.67,4.09a1.16,1.16,0,0,0-.26,2c1.06.92-.06,2.54,1,3.48-1.18,1,.84,4.09-2.42,3.81-.88,0-1.31-.25-1.06-1.23.17-.66,1.49-.35,1.09-1.52-3.91-.45-1.77,2.56-2.09,3.95s.05,2.87,2.16,1.95c.31-.77-3.34-1.09-.2-2.11,1.84.37,3,1.2,2.12,3.31-.5,1.25.84,2.92-.88,3.9.86,1.19,0,2.79.62,3.81,1,1.6,2,3.36.9,4.87-1.3,1.73.59,3.7-.92,5.17l1.13.95c-6.35,18.06-26.63,34.42-50.1,29.86-17-3.3-28.84-13.26-36.81-28.28,1.43-2,.37-4.22,0-6.09a72.38,72.38,0,0,1-.72-14.84c.06-2.38,1.33-5.37.3-7-1.41-2.23,2.41-4.65-.82-6.16,0,0,.16-.64.27-.64,2.26-.08,1.11-1.73,1.1-2.64,0-1.88-.59-3.77-.47-5.63.26-4.26.8-8.51-.83-12.64a1.51,1.51,0,0,1,.11-1.08,22.58,22.58,0,0,0,.58-12.53,18.22,18.22,0,0,1-.79-6.42c.43-3.23,1.69-6.35,1.36-9.71.23-.05.56,0,.23-.41Zm48.77-34.49c0-1.7-.05-3.4,0-5.09.06-1.35-.38-2.35-1.83-1.93a18.43,18.43,0,0,1-8.58.06c-2.12-.38-2.91,1.11-2.21,3.21,1,3.1.76,6.4.63,9.57s2.27,7.53,5.43,8.15c2.39.47,5.1-2.1,6-5.61C63.86,270,63.61,267.22,63.71,264.42ZM95,328l-.73.13c-1.25-2.68-2.54-5.35-3.73-8.06a2,2,0,0,0-2.4-1.28c-1.36.17-1,1.27-1,2.1,0,4.79,0,9.58,0,14.37,0,1.42.29,2.27,2,2.22s1.6-1.06,1.65-2.22c.1-2.2-.32-4.44.4-7.33,1.6,3.2,2.91,5.74,4.14,8.33a1.9,1.9,0,0,0,2.17,1.17c1.17-.17.83-1.19.84-1.92,0-4.89,0-9.78,0-14.67,0-1.4-.46-1.94-1.9-2-1.65,0-1.38,1.05-1.39,2C95,323.26,95,325.63,95,328Zm-66.35,0c.13,1.39.15,2.8.4,4.17.53,2.87,2.2,4.71,5.21,4.94s4.9-1.48,5.86-4.18a16.41,16.41,0,0,0,.17-10.32A5.45,5.45,0,0,0,35,318.43c-2.72-.09-4.51,1.44-5.46,3.92A15.71,15.71,0,0,0,28.68,328Zm30.74-9-.81-.19c-3-.66-4.9,1.11-6.22,3.2-1.2,1.92.14,3.81,1.52,5.32.8.88,1.8,1.58,2.61,2.45s2.49,1.78,1.71,3.43-2.38,1.11-3.75,1.06c-.71,0-1.62-.73-1.83.63-.18,1.14.15,2,1.43,2.15a16.81,16.81,0,0,0,3.84.36c4.86-.54,7.24-4.15,5.48-8-.83-1.83-2.46-2.85-3.87-4.09-.91-.79-2-1.58-1.26-3,.63-1.08,1.62-1.22,2.83-.6,1,.49,1.75,0,1.89-1.14s-.35-1.77-1.46-1.81A13.45,13.45,0,0,0,59.42,319Zm22.2,18.36v0c.6,0,1.2,0,1.79,0,.93-.09,2,.6,2.71-.53a1.4,1.4,0,0,0-.14-1.69c-.83-.83-1.87-.57-2.8-.21-1.46.55-2.64,0-2.51-1.37.14-1.56-1.58-3.94,1.41-4.62.85-.19,1.88.12,1.83-1.32,0-1-.64-1.15-1.39-1.13-2.78.08-1.86-2-2-3.39-.12-2,1.43-1.43,2.52-1.5.6,0,1.2-.07,1.8-.07,1,0,1.38-.58,1.36-1.52s-.57-1.19-1.37-1.19c-2,0-4,.09-6-.05-1.69-.12-2,.66-2,2.12,0,4.58.11,9.18,0,13.76-.06,2.05.51,3,2.66,2.7A16.18,16.18,0,0,1,81.62,337.32Zm-13.2-8h0c0,1.8,0,3.6,0,5.4,0,1.28-.34,2.67,1.78,2.67,1.9,0,2.42-.87,2.37-2.6-.09-3.5,0-7-.11-10.5,0-1.49-.12-2.88,2-2.71,1.16.09,1.6-.64,1.5-1.73s-.91-1.14-1.75-1.15c-2.6,0-5.2-.09-7.81-.12-.86,0-1.6.14-1.65,1.25,0,.88.2,1.85,1.14,1.77,3-.26,2.44,1.8,2.46,3.51C68.43,326.5,68.42,327.9,68.42,329.31Zm-26.37-1.63v2.39c0,7.54,0,7.54,7.48,7.21a5.86,5.86,0,0,0,1.19-.06c1.09-.27.86-1.18.88-1.94s-.17-1.41-1.12-1.41a4.61,4.61,0,0,0-1.49.06c-2.91,1-3.33-.39-3.21-2.9.18-3.48,0-7,.06-10.46,0-1.35-.43-2-1.88-2s-2,.5-1.94,1.92C42.09,322.89,42,325.28,42.05,327.68Zm8.35,31.78c-.25,2.32.52,3.86,3.53,3.23.85-.18,2,.71,2.44-.83.25-.85.38-.55.68.09,1,2,1.59,1.52,1.74-.37s1.7-1.13,2.71-1.39c.51-.14.21-.66.17-1,0-.17-.23-.47-.32-.45-2,.29-2.74-1-3.54-2.55-.45-.88-1.59-.44-2.45-.17-.57.18-.81.94-1.78.47C50.71,355.08,50.37,357,50.4,359.46Zm-17.21,3.35c-.65-2.42-1.13-4.11-1.57-5.81-.16-.63-.42-1.2-1.13-1.15s-.58.72-.76,1.15c-.63,1.55-.34,3.5-2.05,4.82-.31-2,.22-3.95-.91-6.51-1,4-2.36,1.53-3.8.65-.11,2.24-.38,4.08.09,5.92,1.38-.16-.1-2.16,1.76-1.95,1.21.14,1.48.41,1.69,1.64.26,1.54,2.27,1.06,2.65.66C30.49,360.82,31.42,362.05,33.19,362.81Zm7.92-6.54c-2.09-.8-4.22,1-6.3-.2-.57-.32-1,.36-1.05,1.06,0,1.39-.06,2.78,0,4.17,0,.82.57,1.38,1.37,1.19a6.68,6.68,0,0,1,4.82.61c.3.15.94-.15,1.32-.4a.51.51,0,0,0-.15-.92c-2.21-.68-1.72-1.29-.05-2.08.35-.16.16-.67-.32-.86C37.46,357.57,41,357.38,41.11,356.27Zm54.79,6.2c-1.91-.21-2.09-1.4-1.87-2.66.35-2-.39-2.77-2.42-2.93-1.36-.11-2.33.05-2.24,1.47.1,1.63-1.06,4,1.16,4.65A6.06,6.06,0,0,0,95.9,362.47ZM65.44,342c0,1.52-.32,3.2,1.9,3,1.3-.09,2.7-.36,2.51-2.24s-.29-3.66-2.88-3.55C64.75,339.3,65.67,341,65.44,342Zm13.25-1.83c.56-1.5-.27-1.46-1.33-1.27-1.52.28-1.86,1.34-1.77,2.63.11,1.56.2,3.23,1.59,4.24.5.37,1.44-.42,1.19-.84C77.32,343.16,78.62,341.7,78.69,340.14Zm9.38,2c-.08-1.45-.17-2.54-1.48-3-.49-.15-1-.33-1.34.15a2.29,2.29,0,0,0,.2,2.73,1.66,1.66,0,0,1,.26,1.65c-.26.7-.82,1.58.33,2,1.42.46,1.24-.87,1.5-1.6A17.58,17.58,0,0,0,88.07,342.13ZM41.42,342c0-1.5-.71-2.56-2.23-2.57-1.1,0-2.13,1.1-1.45,2s-1.69,3.22,1.39,3.26C41.24,344.67,41.34,343.45,41.42,342ZM28,341.72c.52.78-.88,2.87,1.63,2.78,1.76-.06,2.05-1.26,2-2.63s-.75-2.57-2.26-2.57C28.12,339.29,27.5,340.15,28,341.72Zm39.86,15.39c-.69-.51-.85-1.57-1.92.11-.77,1.21-.67-1-1.47-1-.46,0-.75,0-.89.48a1,1,0,0,0,0,.58c.47,1.71,1.34,3.31,1.32,5.15a.66.66,0,0,0,.84.6c.25-.05.63-.34.63-.52A14.49,14.49,0,0,1,67.89,357.11Zm5.32-76.7c1.36.81.6,3.28,2.88,2.67,1.46-.39.1-2.2,1.39-2.63l-2-1.85C75.2,279.63,74.25,280,73.21,280.41ZM43,282.93c.56-.39-.12-1.74.79-2.09l-1.74-2.14-2,1.89C41.4,280.8,39.82,284.23,43,282.93Zm53.45,60.23c.16-1.55.54-3.45-1.7-3.31s-.88,2.13-1.18,3.28c-.51,1.91.8,1.78,2.07,1.86C97.83,345.11,96.17,343.68,96.49,343.16ZM58.92,286.49c3.3,1.78.77-1.6,1.8-2.28s-1.7-1-1.7-2.27l-2.4,1.93C58.15,284.07,56,287.47,58.92,286.49ZM47.16,362.54c1.17-.66.34-2.53,2.06-2.45.31,0,.72-.68.21-.86-3.18-1.15-.19-1.84.45-2.65C46.46,355.73,45.91,357,47.16,362.54Zm3-23.3c-3.06-.44-1.74,1-1.17,2.19.46.94-.79,2.81.87,2.88s1.14-1.48.78-2.56c0-.13.13-.38.26-.49C53.3,339.39,51.4,339.42,50.2,339.24ZM42.78,393c-1.05-.06-2.36-.8-2.57.93-.06.43.19,1.3.35,1.31C42,395.3,42.3,394.07,42.78,393ZM95.5,282.81a3.82,3.82,0,0,0-1,3.43.84.84,0,0,0,.69.35c1.27-.79.73-2.08.81-3.19C96,283.27,95.77,283.13,95.5,282.81Zm-16.26,92a1.17,1.17,0,0,0,1-1.2c.06-.67-.42-.79-.94-.77s-1.22.17-1.25.9S78.66,374.69,79.24,374.83ZM11.65,285.49c-.06.07-.15.14-.16.22a.68.68,0,0,0,.11.25c.06-.07.15-.14.16-.22A.68.68,0,0,0,11.65,285.49Z"/>
    <path class="cls-3" d="M5.34,300.63a4.8,4.8,0,0,0-.94,2c-.14-.62-.27-1.24-.4-1.86l0-1.28a4.48,4.48,0,0,0,.1-2.87c0-.5,0-1,0-1.49l-.22-.42c-.45-5.08.29-10.12.39-15.18.37-19.51.14-39-.15-58.51C4,207.73,7.84,195.26,14.59,183.69c5.32-9.12,9.25-18.83,10.77-29.36,1.19-8.29,1.77-16.67,2.92-25,1.43-10.28,2.4-20.6,3.66-30.9.66-5.45,1.11-10.92,1.65-16.39,1-.29.43-1.68,1.3-2.06,1,.88.79,2,.68,3.17,2-.41,3.91.4,5.6.32,1.91-.09,3.11-2.51,3.87-4.34.69-1.67-.95-2.54-2.39-3.33,1.16-1,1.64-2,2.61.13,2.19,4.74,4,4.89,7.39,1,1-1.09,1.85-.93,3.2-.83-.52.72-.79.83-1.25.85-2.11.14-2.34,1.9-2.41,3.38s1.44.44,2.15.68c3,1,6-.8,9.08-.27,1.53.26,2,.72,1.49,2.44,1.22-.88,2.7-1,3.34-2.4-.83-.79-2-.59-2.66-1.72a6.87,6.87,0,0,1,6-.83c1.92.66,4-.08,5.61-1,.73-.43,1.16-1.47,1.88-.46a1.49,1.49,0,0,1-.44,2.35c-1.74.91-1.19,1.7.36,2.22-.42,1.06-2,.39-2.32,1.87a5.25,5.25,0,0,1,5.9,1.24c.21.22.39.49.62.27,2.46-2.36,2.71.62,3.81,1.55,0,.58.07,1.16.11,1.74H79.84c-.31-.15-.61-.3-.92-.43a1.58,1.58,0,0,0-.16.26l1.09.16c3.45,1.35,3.65,1.91,2.74,8.25-1.15-2.34-.43-4.81-2.07-6.69,1.25,3.54.15,7.25,1.23,10.77,0,.13.33.19.5.28l.18.14-.2-.12c.3-.63.6-1.25,1.07-2.25.24,2.65.37,4.8.45,7,.24,7,.73,13.93,1.51,20.85.83,7.36-.47,15,2.9,22,.1.23.14.22-.1.4-1.91,1.4-.77,3.19-.59,4.86.23,2.08.46,4.15.64,6.23a1.09,1.09,0,0,1-.92,1.31c-.54.09-.6-.4-.69-.78-.26-1-.31-2.62-1.69-2.3s-.51,1.89-.67,2.89a5.25,5.25,0,0,0,0,2.09c.68,2.64.11,5.69,2.25,8,1.64-1.31-.46-3.25,1.43-4.62,0,2.05,2.73,1.95,2.51,3.84-.15,1.26-.1,2.4,1.26,2.38S93,171.15,93,170c.1-3.27-.34-6.56.41-9.81a113.44,113.44,0,0,0,8.48,23.35c-1.82.16-2.18-1.54-3.06-2.5-.72-.81-1.16-1.87-2.69-2A29.71,29.71,0,0,0,98.69,186c3.29,6,4.58,12.59,7,18.82.54,1.37.87,2.87,1.44,4.15,1.1,2.45.86,3.87-2.22,4.71,3.14,0,2.7,2,3.07,3.82,1.44,7.17.63,14.19-.13,21.38a94.39,94.39,0,0,0-.38,18.12c.31,3.59-.24,7.27-.51,10.9-.35,4.8.4,9.6-.33,15.12-1.28-3.89-3.48-6.61-4.89-9.69a45.79,45.79,0,0,0-8.44-12.1c-6.21-6.66-14.15-10.66-22.83-13.26C59,244.47,47.71,245.24,37.27,251a53.25,53.25,0,0,0-16.9,13.85c-1,1.31-1.78,2.85-3.52,4a146.92,146.92,0,0,1-.66-17.15c.06-7.58.26-15.2-.28-22.76C15.48,223,14,217.16,13,211.29c0-.2,0-.58-.06-.58-3.57.18-1.59-3-2.5-4.34-.51.31.15,1.79-.9,1.13-1.5-.93-1.47-1.13-1.92.6A54.19,54.19,0,0,0,6,227.1,82.71,82.71,0,0,1,6.27,240c-.51,8.87.09,17.77-.78,26.58-.31,3.21.47,6.18.37,9.31-.25,7.46-1.27,14.91-.46,22.39-.05.22-.11.43-.16.65l-.37.26.49.36,0,0,0,.7A.93.93,0,0,0,5.34,300.63ZM49.05,111.91a1.25,1.25,0,0,0,1.42-1.17c.05-1-1-1.16-1.7-1.25a1.4,1.4,0,0,0-1.54,1.44C47.18,111.87,48,111.86,49.05,111.91ZM34.37,101.36a11.59,11.59,0,0,1-.73,3.85c-.3.77-.46,2,.84,2s.76-1.17.77-1.85C35.27,104.27,35.78,103.06,34.37,101.36Zm48.31,3.46c-.16-1-.33-1.92-.5-2.89A2.18,2.18,0,0,0,82.68,104.82Z"/>
    <path class="cls-3" d="M1.89,387.2c3.21.57,3,3.29,3.16,5.48a85.25,85.25,0,0,1,.26,9.59c-.08,4.16,1.76,7.19,5.42,10-.19-6.54,2.23-12.35,1.73-19.07,2.39,2.63,4.25,5.06,6.23,7.33a60.55,60.55,0,0,0,22.54,16.16c10,4.23,20.24,4.52,30.69,1.79,6-1.56,10.91-5,15.92-8.36,7.73-5.22,12.46-12.74,16.68-20.8a50.72,50.72,0,0,0,5-15.46c.12-.71.09-1.65.93-2.11-.34,14.69-.23,29.37.15,44.06a45.7,45.7,0,0,1-4.42,21.52l-2.92,1.43c-1.27.62-3.12,1.45-3,2.64.26,2.88-2,2.85-3.48,3.66-1.22.65-2.54,1.1-3.81,1.67-.24.1-.94.26-.15.63a2.51,2.51,0,0,0,.88.06c-3.78,2.08-8,2.08-12.11,2.66a203,203,0,0,1-47.82,1,100.24,100.24,0,0,1-17.87-3.63C7.75,445,4.83,438.13,2.36,431.06.71,426.31.7,421.25.56,416.25c-.05-1.88-1.39-3.84.31-5.63A1.4,1.4,0,0,0,.9,409c.06-1.34.11-2.68.17-4s.05-2.46.07-3.69c.12-1.43.57-2.93-.88-4-.19-.14-.32-.72-.23-.8C3.12,393.88.9,390.22,1.89,387.2Z"/>
    <path class="cls-2" d="M87,86.26c-1.1-.93-1.35-3.91-3.81-1.55-.23.22-.41,0-.62-.27a5.25,5.25,0,0,0-5.9-1.24c.31-1.48,1.9-.81,2.32-1.87-1.55-.52-2.1-1.31-.36-2.22a1.49,1.49,0,0,0,.44-2.35c-.72-1-1.15,0-1.88.46-1.64,1-3.69,1.69-5.61,1a6.87,6.87,0,0,0-6,.83c.61,1.13,1.83.93,2.66,1.72-.64,1.39-2.12,1.52-3.34,2.4.54-1.72,0-2.18-1.49-2.44-3.11-.53-6.11,1.31-9.08.27-.71-.24-2.22.94-2.15-.68s.3-3.24,2.41-3.38c.46,0,.73-.13,1.25-.85-1.35-.1-2.24-.26-3.2.83-3.44,3.91-5.2,3.76-7.39-1-1-2.12-1.45-1.1-2.61-.13,1.44.79,3.08,1.66,2.39,3.33-.76,1.83-2,4.25-3.87,4.34-1.69.08-3.59-.73-5.6-.32.11-1.19.28-2.29-.68-3.17-.87.38-.27,1.77-1.3,2.06.15-3.1-.24-6.27,1.2-9.2,1,.19,2.1.59,2.26-1,.43-4.41,1-8.83.44-13.31a24.5,24.5,0,0,1-1.59,5.27c1.43-8.89.33-17.24,3.21-25.29-1.37.09-1.37,1.08-2,1.4a16.57,16.57,0,0,1,.62-6.11c2.58,0,4.72-.56,4.78-3.76,0-1.35.5-2.17,2-2.33.8-.08,2.19,0,2.19-1A4.25,4.25,0,0,0,45.34,24c-.86-.81-2.13.24-3.2-.05.11-2.24.11-2.24-3.3-3.94.13-1.17.55-2.35-.08-3.5,1.51,1.89,2.89,2.43,4-.34,0-.12.34-.15.51-.22.25.82-.47,2.24,1.16,2.22s1.61-1.53,2-2.54.43-2.18-1.26-2.18c.26-.14.51-.39.78-.4,12.54-.72,24.86-.08,36.38,5.72a2.2,2.2,0,0,1,1,2.07c-.29-.06-.8-.23-.84-.16-1.3,2.59-3.56,1.63-5.58,1.56.81-1,2.33,0,3.13-1.07-1.93-4.19-1.93-4.19-4.82-1a5,5,0,0,0-.34.46c-1.91-1.8-4.39-1.72-6.74-2A75.53,75.53,0,0,0,49,18.69c-.64.09-2.19.65-1.32,1.06,1.77.83,2.4,3.36,4.64,3.12,7-.77,14,.91,21,.32a2.78,2.78,0,0,1,2.85,1.14c1.31,2.58,4,2.94,6.1,4.12C84,40.7,84.1,53.08,85.15,65.38,85.74,72.34,86.37,79.3,87,86.26ZM43.79,38.74c-1,.17-1.18.92-1.15,1.78.17,5.4-.62,10.72-1.16,16.06-.26,2.54-1.55,4.93-1.18,8.1a38.5,38.5,0,0,0,2.29-7.58c.88-6.11.54-12.28,1.17-18.39.2-.18.81.29.68-.42ZM54,53.4c-1,.72-.08,2.24-1.15,2.68-1.94.79-2.92,2.41-4.27,3.8a8,8,0,0,0-2.34,6.3c0,7.15,0,7.15,7.2,5.28-.19-1.09-1.57-2.16-.66-3.23,2.94-3.42,2.88-7.45,3.1-11.61C56,54.65,55.44,54,54,53.4ZM77.9,35.91a65.22,65.22,0,0,0,.48,9.38c.56,5,1.35,10,.51,15.16a37.6,37.6,0,0,0,.38,12.42c.29,1.71,1.33,1.88,2.54,1.77,1.44-.14,1-1.28.75-2.08-.53-2-.23-4-.39-6-.32-4.26,1.18-8.53-.08-12.77-1.42-4.76-2.4-9.56-1.62-14.57C80.76,37.42,80,36.18,77.9,35.91ZM61.67,33.45a70.73,70.73,0,0,1,11.06-.68,3.47,3.47,0,0,0,3-1.7c.26-.34.52-.73.19-1s-1-.31-1-.18c-1.5,2.35-4,1.68-6,1.79-7.5.42-15.19,1.92-22.14-2.55-.41-.26-.79-.69-1.25-.09a.89.89,0,0,0,.27,1.5A22.74,22.74,0,0,0,49.25,32C53.3,33.22,57.54,32.79,61.67,33.45ZM63.9,62.07c1.8.1,4.48,2.57,3.33-1.94-.29-1.15-.68-3.09,1.48-4.34s-1.8-2.14-1-3.82c.14-.3-.38-.9-1-.91-.16,0-.46.14-.47.25-.19,1.16-1.34,2-1.08,3.31A9.83,9.83,0,0,1,63.9,62.07Zm6,7.5a41.78,41.78,0,0,0-.39-4.36c-.34-1.81-1.27-2-2.66-.77-.74.62-1,1.36-.62,2.06C67.1,67.88,67.36,70.08,69.93,69.57ZM61.6,26.76c-2.84-2.33-5.72-2.07-8.55-2a.76.76,0,0,0-.72,1c.11.34.56.9.67.86C55.71,25.65,58.3,28.2,61.6,26.76Zm6.86,16.41c.23-1.19-.77-1.75-2.09-2-2.1-.31-1.18,1.57-1.23,2.21A2.65,2.65,0,0,0,67.36,46C68.28,46.13,68.39,44.58,68.46,43.17ZM67,72.1c1,.57,1.62,1.15,2.39.41a.86.86,0,0,0,.08-.8C68.57,70.8,67.86,71.49,67,72.1Zm6-11a.75.75,0,0,0,.08-.24s-.13-.05-.2-.07a.55.55,0,0,0-.07.23S72.92,61.09,73,61.12Z"/>
    <path class="cls-3" d="M82.39,18.8C70.87,13,58.55,12.36,46,13.08c-.27,0-.52.26-.77.4-.65.27-1.7-.21-1.89,1L43.27,16h0c-.17.07-.46.1-.51.22-1.13,2.77-2.51,2.23-4,.34a2.32,2.32,0,0,1-2-2.27A11.85,11.85,0,0,1,45.31,1.79,62.67,62.67,0,0,1,75.86,2c7.64,2,8.93,6.14,10,12.9C86.26,17.08,83.64,17.54,82.39,18.8Z"/>
    <path class="cls-2" d="M93.45,160.17c-.75,3.25-.31,6.54-.41,9.81,0,1.17-.1,2.5-1.45,2.52s-1.41-1.12-1.26-2.38c.22-1.89-2.51-1.79-2.51-3.84-1.89,1.37.21,3.31-1.43,4.62-2.14-2.29-1.57-5.34-2.25-8a5.25,5.25,0,0,1,0-2.09c.16-1-.64-2.6.67-2.89s1.43,1.27,1.69,2.3c.09.38.15.87.69.78a1.09,1.09,0,0,0,.92-1.31c-.18-2.08-.41-4.15-.64-6.23-.18-1.67-1.32-3.46.59-4.86.24-.18.2-.17.1-.4-3.37-7-2.07-14.66-2.9-22-.78-6.92-1.27-13.89-1.51-20.85-.08-2.17-.21-4.32-.45-7-.47,1-.77,1.62-1.07,2.25l0,0c-.17-.09-.46-.15-.5-.28-1.08-3.52,0-7.23-1.23-10.77,1.64,1.88.92,4.35,2.07,6.69.91-6.34.71-6.9-2.74-8.25h7.24c-.11.84-.93,1.48-.66,2.42l0,0-.26.14c2.78,4.26,1.93,9.23,2.43,13.87,1.11,10.18,1.73,20.43,2.45,30.65.1,1.45.63,1.54,2.31.81-2.66,2.7-1.69,5.45-1.51,8C92.27,149.32,92.91,154.74,93.45,160.17Z"/>
    <path class="cls-3" d="M76.93,22.27c2,.07,4.28,1,5.58-1.56,0-.07.55.1.84.16,2.16,2.89.14,5.18-1.09,7.58-2.15-1.18-4.79-1.54-6.1-4.12a2.78,2.78,0,0,0-2.85-1.14c-7,.59-13.94-1.09-21-.32-2.24.24-2.87-2.29-4.64-3.12-.87-.41.68-1,1.32-1.06a75.53,75.53,0,0,1,19.12-.05c2.35.26,4.83.18,6.74,2l-.48.81c-.41-.09-.85,0-.86.44s.42.47.8.34Z"/>
    <path class="cls-3" d="M38.84,20c3.41,1.7,3.41,1.7,3.3,3.94,1.07.29,2.34-.76,3.2.05a4.25,4.25,0,0,1,1.4,2.72c0,1.06-1.39.93-2.19,1-1.52.16-2,1-2,2.33-.06,3.2-2.2,3.76-4.78,3.76-.33-1.34.27-2.54.69-3.72.66-1.84,1-3.52-.19-5.35C37.23,23.18,37.85,21.52,38.84,20Z"/>
    <path class="cls-3" d="M37.13,40c.61-.32.61-1.31,2-1.4-2.88,8-1.78,16.4-3.21,25.29a24.5,24.5,0,0,0,1.59-5.27c.54,4.48,0,8.9-.44,13.31-.16,1.58-1.28,1.18-2.26,1-1-3.39.22-6.7.39-10,.19-3.87.49-7.74.83-11.6S36.75,43.71,37.13,40Z"/>
    <path class="cls-2" d="M93.73,447.37a2.51,2.51,0,0,1-.88-.06c-.79-.37-.09-.53.15-.63,1.27-.57,2.59-1,3.81-1.67,1.52-.81,3.74-.78,3.48-3.66-.11-1.19,1.74-2,3-2.64l2.92-1.43c-1.83,5.73-6.64,8-11.64,10-.4-.69-.67-.37-.91.12Z"/>
    <path class="cls-3" d="M103.06,188.14c.21-.58.41-1.17.62-1.75.77,2.24,2.28,4.18,2.26,6.85Z"/>
    <path class="cls-2" d="M1.14,401.33c0,1.23,0,2.46-.07,3.69A3.69,3.69,0,0,1,1.14,401.33Z"/>
    <path class="cls-2" d="M4.13,296.65a4.48,4.48,0,0,1-.1,2.87A2.55,2.55,0,0,1,4.13,296.65Z"/>
    <path class="cls-2" d="M.9,409a1.4,1.4,0,0,1,0,1.59A1.26,1.26,0,0,1,.9,409Z"/>
    <path class="cls-3" d="M93.67,447.39c.24-.49.51-.81.91-.12Z"/>
    <path class="cls-2" d="M3.92,294.74l.22.42Z"/>
    <polygon class="cls-2" points="86.43 90.42 86.57 90.52 86.45 90.39 86.43 90.42"/>
    <path class="cls-1" d="M105.78,302.55c1.09,13.6-.13,27.23.64,40.85.28,5.06-.44,10.23-.18,15.36-.27,8.22-1.23,16.3-4.49,23.95l-1.13-.95c1.51-1.47-.38-3.44.92-5.17,1.13-1.51.12-3.27-.9-4.87-.64-1,.24-2.62-.62-3.81,1.72-1,.38-2.65.88-3.9.83-2.11-.28-2.94-2.11-3.31a.63.63,0,0,0,.09-1c3.26.28,1.24-2.77,2.42-3.81-1.11-.94,0-2.56-1-3.48a1.16,1.16,0,0,1,.26-2c2.2-1.13,1.74-2.48.67-4.09a4.36,4.36,0,0,1-.28-2.92l0,0c2.27.63.06-1.71,1.21-1.83.44-.27.76-.62.57-1.19,0-.1-.26-.13-.39-.19l-.15,1.41c-1.1-1.69-2.87-3.3-.71-5.44a.93.93,0,0,0,.22-.83c-1.44-2.58,0-5.46-.55-7.78-.8-3.58-.51-7-.39-10.45.16-4.95-.43-9.86,0-14.86.29-3.07-.46-6.39-.51-9.62,0-1.44.45-2.88-.12-4.38-.28-.72.56-1.42,1.5-1.48A66.5,66.5,0,0,1,105.78,302.55Z"/>
    <path class="cls-3" d="M105.78,302.55a66.5,66.5,0,0,0-4.19-15.78c-1.46-6-4.88-10.9-8.54-15.64-5.38-7-12.12-12.29-20.59-14.92-17.61-5.46-32.83-1.21-45.7,11.86-4,4.07-7,8.91-10,13.79-1-.62-.43-1.14-.33-1.64,2.08-10.11,9-16.75,16.69-22.62,5.65-4.33,12.51-6.45,19.57-7.36a43.9,43.9,0,0,1,26.89,5.18c6.47,3.44,11.09,8.32,15.63,13.88a45.49,45.49,0,0,1,8.1,15.12c1.79,5.6,2.27,11.62,3.28,17.46C106.66,302.05,106.08,302.33,105.78,302.55Z"/>
    <path class="cls-3" d="M101.75,382.71c3.26-7.65,4.22-15.73,4.49-23.95,1.44,2.21.89,4.72.63,7-1.08,9.29-1.74,18.64-7.19,26.89a64.44,64.44,0,0,1-11.93,14c-1.5,1.27-3.09,3.9-6,2-.64-.41-1.13.32-1.11.95.07,1.9-1.3,2.59-2.65,3.23-10.14,4.85-20.51,6.13-31.37,2.44a86.42,86.42,0,0,1-15.71-7.4,34.42,34.42,0,0,1-11.8-11.48,62.21,62.21,0,0,1-6.86-14.33,2.53,2.53,0,0,1,.16-2.57l2.4,4.78c8,15,19.83,25,36.81,28.28C75.12,417.13,95.4,400.77,101.75,382.71Z"/>
    <path class="cls-1" d="M14.84,384.29l-2.4-4.78c-1.23-5-2.93-9.89-3.1-15.1-.08-2.37-.29-4.74-.39-7.11,0-.88-.59-2.38,1.43-1.56.32.13.92-.49.47-1.05-2.2-2.76-1.47-5.91-1.43-9.05.12-11,.05-22,.09-33a59.47,59.47,0,0,1,4.29-22.15c.15-.35.3-.75.81-.73,1.93,3-1.67,6.17.33,9.16l0,0c.33,3.36-.93,6.48-1.36,9.71a18.22,18.22,0,0,0,.79,6.42,22.58,22.58,0,0,1-.58,12.53,1.51,1.51,0,0,0-.11,1.08c1.63,4.13,1.09,8.38.83,12.64-.12,1.86.44,3.75.47,5.63,0,.91,1.16,2.56-1.1,2.64-.11,0-.28.64-.27.64,3.23,1.51-.59,3.93.82,6.16,1,1.61-.24,4.6-.3,7a72.38,72.38,0,0,0,.72,14.84C15.21,380.07,16.27,382.29,14.84,384.29Z"/>
    <path class="cls-1" d="M5.24,298.9c0-.22.11-.43.16-.65,1.91-3.33,3.17-7.57,2.53-10.67-.76-3.64.49-6.9-.09-10.34-.66-3.85.5-7.73.53-11.62s.07-7.57.18-11.35c0-1.9,1.92-3.65.44-5.67,2.47-1.46-.37-2.84-.1-4.36.37-2.12.06-4.36.35-6.5a19.41,19.41,0,0,0-.3-6.14c-.61-3.45,1.7-5.66,3.27-8.4,2.3,3.75,2.3,7.66,1.84,11.54a34.32,34.32,0,0,0-.08,8.94c.68,4.76-.31,9.48-.15,14.23.09,3.07.24,6.15.49,9.22.41,5-1.05,9.6-2.85,14.16-.66,1.68-.78,3.53-1.65,5.17-.41.77.28,1,.94,1.06l0,0c.08,5.46-2.64,10.44-2.92,15.94-1.63-.1.22-3.63-2.46-2.8a.93.93,0,0,1,0-.44l.36-.51-.39-.19,0,0a.68.68,0,0,0,0-.22A2.83,2.83,0,0,0,5.24,298.9Z"/>
    <path class="cls-3" d="M63.71,264.42c-.1,2.8.15,5.6-.56,8.36-.89,3.51-3.6,6.08-6,5.61-3.16-.62-5.56-4.83-5.43-8.15s.39-6.47-.63-9.57c-.7-2.1.09-3.59,2.21-3.21a18.43,18.43,0,0,0,8.58-.06c1.45-.42,1.89.58,1.83,1.93C63.66,261,63.71,262.72,63.71,264.42Zm-4.12,4.14a2.11,2.11,0,0,0-1.65-2.69c-.54-.17-1-.78-1.62-.29a1,1,0,0,0-.3,1.34,4.8,4.8,0,0,1,.34,5.56,1.16,1.16,0,0,0,.84,1.65c.91.19,1.21-.49,1.38-1.21C58.93,271.47,59.25,270,59.59,268.56Zm-.06-3.72c-1.1-1.62-2.53-1.73-3.79-2.14,0,0-.29.32-.26.45.39,1.7,2.22.25,2.94,1.31C58.53,264.63,58.88,264.63,59.53,264.84Z"/>
    <path class="cls-3" d="M95,328c0-2.37,0-4.74,0-7.11,0-1-.26-2,1.39-2,1.44,0,1.92.56,1.9,2,0,4.89,0,9.78,0,14.67,0,.73.33,1.75-.84,1.92a1.9,1.9,0,0,1-2.17-1.17c-1.23-2.59-2.54-5.13-4.14-8.33-.72,2.89-.3,5.13-.4,7.33,0,1.16,0,2.18-1.65,2.22s-2-.8-2-2.22c0-4.79,0-9.58,0-14.37,0-.83-.35-1.93,1-2.1a2,2,0,0,1,2.4,1.28c1.19,2.71,2.48,5.38,3.73,8.06Z"/>
    <path class="cls-3" d="M28.68,328a15.71,15.71,0,0,1,.87-5.62c.95-2.48,2.74-4,5.46-3.92a5.45,5.45,0,0,1,5.31,4.15,16.41,16.41,0,0,1-.17,10.32c-1,2.7-2.81,4.41-5.86,4.18s-4.68-2.07-5.21-4.94C28.83,330.77,28.81,329.36,28.68,328Zm8.39.73a16.26,16.26,0,0,0-.48-5.16c-.28-1-.59-2.14-1.74-2.16-1.33,0-1.76,1.17-1.92,2.31a24.93,24.93,0,0,0-.42,4.46c.09,2.22-.18,5.8,2.27,5.76C37.72,333.87,36.75,330.21,37.07,328.7Z"/>
    <path class="cls-3" d="M17.35,336.16c.06-4.89.14-9.79.2-14.69,0-1.34-.07-2.7,1.92-2.62s1.26,1.64,1.35,2.67c.1,1.19,0,2.4,0,3.6,0,1,.52,1.4,1.49,1.44S24,326.2,24,325c0-1.5,0-3,0-4.5-.05-1.29.28-2.08,1.78-2.14s1.87.7,1.85,2c-.05,5-.07,10-.09,15,0,1-.07,1.88-1.42,1.66-1.06-.16-2.26-.12-2.13-1.8.1-1.3,0-2.6,0-3.9s0-2.26-1.6-2.33-1.38,1.18-1.59,2.24c-.37,1.83,1.06,4-.93,5.52C19.33,335.35,18.33,335.8,17.35,336.16Z"/>
    <path class="cls-3" d="M59.42,319a13.45,13.45,0,0,1,2.11-.23c1.11,0,1.58.73,1.46,1.81s-.93,1.63-1.89,1.14c-1.21-.62-2.2-.48-2.83.6-.78,1.38.35,2.17,1.26,3,1.41,1.24,3,2.26,3.87,4.09,1.76,3.89-.62,7.5-5.48,8a16.81,16.81,0,0,1-3.84-.36c-1.28-.16-1.61-1-1.43-2.15.21-1.36,1.12-.66,1.83-.63,1.37,0,3,.51,3.75-1.06s-.81-2.47-1.71-3.43-1.81-1.57-2.61-2.45c-1.38-1.51-2.72-3.4-1.52-5.32,1.32-2.09,3.27-3.86,6.22-3.2Z"/>
    <path class="cls-3" d="M81.62,337.32a16.18,16.18,0,0,0-2.09,0c-2.15.3-2.72-.65-2.66-2.7.14-4.58.08-9.18,0-13.76,0-1.46.31-2.24,2-2.12,2,.14,4,0,6,.05.8,0,1.36.27,1.37,1.19s-.32,1.53-1.36,1.52c-.6,0-1.2,0-1.8.07-1.09.07-2.64-.53-2.52,1.5.09,1.4-.83,3.47,2,3.39.75,0,1.35.15,1.39,1.13,0,1.44-1,1.13-1.83,1.32-3,.68-1.27,3.06-1.41,4.62-.13,1.35,1,1.92,2.51,1.37.93-.36,2-.62,2.8.21a1.4,1.4,0,0,1,.14,1.69c-.66,1.13-1.78.44-2.71.53-.59.05-1.19,0-1.79,0Z"/>
    <path class="cls-3" d="M50.41,304.94c2-2,4.46-1.67,7-1.85,2.84-.21,5.59.18,8.38.07.08,1.15-1,1.74-1,2.91,2.37-5,6.89-1.52,10.41-3.16-2.23,5.16-6.59,4-10.28,4.12-5.78.18-11.56,0-17.35,0-1.3,0-2.43-1.22-3.84.16.61-4.46,3.65-4.07,6.27-4.09,1.56,0,.05,1.21.4,1.77-.28,0-.61.07-.26.46Z"/>
    <path class="cls-3" d="M68.42,329.31c0-1.41,0-2.81,0-4.21,0-1.71.55-3.77-2.46-3.51-.94.08-1.18-.89-1.14-1.77.05-1.11.79-1.26,1.65-1.25,2.61,0,5.21.09,7.81.12.84,0,1.65,0,1.75,1.15s-.34,1.82-1.5,1.73c-2.17-.17-2.07,1.22-2,2.71.07,3.5,0,7,.11,10.5,0,1.73-.47,2.59-2.37,2.6-2.12,0-1.78-1.39-1.78-2.67,0-1.8,0-3.6,0-5.4Z"/>
    <path class="cls-3" d="M42.05,327.68c0-2.4,0-4.79,0-7.18,0-1.42.53-1.93,1.94-1.92s1.9.64,1.88,2c-.05,3.49.12,7-.06,10.46-.12,2.51.3,3.92,3.21,2.9a4.61,4.61,0,0,1,1.49-.06c1,0,1.14.64,1.12,1.41s.21,1.67-.88,1.94a5.86,5.86,0,0,1-1.19.06c-7.49.33-7.49.33-7.48-7.21Z"/>
    <path class="cls-3" d="M51.61,374c-.93-.56-2.44,1.65-3-.63l0,0c1.25,0,1.71-.75,1.84-1.84l0,0c2.64-1.77,5.73-1.14,8.44-.89,3,.26,6,.06,8.95.24,2.23.14,4.41,2.24,6.72-.29-1.23,3.29-3.42,4.11-6.3,4-5.53-.28-11.09.29-16.6-.63a3.34,3.34,0,0,0,1.85-2.39C52.38,372.33,51.59,372.89,51.61,374Z"/>
    <path class="cls-3" d="M84.65,360.82c-1.76.06-4.58-2.51-4.42,1.87-1.47.12-.5-1.74-1.91-1.74,0,1.69-1.32,1.55-2.62,1.86-1.78.41-3.49-.57-5.29.24-1,.46-1.73-.49-2-1.67-.79-4,.12-4.88,4.1-4.53,1.29.12,1.25.53,1.27,1.32,0,1,0,2,0,3,1.52-.4,1.16-1.45,1.32-2.28s-.78-2.5,1.52-2.38c1.62.09,3.34-.6,3.54,1.88.11,1.34.93,1.63,2.06,1.57.91,0,1.82-.08,2.4.83Z"/>
    <path class="cls-3" d="M50.4,359.46c0-2.46.31-4.38,3.18-3,1,.47,1.21-.29,1.78-.47.86-.27,2-.71,2.45.17.8,1.54,1.52,2.84,3.54,2.55.09,0,.3.28.32.45,0,.35.34.87-.17,1-1,.26-2.55-.65-2.71,1.39s-.79,2.35-1.74.37c-.3-.64-.43-.94-.68-.09-.45,1.54-1.59.65-2.44.83C50.92,363.32,50.15,361.78,50.4,359.46Zm2,2.27c.39-1.7.91-2.83.23-4-.05-.09-.46-.12-.5-.05C51.48,358.77,51.52,359.93,52.44,361.73Z"/>
    <path class="cls-3" d="M33.19,362.81c-1.77-.76-2.7-2-4-.58-.38.4-2.39.88-2.65-.66-.21-1.23-.48-1.5-1.69-1.64-1.86-.21-.38,1.79-1.76,1.95-.47-1.84-.2-3.68-.09-5.92,1.44.88,2.83,3.32,3.8-.65,1.13,2.56.6,4.47.91,6.51,1.71-1.32,1.42-3.27,2.05-4.82.18-.43.16-1.1.76-1.15s1,.52,1.13,1.15C32.06,358.7,32.54,360.39,33.19,362.81Z"/>
    <path class="cls-3" d="M41.11,356.27c-.1,1.11-3.65,1.3-.39,2.57.48.19.67.7.32.86-1.67.79-2.16,1.4.05,2.08a.51.51,0,0,1,.15.92c-.38.25-1,.55-1.32.4a6.68,6.68,0,0,0-4.82-.61c-.8.19-1.34-.37-1.37-1.19,0-1.39,0-2.78,0-4.17,0-.7.48-1.38,1.05-1.06C36.89,357.26,39,355.47,41.11,356.27Zm-5.84.71c-.43,1.73-.82,2.88,0,4a.58.58,0,0,0,1-.18C36.81,359.51,36.63,358.38,35.27,357Z"/>
    <path class="cls-3" d="M95.9,362.47a6.06,6.06,0,0,1-5.37.53c-2.22-.62-1.06-3-1.16-4.65-.09-1.42.88-1.58,2.24-1.47,2,.16,2.77.93,2.42,2.93C93.81,361.07,94,362.26,95.9,362.47Z"/>
    <path class="cls-3" d="M65.44,342c.23-1-.69-2.67,1.53-2.76,2.59-.11,2.7,1.75,2.88,3.55s-1.21,2.15-2.51,2.24C65.12,345.17,65.45,343.49,65.44,342Z"/>
    <path class="cls-3" d="M19,338.78c2.25,0,3.27,1.11,3.39,3.41.07,1.55-.73,1.9-1.88,2.08-1.52.23-1.9-.62-1.77-1.95.11-1.17.15-2.35.22-3.53Z"/>
    <path class="cls-3" d="M78.69,340.14c-.07,1.56-1.37,3-.32,4.76.25.42-.69,1.21-1.19.84-1.39-1-1.48-2.68-1.59-4.24-.09-1.29.25-2.35,1.77-2.63C78.42,338.68,79.25,338.64,78.69,340.14Z"/>
    <path class="cls-3" d="M84.66,360.8c1.39-.57.47-1.64.46-2.45,0-1.11.29-1.73,1.47-1.72.7,0,1.54-.05,1.62.88.11,1.23-1.17.75-1.91,1.33,1.17.78,2.57,1.41,2,3.23-.26.86-.76,1-1.52,1.06-1.8.18-1.58-1.43-2.17-2.31Z"/>
    <path class="cls-3" d="M88.07,342.13a17.58,17.58,0,0,1-.53,1.93c-.26.73-.08,2.06-1.5,1.6-1.15-.38-.59-1.26-.33-2a1.66,1.66,0,0,0-.26-1.65,2.29,2.29,0,0,1-.2-2.73c.32-.48.85-.3,1.34-.15C87.9,339.59,88,340.68,88.07,342.13Z"/>
    <path class="cls-3" d="M41.42,342c-.08,1.5-.18,2.72-2.29,2.68-3.08,0-.6-2.23-1.39-3.26s.35-2,1.45-2C40.71,339.39,41.44,340.45,41.42,342Z"/>
    <path class="cls-3" d="M28,341.72c-.53-1.57.09-2.43,1.39-2.42,1.51,0,2.22,1.12,2.26,2.57s-.26,2.57-2,2.63C27.15,344.59,28.55,342.5,28,341.72Z"/>
    <path class="cls-3" d="M48.61,373.41c-1.72,1.82-3.74-.24-5.51.68,1.09-4.18,4.39-3,7.06-3.23a3.82,3.82,0,0,1,.22.78l0,0a2.86,2.86,0,0,0-1.84,1.84Z"/>
    <path class="cls-3" d="M67.89,357.11a14.49,14.49,0,0,0-1.49,5.42c0,.18-.38.47-.63.52a.66.66,0,0,1-.84-.6c0-1.84-.85-3.44-1.32-5.15a1,1,0,0,1,0-.58c.14-.44.43-.49.89-.48.8,0,.7,2.19,1.47,1C67,355.54,67.2,356.6,67.89,357.11Z"/>
    <path class="cls-3" d="M73.21,280.41c1-.41,2-.78,2.26-1.81l2,1.85c-1.29.43.07,2.24-1.39,2.63C73.81,283.69,74.57,281.22,73.21,280.41Z"/>
    <path class="cls-3" d="M43,282.93c-3.22,1.3-1.64-2.13-2.94-2.34l2-1.89,1.74,2.14C42.92,281.19,43.6,282.54,43,282.93Z"/>
    <path class="cls-3" d="M98.88,359.66a.63.63,0,0,1-.09,1c-3.15,1,.5,1.34.19,2.11-2.11.92-2.51-.47-2.16-1.95s-1.82-4.4,2.09-3.95c.4,1.17-.92.86-1.09,1.52C97.57,359.41,98,359.71,98.88,359.66Z"/>
    <path class="cls-3" d="M96.49,343.16c-.32.52,1.34,1.95-.81,1.83-1.27-.08-2.58.05-2.07-1.86.3-1.15-1-3.15,1.18-3.28S96.65,341.61,96.49,343.16Z"/>
    <path class="cls-3" d="M58.92,286.49c-2.89,1-.77-2.42-2.3-2.62l2.4-1.93c0,1.27,2.67,1.64,1.7,2.27S62.22,288.27,58.92,286.49Z"/>
    <path class="cls-3" d="M47.16,362.54c-1.25-5.54-.7-6.81,2.72-6-.64.81-3.63,1.5-.45,2.65.51.18.1.87-.21.86C47.5,360,48.33,361.88,47.16,362.54Z"/>
    <path class="cls-3" d="M50.2,339.24c1.2.18,3.1.15.74,2-.13.11-.3.36-.26.49.36,1.08,1,2.63-.78,2.56s-.41-1.94-.87-2.88C48.46,340.24,47.14,338.8,50.2,339.24Z"/>
    <path class="cls-1" d="M19,338.78h0c-.78-.4-1.35,1.19-2,.39-.76-1,.48-2,.39-3,1-.36,2-.81,2.53.62C18.91,337.15,19.26,338.11,19,338.78Z"/>
    <path class="cls-1" d="M42.78,393c-.48,1.11-.79,2.34-2.22,2.24-.16,0-.41-.88-.35-1.31C40.42,392.16,41.73,392.9,42.78,393Z"/>
    <path class="cls-1" d="M95.5,282.81c.27.32.49.46.48.59-.08,1.11.46,2.4-.81,3.19a.84.84,0,0,1-.69-.35A3.82,3.82,0,0,1,95.5,282.81Z"/>
    <path class="cls-1" d="M79.24,374.83c-.58-.14-1.18-.34-1.15-1.07s.64-.88,1.25-.9,1,.1.94.77A1.17,1.17,0,0,1,79.24,374.83Z"/>
    <path class="cls-1" d="M11.65,285.49a.68.68,0,0,1,.11.25c0,.08-.1.15-.16.22a.68.68,0,0,1-.11-.25C11.5,285.63,11.59,285.56,11.65,285.49Z"/>
    <path class="cls-1" d="M100.9,343.37l-.29-.24c.06,0,.14,0,.17.05a1.23,1.23,0,0,1,.08.23Z"/>
    <path class="cls-1" d="M10.75,287.52l.24-.26c0,.05,0,.13-.05.15a.58.58,0,0,1-.22.08Z"/>
    <path class="cls-1" d="M102.09,186l-.3.22.26-.25Z"/>
    <path class="cls-1" d="M102.05,185.92l.14-.23c0,.09-.07.18-.1.26Z"/>
    <path class="cls-1" d="M14.94,298.91l.25-.39c.33.37,0,.36-.23.41Z"/>
    <path class="cls-2" d="M49.05,111.91c-1,0-1.87,0-1.82-1a1.4,1.4,0,0,1,1.54-1.44c.72.09,1.75.28,1.7,1.25A1.25,1.25,0,0,1,49.05,111.91Z"/>
    <path class="cls-2" d="M34.37,101.36c1.41,1.7.9,2.91.88,4,0,.68.44,1.88-.77,1.85s-1.14-1.27-.84-2A11.59,11.59,0,0,0,34.37,101.36Z"/>
    <path class="cls-2" d="M82.68,104.82a2.18,2.18,0,0,1-.5-2.89C82.35,102.9,82.52,103.86,82.68,104.82Z"/>
    <path class="cls-2" d="M79.85,88l-1.09-.16a1.58,1.58,0,0,1,.16-.26c.31.13.61.28.92.43Z"/>
    <path class="cls-2" d="M5.34,299.49l.39.19-.36.51Z"/>
    <path class="cls-2" d="M5.24,298.9a2.83,2.83,0,0,1,.17.4.68.68,0,0,1,0,.22l-.49-.36Z"/>
    <path class="cls-2" d="M82.23,100.63l.2.12-.18-.14Z"/>
    <path class="cls-3" d="M54,53.4c1.42.6,2,1.25,1.88,3.22-.22,4.16-.16,8.19-3.1,11.61-.91,1.07.47,2.14.66,3.23-7.2,1.87-7.22,1.87-7.2-5.28a8,8,0,0,1,2.34-6.3c1.35-1.39,2.33-3,4.27-3.8C53.94,55.64,53,54.12,54,53.4Z"/>
    <path class="cls-1" d="M77.9,35.91c2.09.27,2.86,1.51,2.57,3.35-.78,5,.2,9.81,1.62,14.57,1.26,4.24-.24,8.51.08,12.77.16,2-.14,4,.39,6,.21.8.69,1.94-.75,2.08-1.21.11-2.25-.06-2.54-1.77a37.6,37.6,0,0,1-.38-12.42c.84-5.13,0-10.15-.51-15.16A65.22,65.22,0,0,1,77.9,35.91Z"/>
    <path class="cls-3" d="M61.67,33.45c-4.13-.66-8.37-.23-12.42-1.44a22.74,22.74,0,0,1-3.58-1.49A.89.89,0,0,1,45.4,29c.46-.6.84-.17,1.25.09,7,4.47,14.64,3,22.14,2.55,2-.11,4.54.56,6-1.79.08-.13.81,0,1,.18s.07.68-.19,1a3.47,3.47,0,0,1-3,1.7A70.73,70.73,0,0,0,61.67,33.45Z"/>
    <path class="cls-3" d="M63.9,62.07a9.83,9.83,0,0,0,1.28-7.45c-.26-1.29.89-2.15,1.08-3.31,0-.11.31-.26.47-.25.59,0,1.11.61,1,.91-.79,1.68,3.07,2.61,1,3.82S66.94,59,67.23,60.13C68.38,64.64,65.7,62.17,63.9,62.07Z"/>
    <path class="cls-3" d="M43.76,38.71c-.63,6.11-.29,12.28-1.17,18.39a38.5,38.5,0,0,1-2.29,7.58c-.37-3.17.92-5.56,1.18-8.1.54-5.34,1.33-10.66,1.16-16.06,0-.86.11-1.61,1.15-1.78Z"/>
    <path class="cls-1" d="M74.42,21.43l.48-.81a5,5,0,0,1,.34-.46c2.89-3.15,2.89-3.15,4.82,1-.8,1.05-2.32.08-3.13,1.07l-2.57-.06Z"/>
    <path class="cls-3" d="M69.93,69.57c-2.57.51-2.83-1.69-3.67-3.07-.43-.7-.12-1.44.62-2.06,1.39-1.2,2.32-1,2.66.77A41.78,41.78,0,0,1,69.93,69.57Z"/>
    <path class="cls-3" d="M61.6,26.76c-3.3,1.44-5.89-1.11-8.6-.09-.11,0-.56-.52-.67-.86a.76.76,0,0,1,.72-1C55.88,24.69,58.76,24.43,61.6,26.76Z"/>
    <path class="cls-3" d="M68.46,43.17c-.07,1.41-.18,3-1.1,2.86a2.65,2.65,0,0,1-2.22-2.6c0-.64-.87-2.52,1.23-2.21C67.69,41.42,68.69,42,68.46,43.17Z"/>
    <path class="cls-1" d="M43.35,14.45c.19-1.18,1.24-.7,1.89-1,1.68,0,1.71,1.09,1.25,2.18s-.48,2.53-2,2.54-.91-1.4-1.16-2.22h0C44.09,15.5,43.8,15,43.35,14.45Z"/>
    <path class="cls-3" d="M67,72.1c.89-.61,1.6-1.3,2.47-.39a.86.86,0,0,1-.08.8C68.59,73.25,67.92,72.67,67,72.1Z"/>
    <path class="cls-3" d="M73,61.12c-.06,0-.19,0-.19-.08a.55.55,0,0,1,.07-.23c.07,0,.19,0,.2.07A.75.75,0,0,1,73,61.12Z"/>
    <path class="cls-3" d="M43.79,38.74l.65-.45c.13.71-.48.24-.68.42Z"/>
    <path class="cls-2" d="M43.35,14.45c.45.53.74,1.05-.08,1.52C43.3,15.46,43.32,15,43.35,14.45Z"/>
    <path class="cls-2" d="M74.42,21.43l-.06.78c-.38.13-.82.21-.8-.34S74,21.34,74.42,21.43Z"/>
    <path class="cls-2" d="M102.1,341.61l.15-1.41c.13.06.36.09.39.19.19.57-.13.92-.57,1.19Z"/>
    <path class="cls-2" d="M59.59,268.56c-.34,1.46-.66,2.91-1,4.36-.17.72-.47,1.4-1.38,1.21a1.16,1.16,0,0,1-.84-1.65,4.8,4.8,0,0,0-.34-5.56,1,1,0,0,1,.3-1.34c.62-.49,1.08.12,1.62.29A2.11,2.11,0,0,1,59.59,268.56Z"/>
    <path class="cls-2" d="M59.53,264.84c-.65-.21-1-.21-1.11-.38-.72-1.06-2.55.39-2.94-1.31,0-.13.22-.46.26-.45C57,263.11,58.43,263.22,59.53,264.84Z"/>
    <path class="cls-2" d="M37.07,328.7c-.32,1.51.65,5.17-2.29,5.21-2.45,0-2.18-3.54-2.27-5.76a24.93,24.93,0,0,1,.42-4.46c.16-1.14.59-2.33,1.92-2.31,1.15,0,1.46,1.16,1.74,2.16A16.26,16.26,0,0,1,37.07,328.7Z"/>
    <path class="cls-2" d="M50.41,304.94l-.29.43c-.35-.39,0-.41.26-.46Z"/>
    <path class="cls-2" d="M51.61,374c0-1.15.77-1.71,1.83-2.4A3.34,3.34,0,0,1,51.59,374Z"/>
    <path class="cls-2" d="M48.57,373.45a2.86,2.86,0,0,1,1.84-1.84C50.28,372.7,49.82,373.47,48.57,373.45Z"/>
    <path class="cls-2" d="M52.44,361.73c-.92-1.8-1-3-.27-4.09,0-.07.45,0,.5.05C53.35,358.9,52.83,360,52.44,361.73Z"/>
    <path class="cls-2" d="M35.27,357c1.36,1.4,1.54,2.53,1,3.78a.58.58,0,0,1-1,.18C34.45,359.86,34.84,358.71,35.27,357Z"/>
  </g>
</svg>
