<svg id="Layer_1" data-name="Layer 1" xmlns="http://www.w3.org/2000/svg" width="1.6in" height="6.39in" viewBox="0 0 114.99 460.25">
  <defs>
    <style>
      .cls-1 {
        fill: #fefefe;
      }

      .cls-2 {
        fill: #8eaeba;
      }

      .cls-3 {
        fill: #475e16;
      }
    </style>
  </defs>
  <g>
    <path class="cls-1" d="M108.18,445.8l.45-.52a47.41,47.41,0,0,0,4.4-21.91c-.28-15.13-.67-30.26,0-45.39a12.65,12.65,0,0,0,.51-4.53q.26-25.83.49-51.64c0-6.62-.39-13.26-.28-19.84.25-13.34.06-26.68.22-40,.1-9.15-.6-18.4.55-27.41,1.23-9.66-.13-18.75-2.38-27.94-.65-2.64-1.92-5.29-1.8-7.89.08-1.8-.14-2.27-1.64-2.53l-2.78-6.39c.1-1.59-.44-2.67-2.2-2.77.34-.77-.07-1.38-.4-2-3.65-6.89-5.69-14.34-7.63-21.83-.63-6.66-1.24-13.32-1.9-20a4.51,4.51,0,0,1,1.84-4.48c-2.77,1.15-2.31-.47-2.4-1.71-.44-6.08-.87-12.16-1.39-18.24-.42-5-1.37-9.91-1.32-14.85s-2.32-9.38-1.26-14.24c0-.14-.4-.37-.62-.56.58-1,.18-2,.22-3-.76-8.7-1.65-17.39-2.24-26.09C85.92,49.57,85.56,39,84.18,28.55c1.67-2.05,3-4.17,1.27-6.85A1.9,1.9,0,0,0,84.76,20c-.4-1.1.54-1.27,1.12-1.79.87-.77,2-1.37,2-2.83A13.13,13.13,0,0,0,77.74,2.16C73.6,1.05,69.33.76,65.1.24c-7-.84-13.76.65-20.43,2.35-3.86,1-5.33,4.52-6.23,8-.66,2.61-1.39,5.44,2.06,7,.21.1.17.75.26,1.15a1,1,0,0,0-.46,1.32c-1.5,2-1.95,4.16-.35,6.34A2.38,2.38,0,0,1,40,29.2a1.83,1.83,0,0,0,0,2.39l-.5.57-.36,1.21a75.45,75.45,0,0,0-2.07,19.05Q36.47,61,35.8,69.52c-1,.37-1.72,1-1.57,2.16l1.45-.26c-.12,1.17-.23,2.35-.34,3.52A51.86,51.86,0,0,0,34.57,86l-.39,1.23L34,88.48l0,1.25c-.82,7-1.75,14-2.41,21.06-.54,5.82-1.76,11.58-1.82,17.45-.22,1.49-.48,3-.65,4.46-1.16,10.37-1.82,20.8-4.16,31-2.09,9.15-6.37,17.31-10.7,25.48a79,79,0,0,0-6.75,15.93c-3.68,13.41-3.17,27-2.27,40.69l0,1,0,.73q-.3,13.82-.61,27.63c-.35,15.26-.75,30.52-1,45.79-.19,10.79,0,21.6-.39,32.39C3,358.88,2.45,364.53,2.33,370c-.1,5.14,0,10.41-.08,15.63,0,3.93,0,7.86,0,11.79l-.09,1.36c-.53.37-.51.75,0,1.13,0,.83-.06,1.65-.1,2.48-.76.16-2-.51-2,1,0,1.1-.16,2.65,1.82,2.36-.15,4.17-.16,8.35-.49,12.5-.6,7.46-.35,14.86,1.9,22C5.92,448.83,11,455,20.53,456.68c4.91.85,9.74,2.22,14.71,2.66a213.3,213.3,0,0,0,48.44-1c4.89-.69,9.89-1,14.34-3.51a12.9,12.9,0,0,0,1.08-.74c-.06-.08-.16-.15-.16-.22,0-.86.84-.71,1.29-1a4.24,4.24,0,0,1,1.16-.35c3.36-.36,5.42-2.42,6.61-6.59Z"/>
    <path class="cls-2" d="M2.21,397.4c0-3.93,0-7.86,0-11.79.06-5.22,0-10.49.08-15.63.12-5.45.67-11.1.89-16.64.42-10.79.2-21.6.39-32.39.27-15.27.67-30.53,1-45.79q.3-13.82.61-27.63c-.28-.26-.26-.5,0-.73,0-.33,0-.65,0-1,1.46-3.92.49-8,.7-12,.39-7-.69-14.13,2-21,.82-2.12.6-2.11,2.55-1.42.43.15-.07-1.14.71-1.33,1.18,1.3-1,4.47,2.51,4.57.24,0,.48,1.44.65,2.23a132.42,132.42,0,0,1,2.74,29.86c-.08,8.81,0,17.62.59,26.57,1.09-.34,1.44-1.26,2.07-1.87,2.73-2.67,4.68-6.12,8.17-8h0c-.57,1.61-2.23,2.33-3.06,3.72s-1,2.59,1.26,2.43l0,0c-7,8.94-8.08,11-7.89,16L23,278.81c11.08-15.57,30.38-24.36,50.16-18,14.88,4.8,24.12,15,30,28.93-.82,1.4-.59,2.93-.58,4.43,0,3.85-.45,7.78.21,11.51.5,2.86-.88,5.41-.2,8.22.9,3.74.31,7.66,0,11.42s1.8,7.33.13,11c2.3,1.28-1.55,4.05,1.25,5.23a1.38,1.38,0,0,1-.23.83c-2.16,2.17-.42,3.82.71,5.55l0,0a5.76,5.76,0,0,1-.19,1.45c-.68,1.64-.67,2.18,0,4.49.18.64.22,1.89,0,2-2.89,1.19-1.43,3.11-1,4.91.55,2.3-.74,4.67-.34,6.75a13.64,13.64,0,0,1-.29,7.09,5.32,5.32,0,0,0,.49,4c1.1,1.55,1.81,3.31.95,4.77-1.28,2.18-.44,3.8.44,5.6.32.67.59,1.5,1.34.3a13.5,13.5,0,0,0,1.38-4,69.55,69.55,0,0,0,2.14-23.86c-.21-1.6.58-3.3-.49-4.82-.09-3.18-.19-6.36-.26-9.54-.33-15.7,1.3-31.46-1.83-47.05a1.2,1.2,0,0,0,.7-1.5,106,106,0,0,0-3.21-13c-3.51-10.1-10.71-17.61-19.48-23.62-.56-.39-1.42-1-1.89-.77-2.56,1-2.84-1-3.52-2.48l.11-.11c1.83-.45,3,1,4.3,1.72,5.49,3.07,9.88,7.5,14.12,12.14.26-.37.48-.54.47-.69-.12-2.39-2.79-3.26-3.28-5.44.08-.12.16-.23.25-.34,5.9,4.85,8.37,12.16,13.24,18.77.25-7.23.66-13.69.64-20.15,0-11.7.65-23.37,1.13-35.05.06-1.34-.32-3.37-1.22-3.92-1.86-1.15-1.66-2.63-1.5-4.16.28-2.5-.3-4-3.87-3.12l3.93-2.14c-.6-.7-1.52,0-1.91-.76.73-.73,4,.39,2-2.06a21.58,21.58,0,0,1-4.25-9.11,2,2,0,0,0-2.28-1.89c-1.37.08-1,1.23-1,2.11,0,.63.78,1.3-.28,2.06-1-.91-1.78-2.48-3.5-2.47-.67,0-.32-.25-.23-.67.5-2.49-.42-4.8-1.42-6.95-1.27-2.72-1.16-6.16-3.66-8.18-3.1-2.5-3.25-5.94-3-9.25a11.49,11.49,0,0,0-.44-4.7c-1.4-4.27-4.82-8.24-1.8-13.16.32-.52,0-1.4.1-2.11s-.24-1.49.77-1.75a2.58,2.58,0,0,1,1.14,1.71c.19.61-.08,1.69,1,1.52s.75-1.15.61-1.78c-.42-1.9-1.11-4-.4-5.69s-.45-2.95-.58-4.41c-.31-3.34-.56-6.68-.81-10-.33-4.45-.12-9-.63-13.36-1.17-10-1.14-20.13-2.34-30.14-.37-3.12-.59-6.1,4-5.9.22.19.65.42.62.56-1.06,4.86,1.3,9.41,1.26,14.24s.9,9.89,1.32,14.85c.52,6.08,1,12.16,1.39,18.24.09,1.24-.37,2.86,2.4,1.71a4.51,4.51,0,0,0-1.84,4.48c.66,6.65,1.27,13.31,1.9,20-.94,4.59,0,9.27-.66,13.88a1.5,1.5,0,0,0,.34,1.13c2.94,2.8,5.05,6.38,8.35,8.83,1.76.1,2.3,1.18,2.2,2.77-.76,2.86,1.11,4.58,2.78,6.39,1.5.26,1.72.73,1.64,2.53-.12,2.6,1.15,5.25,1.8,7.89,2.25,9.19,3.61,18.28,2.38,27.94-1.15,9-.45,18.26-.55,27.41-.16,13.33,0,26.67-.22,40-.11,6.58.33,13.22.28,19.84q-.2,25.82-.49,51.64A12.49,12.49,0,0,1,113,378c-1,3.83-1.9,7.68-2.88,11.51-1.84,7.19-6.06,13.15-10.43,18.87-1.43,1.87-2.91,4.93-6.38,4.71A3.59,3.59,0,0,1,94.7,410c3.34-2.77,4.92-6.79,7.54-10,2.26-2.79.7-6.22,3.11-9.28a2.5,2.5,0,0,0-2.1,1.89c-3.6,8.7-10,15.14-17.32,20.61a40.93,40.93,0,0,1-24.82,7.92c-14.78,0-26.86-6.27-36.83-16.75-2.46-2.58-5.24-5.22-6.2-9,1.86-5.95-.8-11.94.19-17.91.41-2.52-.79-5.14-.43-7.43.88-5.63.73-11.24.83-16.87,0-.9-.15-1.88,1-2.33,1.39-.4,3.65.47,3.68-2,0-2-.56-3.91-3.27-3.73-.86-.81,1.06-3-.72-2.71-2.18.39-1.38-.82-1.39-1.57-.05-5.5-.09-11,0-16.49,0-2.33,1.45-4.76-.61-6.91,2.33-3.18,1.1-6.89,1.26-10.31a53.88,53.88,0,0,0-.4-11.74c-.36-2.07.66-4.58-.63-7.49-.31.62-.52,1-.67,1.36-3.57,9.18-6.7,18.47-6.71,28.49,0,11-.08,22,0,33,0,3.51-1.64,7.23,1.09,10.5.3.37,0,1.28-.53,1-1.12-.51-1.12-.07-1.09.8.09,2.83,0,5.64.34,8.47a128.76,128.76,0,0,0,2.44,13.37l.25,1.58,0-.07c1.47,4.41,1.11,9.65,4.5,13.16,4.74,4.91,8.26,10.94,13.88,15l0,0c-1.35-.81-2,1.7-3.51.68a48.87,48.87,0,0,1-6.75-5.59c-2.77-2.6-4.68-5.92-7.37-8.79.71,6.58-2,12.53-1.55,19.16-3.69-1.88-5.2-4.85-6.79-8.75-.59,2.78-1,4.49-1.32,6.19l-.31,0v-22C2.35,396,2.61,396.86,2.21,397.4Zm10.37.72L12,397.5c-.77-1.77,1.7-3.18.86-4.64-3.74-6.49-5-13.66-6.11-21.1-.7,3.19.92,6.07.39,9-.31,1.72-1.31,3.18-.36,5.13,1.86,3.81,3,8,5.25,11.61l.62.62c.18.51.16,1.15.91,1.3C13.63,398.63,13.08,398.39,12.58,398.12Zm53.87-86.3c4.08,2,7.94,1,10-2.67-6.71-.27-6.71-.27-10,2.71-.14-1.11.82-1.92,1.11-3.09-3.91.38-7.52,0-11.09,0-3.33,0-3.91,1.87-5.39,3.79a51.94,51.94,0,0,0,6.43.47C60.49,312.9,63.66,313.69,66.45,311.82Zm9.87,48.25c.58-.09,1.66.49,1.32-.8-.07-.24-1.29-.19-2-.25-.84-.08-1,.52-1.08,1.15a27.94,27.94,0,0,0,0,3.66c.08.89-.41,2.16,1.16,2.4s2.67.08,2.83-2.16c1.33,3.09,1.36,3.1,4,2.07-2.53-1.6-2.53-1.6-.31-3.17,0-1-3.11-.56-1.25-2.34a2.55,2.55,0,0,1,2.77-.6A2.32,2.32,0,0,1,85,362.27c.14,1.44-.43,3,1,4.77.77-2.78-.35-5.59,1.69-7.62-1.84-.86-3.46.09-5-.19-1.87-.34-3.2-.42-4.23,1.63-.56,1.11-1.9,1.21-2.37-.51A3.11,3.11,0,0,1,76.32,360.07ZM67.65,378.5l0,0c-.54-.87-1.39-.59-2.18-.67-4.89-.46-9.78.3-14.69-.23-2.41-.26-5.45-.32-6.24,3.24,2.82-.25,5.6,1.08,8.42.12l0,0c2,0,4.08,1.5,6.13,0l0,0a8.39,8.39,0,0,0,11.17-2.86C69.27,377.61,68.5,378.29,67.65,378.5Zm25.91-43.62c1.73,2.26,2.7,4.93,4,7.42.44.83.68,1.79,1.91,1.49,1.07-.26,1-1.16,1-2,0-5,0-10,.12-14.94,0-1.44-.43-2-1.91-2-1.75,0-1.16,1.2-1.29,2.11-.33,2.4.51,4.89-.59,7.92-1.54-3.33-2.83-6.06-4-8.81a2,2,0,0,0-2.12-1.36c-1,.05-1.15.71-1.16,1.47-.06,5.28-.09,10.56-.15,15.83,0,1.41.83,1.62,2,1.62s1.49-.65,1.52-1.73c.05-2.23.2-4.45.31-6.68ZM9.3,292.56c1.13-3.06,1.95-6.22,3.43-9s2.43-5.24,2.21-8.31c-.3-4.05-.54-8.1-.57-12.16-.08-10.2,0-20.41,0-30.61,0-1.73-.07-4.42-1.5-4.47-1.77-.06-2.64,2.42-3.09,4.3a6,6,0,0,0-.11,2.43,33.22,33.22,0,0,1-.19,11.13c-.43,2.68,2.35,5,.28,7.67-.41.52,1,1.21.28,2.4-1.05,1.73-1,3.86-1,5.91,0,9.14-.4,18.26-1.15,27.37C7.75,290.29,7.24,291.72,9.3,292.56ZM54.63,262c-1.66.26-2.65,1.24-2.14,2.9.66,2.11.14,4.31.66,6.32.74,2.83-.28,5.72.85,8.53,1.59,4,5.83,5,8.71,2a9.6,9.6,0,0,0,2.55-6.32c.32-3.85-.51-7.72.29-11.56a1.39,1.39,0,0,0-1.81-1.74A15.89,15.89,0,0,1,54.63,262ZM42.31,334.42a54.54,54.54,0,0,0-.75-5.41,5.23,5.23,0,0,0-5.42-4.42c-3-.08-4.76,1.61-5.59,4.26a17.72,17.72,0,0,0-.12,10.52,5.37,5.37,0,0,0,4.86,4c2.43.3,4.08-.87,5.35-2.78S41.93,336.58,42.31,334.42Zm15.25,9.32v0c.51,0,1,0,1.52,0,2.74-.12,5.12-1.09,6.14-3.73s.09-5.18-2.13-7.11c-.84-.73-1.66-1.49-2.48-2.26a1.8,1.8,0,0,1-.51-2.44,1.5,1.5,0,0,1,2.3-.61c.92.55,2,.71,2.25-.87.19-1.4-.56-2.31-1.87-2.11s-2.59-.16-3.87-.07a5.23,5.23,0,0,0-4.18,8,13.7,13.7,0,0,0,2.42,2.7c1.15,1.09,3.15,1.88,2.74,3.68-.48,2.11-2.7,1.17-4.15,1.36-1.11.14-1.7.33-1.7,1.52s.27,2,1.69,1.89C56.34,343.7,57,343.74,57.56,343.74ZM78.88,335c0,.13.07,1.14.1,2.16.14,6.63.14,6.66,6.78,6.47.93,0,2.56.73,2.51-1.19-.06-2.09-1.81-1.29-2.78-1.14-1.47.23-3,.36-2.76-1.48.2-1.61-1.86-4.34,1.73-4.75.76-.09,1.42-.14,1.44-1.14a1.12,1.12,0,0,0-1.3-1.29c-2.83.07-1.86-2.05-1.94-3.48-.12-2,1.44-1.52,2.57-1.6.61,0,1.22,0,1.83,0a1.16,1.16,0,0,0,1.29-1.32c0-.83-.26-1.44-1.18-1.41-2.62.11-5.62-.9-7.74.45-1.51,1-.37,3.81-.54,5.81C78.81,332.05,78.88,333.07,78.88,335Zm-35.57-1c0,.81,0,1.63,0,2.44,0,7.6,0,7.6,7.64,7.21a8,8,0,0,0,1.21-.12c1-.21.88-1,.87-1.69s-.07-1.28-.85-1.41a4,4,0,0,0-1.51,0c-2.78.62-3.54-.58-3.35-3.22a51.82,51.82,0,0,0-.06-8.54c-.13-1.43,1.51-4-1.87-4.06-3.64-.05-1.74,2.71-2,4.21A28.86,28.86,0,0,0,43.31,334Zm27.14,1.41h.06c0,2,.06,4.06,0,6.08-.06,1.52.4,2.21,2.06,2.18s1.81-.82,1.79-2.11c0-3.66,0-7.31,0-11,0-1.66-.28-3.39,2.32-3.12.84.09,1.22-.51,1.25-1.37s-.29-1.35-1.19-1.37c-2.94-.05-5.88-.13-8.83-.15-1,0-1.43.66-1.42,1.6a1.15,1.15,0,0,0,1.39,1.23c2.94-.38,2.72,1.52,2.63,3.43C70.4,332.37,70.45,333.9,70.45,335.42Zm-41.94-1.37h0c0-2.44,0-4.89,0-7.33,0-1.3-.22-2.11-1.83-2.08s-1.69.91-1.79,2.16c-.2,2.41.95,5.13-1.5,7.09-.2.16-.22,1-.08,1.05,2.64,1.46,1.3,4,1.53,6,.15,1.3,0,2.38,1.88,2.31s1.77-1.21,1.76-2.47C28.5,338.53,28.51,336.29,28.51,334.05Zm28.14,26.53c.22,2,3.38,2,3,4.54-.24,1.43.93,1.87,2.2,1.85.71,0,1.62.09,1.85-.71.52-1.79-1.73-.89-2.07-1.93,2.15-1.27,2.23-1.38.79-2.49C60,360,65,360.51,63.21,359a2.77,2.77,0,0,0-1.09-.53c-2.9-.7-2.51,1.72-3,3.35-.08-.57.15-1.09,0-1.48-.6-1.79-2.25-1.82-3.73-2-.65-.08-1.44.38-1.14,1,.73,1.57-.35,3-.08,4.46.17.9-1,2.41.81,2.63,1.55.2,3.48.77,4.19-1.95C55,365.46,56.2,362.74,56.65,360.58Zm-19.27,5.83c2.09-2.1,3.11-5.52,2.37-7.8-1.3.93-.92,2.62-1.74,3.76-1.45-.84-.53-3.39-2.25-3.64-1.44-.22-3-.79-4.48-.24-.85.32-1.39,5.75-.58,6.88,1,1.43,2.35,1,3.62.4-.2-1.4-2-.79-2.08-1.95.32-1,1.66-.21,1.91-1.3-1-.7-3.17.17-2.87-1.84.19-1.28,1.93-.56,2.87-1.07s1.13.41,1.34,1C36.13,362.53,36.74,364.45,37.38,366.41Zm-12.27-8c0,1.84-.09,3.53,0,5.2.06.76-.82,2,.6,2.25,1.23.18.12-1.71,1.18-1.88,1.14.3.8,2.36,2,2s.55-2,.69-3a8.28,8.28,0,0,0,0-2.11c-.12-.83.55-2.13-.6-2.37-1.49-.31-.17,1.83-1.37,2.06C26.63,360.17,26.82,358.63,25.11,358.45Zm22.65,5.48c1.67.2.54,2.77,2.14,2.15,1.27-.49.29-2,.24-3s0-2-.13-3c-.14-1.55-1.32-1.53-2.47-1.58-1.34-.05-1.44.84-1.43,1.81,0,1.73,0,3.45.08,5.17,0,.2.33.4.68.8Zm45-1.11c.73,1.31-1.13,3.67,1.58,3.9,2.24.19,2.38-1.65,2.37-3.38s0-4.06-2.46-4S93.55,361.73,92.73,362.82ZM81,345.63c0-.3-.22-.77-1.22-.53-1.43.36-2.93.77-2.83,2.6a7.2,7.2,0,0,0,2.09,4.62c.42.44,1.47-.31,1.28-.74C79.46,349.62,80.5,348,81,345.63Zm-42,3.3c.22,1-1.09,2.79,1.42,2.7,2.14-.08,2.26-1.63,2.31-3.09s-.69-3-2.38-2.86C38.48,345.85,38.61,347.44,39.06,348.93Zm53,10.56c-1.33-.18-2.92-1.07-3.27.35a9.64,9.64,0,0,0,.24,6.53c.43.88,1.87.67,2.85-.07-.62-.89-2.07-.42-2.09-1.72s1.78-.34,1.91-1.61C88.15,361.81,89.94,360.73,92,359.49Zm-62.95-11c-.27,1.42-.5,2.85,1.86,2.54,1.87-.24,1.89-1.53,1.82-2.87s-.8-2.69-2.38-2.6C28.55,345.66,28.47,347,29.09,348.48Zm15.84,10.38c-1.35-.44-3-.88-3.33.39-.51,2.1-.8,4.53.24,6.54.48.92,2,.76,3.54-.26-5-.88-2.14-2-.47-3-.7-.87-2.2-.17-2.2-1.58S44.57,360.32,44.93,358.86Zm22.34-10.44c.36,1.18-.75,3.21,1.71,3.07,1.22-.07,2.78-.19,2.61-2.16s-.25-3.84-2.81-3.85C66.53,345.48,67.65,347.36,67.27,348.42Zm23,.16c-.07-.68-.11-1.09-.16-1.49a2.18,2.18,0,0,0-2.68-1.87c-1.68.29-.13,1.61-.29,2.47s1.06,1.41.65,2.51c-.23.61-1,1.63.23,2,1.54.47,1.46-.95,1.75-1.84C90,349.68,90.15,349,90.27,348.58Zm-16.53,11c-3.59-1.46-4.1-1.14-3.85,2.13a31.57,31.57,0,0,1,0,3.64c0,.48-.3,1.28.23,1.31,2.16.12.66-3.76,3.42-3.28.21,0,.23-.95-.29-1.2s-1.83.2-1.77-1.09S73.1,360.58,73.74,359.57Zm25.61-8.13c-1.22-1.72,1.48-4.91-2.31-5.27-2.08-.2-1,1.7-1.27,2.7C95.16,351.55,96.79,351.77,99.35,351.44ZM48.91,346.1c1.62.78,1.42,2,1.47,3.21,0,.64-.25,1.68.85,1.57,2.51-.24-.2-3.53,2.29-4.08.4-.09-.33-1.17-1.09-1.36a3,3,0,0,0-.61,0A4.44,4.44,0,0,0,48.91,346.1Zm11.6-54.24c2.75.89,1-1.62,1.83-2.37s-1.48-.85-1.62-1.91c-.77.62-2.24,1.21-2,2S58.23,292.7,60.51,291.86ZM49,309c-2.22.11-2.86,1.87-4.28,3.39C47.41,312.41,47.77,310.19,49,309Zm-4.52,91.2c-1.48-.25-2.65-.71-3,.87-.13.53-.12,1.49.52,1.49C43.14,402.6,43.51,401.37,44.43,400.23Zm8.18-91.4c-2.92,0-3.2,2.08-4.57,3.67C50.78,312.37,51,310.19,52.61,308.83Zm45.07-20.58c-.63,1-1.49,1.95-.93,3.23.17.37.7.6,1,.19A3.16,3.16,0,0,0,97.68,288.25ZM82.12,380.59c.06-.69-.38-.83-.93-.81s-1,.16-1.17.73.28.91.8,1A1,1,0,0,0,82.12,380.59Z"/>
    <path class="cls-3" d="M27.9,263.49c-3.49,1.89-5.44,5.34-8.17,8-.63.61-1,1.53-2.07,1.87-.62-8.95-.67-17.76-.59-26.57a132.42,132.42,0,0,0-2.74-29.86c-.17-.79-.41-2.22-.65-2.23-3.55-.1-1.33-3.27-2.51-4.57-.78.19-.28,1.48-.71,1.33-2-.69-1.73-.7-2.55,1.42-2.64,6.82-1.56,13.94-1.95,21-.21,4,.76,8.07-.7,12-.9-13.66-1.41-27.28,2.27-40.69a79,79,0,0,1,6.75-15.93c4.33-8.17,8.61-16.33,10.7-25.48,2.34-10.23,3-20.66,4.16-31,.17-1.49.43-3,.65-4.46,1,.59.76,1.61.71,2.47-.31,5-.81,9.92-1,14.88-.11,3.26-1.61,6.41-.57,9.75,3.84-10.62,3.53-21.89,5.08-32.85,1.56-11.14,2.91-22.31,2.91-33.76-1.23,0-1.78,1.48-2.91,1l0-1.25a1.12,1.12,0,0,0,.14-1.25L34.57,86c.34-.2.7-.37,1-.59,3.11-2.09,3.65-2.11,6.29-.27.18.13.7.15.77,0,.79-1.27,2.6-1.38,3.25-2.47.86-1.45,2.45-2.44,3.28-1.74,1.48,1.25,3.14-.5,3.92.47a4.7,4.7,0,0,0,5.72,1.15c3.21-1.38,5.94-.28,8.86.37.67,2.35,1.84.62,3.5.64A5.4,5.4,0,0,0,67.64,83c-.53-2.78.74-3.34,3.36-3.53,1.69-.12,3.2,1.17,4.66.39,1.72-.92,2,.38,2.69,1.29,1.49,2,2.68,4.59,6,3.5.23-.08.49-.11.81-.19-.27.74-.75,1.31-.12,2.4,1-3.33,2.59.46,3.83-.68,0,1,.36,2-.22,3-4.55-.2-4.33,2.78-4,5.9,1.2,10,1.17,20.11,2.34,30.14.51,4.37.3,8.91.63,13.36.25,3.35.5,6.69.81,10,.13,1.46,1.34,2.58.58,4.41s0,3.79.4,5.69c.14.63.35,1.62-.61,1.78s-.8-.91-1-1.52a2.58,2.58,0,0,0-1.14-1.71c-1,.26-.71,1.09-.77,1.75s.22,1.59-.1,2.11c-3,4.92.4,8.89,1.8,13.16a11.49,11.49,0,0,1,.44,4.7c-.26,3.31-.11,6.75,3,9.25,2.5,2,2.39,5.46,3.66,8.18,1,2.15,1.92,4.46,1.42,6.95-.09.42-.44.67.23.67,1.72,0,2.45,1.56,3.5,2.47,1.06-.76.24-1.43.28-2.06,0-.88-.32-2,1-2.11a2,2,0,0,1,2.28,1.89,21.58,21.58,0,0,0,4.25,9.11c1.92,2.45-1.32,1.33-2,2.06.39.74,1.31.06,1.91.76l-3.93,2.14c3.57-.88,4.15.62,3.87,3.12-.16,1.53-.36,3,1.5,4.16.9.55,1.28,2.58,1.22,3.92-.48,11.68-1.17,23.35-1.13,35.05,0,6.46-.39,12.92-.64,20.15-4.87-6.61-7.34-13.92-13.24-18.77a6,6,0,0,0-2.46-2.44,4.37,4.37,0,0,0-2.36-1.91l-.64-.59c-3.1-3.6-7.36-5.18-11.65-6.71a8.3,8.3,0,0,0-2-1.3A57,57,0,0,0,48.4,251.8c-4.28.9-7.87,3.88-12.42,3.87-.57,0-.12.62-.07.94s-.13,1.36.56.93,1.58,0,2.27-.53c5.19-3.8,11.24-5.12,17.46-5.73,2.82-.27,5.71.21,8.53-.06,1.34-.14,1.35,1.79,2.26,1.17,1.14-.79,2.07-.29,3.15-.17,2.73.31,5,2.26,7.8,2.22L89.5,261.2l.69.58a3.26,3.26,0,0,0,2.38,2A3.4,3.4,0,0,0,95,266.22c.49,2.18,3.16,3,3.28,5.44,0,.15-.21.32-.47.69-4.24-4.64-8.63-9.07-14.12-12.14-1.34-.75-2.47-2.17-4.31-1.72-2.82-2.62-6.44-2.91-10.07-3.18l10,3.29c.68,1.51,1,3.49,3.52,2.48.47-.18,1.33.38,1.89.77,8.77,6,16,13.52,19.48,23.62a106,106,0,0,1,3.21,13,1.2,1.2,0,0,1-.7,1.5l-3.52-10.23c-5.9-13.9-15.14-24.13-30-28.93-19.78-6.39-39.08,2.4-50.16,18l-4.83,6.78c-.19-5,.85-7,7.89-16l.62-.62,1.85-1.83c.6-.44,1.34-.76,1.48-1.78-1.08.23-1.63.73-1.45,1.82-1.38-.16-2,.4-1.84,1.83-.5-.09-.7.11-.62.61-2.28.16-2.14-.95-1.26-2.43s2.49-2.11,3.06-3.72a1.17,1.17,0,0,0,1-.8s-.15-.16-.21-.15A1,1,0,0,0,27.9,263.49ZM49.64,114c1.07,0,2-.11,2.18-1.08.16-1.12-1-1.14-1.67-1.25a1.32,1.32,0,0,0-1.59,1.09C48.4,113.7,49.05,114,49.64,114ZM42.5,257.88l8.74-2.67A16.2,16.2,0,0,0,42.5,257.88Z"/>
    <path class="cls-3" d="M2.21,397.4c.4-.54.14-1.41,1.16-1.9v22l.31,0c.36-1.7.73-3.41,1.32-6.19,1.59,3.9,3.1,6.87,6.79,8.75-.46-6.63,2.26-12.58,1.55-19.16,2.69,2.87,4.6,6.19,7.37,8.79a48.87,48.87,0,0,0,6.75,5.59c1.55,1,2.16-1.49,3.51-.68A3.84,3.84,0,0,0,34.65,417a4.46,4.46,0,0,0,4.27,2.46c.09.88.65.77,1.24.6.9,1.87,2.47,2.15,4.29,1.82,2.48,1.24,4.56,3.85,8,2.25l-8-2.21a13.73,13.73,0,0,0-4.3-1.82l-1.24-.61-4.26-2.45a13.16,13.16,0,0,0-3.69-2.44c-5.62-4.08-9.14-10.11-13.88-15-3.39-3.51-3-8.75-4.5-13.16,2.37,2.65,2.88,6.45,5.52,8.94,1,3.74,3.74,6.38,6.2,9,10,10.48,22,16.77,36.83,16.75a40.93,40.93,0,0,0,24.82-7.92c7.35-5.47,13.72-11.91,17.32-20.61a2.5,2.5,0,0,1,2.1-1.89c-2.41,3.06-.85,6.49-3.11,9.28-2.62,3.23-4.2,7.25-7.54,10a3.59,3.59,0,0,0-1.35,3.07c3.47.22,5-2.84,6.38-4.71,4.37-5.72,8.59-11.68,10.43-18.87,1-3.83,1.92-7.68,2.88-11.51-.68,15.15-.29,30.28,0,45.41a47.41,47.41,0,0,1-4.4,21.91l-.45.52-.18.12c-3.58.47-5.42,3.55-8.07,5.41-.07,1.08,3-1.76,1.46,1.18a4.24,4.24,0,0,0-1.16.35c-.45.29-1.28.14-1.29,1,0,.07.1.14.16.22a12.9,12.9,0,0,1-1.08.74c-4.45,2.52-9.45,2.82-14.34,3.51a213.3,213.3,0,0,1-48.44,1c-5-.44-9.8-1.81-14.71-2.66C11,455,5.92,448.83,3.23,440.24c-2.25-7.16-2.5-14.56-1.9-22,.33-4.15.34-8.33.49-12.5.23-1.11.68-2.2.18-3.35,0-.83.07-1.65.1-2.48l0-1.13ZM37.06,422l1.24.6a35.62,35.62,0,0,0,14.57,4.64,19.86,19.86,0,0,0-4.56-1.41c-3.57-.43-6.4-3.07-10-3.2-.1-.86-.65-.75-1.24-.59-.07-1.15-.83-1.35-1.78-1.29a.66.66,0,0,0-.8-.59c-.11,0-.19.2-.29.3l1.07.32C35.57,421.55,36.34,421.72,37.06,422Zm45.32-2.41c1.88-.56,1.88-.56.74-3.4-1.15.92-.31,2.29-.79,3.33l-1.07.32c.09.1.17.29.28.3A.69.69,0,0,0,82.38,419.56Zm-52,31.87c1.95,2.85,3.22,3.15,4.56,1.19C33.28,453,32,452,30.35,451.43ZM97.85,454c0,.07-.12.15-.1.19s.13.13.2.2l.11-.39Z"/>
    <path class="cls-2" d="M88.87,86.19c-1.24,1.14-2.82-2.65-3.83.68-.63-1.09-.15-1.66.12-2.4-.32.08-.58.11-.81.19-3.32,1.09-4.51-1.47-6-3.5-.66-.91-1-2.21-2.69-1.29-1.46.78-3-.51-4.66-.39-2.62.19-3.89.75-3.36,3.53l0-.05c-2.92-.65-5.65-1.75-8.86-.37a4.7,4.7,0,0,1-5.72-1.15c-.78-1-2.44.78-3.92-.47-.83-.7-2.42.29-3.28,1.74-.65,1.09-2.46,1.2-3.25,2.47-.07.11-.59.09-.77,0-2.64-1.84-3.18-1.82-6.29.27-.32.22-.68.39-1,.59a51.86,51.86,0,0,1,.77-11.06c.91-.58,2.72.67,2.86-1.6.42-6.77.58-13.57,1.6-20.3-1.28,2.72-.56,5.91-2,8.93-.62-3.39.64-6.56-.71-9.55A75.45,75.45,0,0,1,39.2,33.37c.23.92.82,1.66,1.71,1.09,1.09-.7,2.77-.89,2.79-2.82,0-1.2-.29-2.67,1.63-3.07,2.1-.44,4.14-1.16,6.87-1.95-1.76-.56-2.54-2-4-.84-.4.31-.75.16-1-.24C45.51,22.93,42.5,22,40.3,20.06a1,1,0,0,1,.46-1.32l2.68,0c3.74.95,5.08-.45,4.68-4.88,3.29-1.32,6.77-.59,10.15-.89,5.29-.47,10.34,1.45,15.51,2.19,3.49.49,7.33.48,9.34,4.35a1.29,1.29,0,0,0,1.64.42,1.9,1.9,0,0,1,.69,1.74c-.64-.2-1.89-1.13-1.64.3.29,1.64-.13,1.32-1.19,1.09a30.48,30.48,0,0,0-3.31-.38L82,21.28a5.58,5.58,0,0,1-1.74-2.51c-.13-.45-1.06-1.16-1.27-.33-.4,1.61-2,2-2.66,3.33,0-.87-.17-1.57-1.22-1.78a73.88,73.88,0,0,0-24.86-.82c-.81.11-1.64.15-1.32,1.45.22.91-.36,2.11,1.11,2.41a16.36,16.36,0,0,0,3,.53c7.2.1,14.4.21,21.6.15,1.45,0,3.23.59,3.53,1.23,1.27,2.76,3.87,2.75,6.08,3.61,1.38,10.47,1.74,21,2.45,31.55C87.22,68.8,88.11,77.49,88.87,86.19ZM80.61,65.37c-.53,3.09.5,6.07.59,9.12,0,1.55,1.29,1.66,2.45,1.62,1.51-.06,1.19-1.29,1-2A15.59,15.59,0,0,1,84.21,68a55.35,55.35,0,0,0,.06-11.22c-.36-4.42-3.18-8.44-2-13.08.29-1.07.38-2.18.59-3.27a2.82,2.82,0,0,0-2.46-3.54c-2.23-.27-.89,1.75-1,2.66-.47,3.6.67,7.09,1,10.64A93.8,93.8,0,0,1,80.61,65.37Zm-9.25,5.07a21,21,0,0,0,0,2.12c.1.58-.81,1.46.45,1.7,1.06.19,1.45-.61,1.69-1.39a2.84,2.84,0,0,0,.14-1.8c-1.41-3.06.72-6.49-1.05-9.51-.29-.5.46-.5.73-.73,2-1.69.67-3.22-.21-4.81-1.11-2-2.54-.42-3.73-.25-1,.13-2.32,6.16-1.76,7.06.1.17.33.24.46.39C70.07,65.57,70.62,68.49,71.36,70.44ZM49.87,68.07c.34.3-.34,2.15,1.39,2.54,2.23.51.67-1.55,1.41-2.17s1.28-1.82,2.1-2.51,1.07-1.12.57-2a2.52,2.52,0,0,1,.28-3.3c.92-1-.26-1.92-.87-2.59-.78-.85-1.2.3-1.62.68C50.57,61,48.54,63.6,49.87,68.07Zm27.43-38a5,5,0,0,1-3.51,2,94.79,94.79,0,0,1-15.8.66c-3.46-.21-6.88-.66-9.81-2.75-.55-.39-1-1.24-1.63-.16-.5.87.2,1.4.82,1.67a21.44,21.44,0,0,0,6,1.93c7,.73,14,.31,20.95,0C76.27,33.37,77.45,32.68,77.3,30.06ZM63.22,27.49c-2.83-2.75-5.91-2.16-8.82-2.16a.79.79,0,0,0-.78,1c.08.34.5.94.59.91C57.07,26.34,59.79,28.75,63.22,27.49ZM45.47,76.66c0,1.52.82,2.55,1.84,3.88C47.63,78.52,46.16,77.76,45.47,76.66Z"/>
    <path class="cls-3" d="M84.76,20a1.29,1.29,0,0,1-1.64-.42c-2-3.87-5.85-3.86-9.34-4.35-5.17-.74-10.22-2.66-15.51-2.19-3.38.3-6.86-.43-10.15.89-.95.54-2.37-1.13-2.74,0-.53,1.69-2,3-1.94,4.85l-2.68,0c-.09-.4,0-1-.26-1.15-3.45-1.52-2.72-4.35-2.06-7,.9-3.52,2.37-7.06,6.23-8C51.34.89,58.12-.6,65.1.24c4.23.52,8.5.81,12.64,1.92A13.13,13.13,0,0,1,87.91,15.34c0,1.46-1.16,2.06-2,2.83C85.3,18.69,84.36,18.86,84.76,20Z"/>
    <path class="cls-2" d="M34,89.73c1.13.48,1.68-1,2.91-1,0,11.45-1.35,22.62-2.91,33.76-1.55,11-1.24,22.23-5.08,32.85-1-3.34.46-6.49.57-9.75.18-5,.68-9.92,1-14.88.05-.86.31-1.88-.71-2.47.06-5.87,1.28-11.63,1.82-17.45C32.27,103.75,33.2,96.75,34,89.73Z"/>
    <path class="cls-3" d="M79.31,22.71a30.48,30.48,0,0,1,3.31.38c1.06.23,1.48.55,1.19-1.09-.25-1.43,1-.5,1.64-.3,1.7,2.68.4,4.8-1.27,6.85-2.21-.86-4.81-.85-6.08-3.61-.3-.64-2.08-1.24-3.53-1.23-7.2.06-14.4-.05-21.6-.15A16.36,16.36,0,0,1,50,23c-1.47-.3-.89-1.5-1.11-2.41-.32-1.3.51-1.34,1.32-1.45A73.88,73.88,0,0,1,75.06,20c1,.21,1.22.91,1.22,1.78l-.06.06-2,.15c.62.32,1,1.35,1.91.79l1.24,0,.72.06ZM49.43,21.49a3.9,3.9,0,0,0,.57.63c.44.31.49-.16.43-.35a1.13,1.13,0,0,0-.53-.53C49.83,21.2,49.62,21.38,49.43,21.49Z"/>
    <path class="cls-3" d="M40.3,20.06c2.2,1.94,5.21,2.87,6.88,5.48.25.4.6.55,1,.24,1.48-1.18,2.26.28,4,.84-2.73.79-4.77,1.51-6.87,1.95-1.92.4-1.62,1.87-1.63,3.07,0,1.93-1.7,2.12-2.79,2.82-.89.57-1.48-.17-1.71-1.09l.36-1.21c.37,0,.6-.15.5-.57a1.83,1.83,0,0,1,0-2.39A2.38,2.38,0,0,0,40,26.4C38.35,24.22,38.8,22.1,40.3,20.06Z"/>
    <path class="cls-3" d="M103.73,187c-3.3-2.45-5.41-6-8.35-8.83a1.5,1.5,0,0,1-.34-1.13c.68-4.61-.28-9.29.66-13.88,1.94,7.49,4,14.94,7.63,21.83C103.66,185.65,104.07,186.26,103.73,187Z"/>
    <path class="cls-3" d="M37.13,52.42c1.35,3,.09,6.16.71,9.55,1.4-3,.68-6.21,2-8.93-1,6.73-1.18,13.53-1.6,20.3-.14,2.27-2,1-2.86,1.6.11-1.17.22-2.35.34-3.52l.12-1.9Q36.46,61,37.13,52.42Z"/>
    <path class="cls-2" d="M101.39,452.51c1.57-2.94-1.53-.1-1.46-1.18,2.65-1.86,4.49-4.94,8.07-5.41C106.81,450.09,104.75,452.15,101.39,452.51Z"/>
    <path class="cls-3" d="M108.71,196.19c-1.67-1.81-3.54-3.53-2.78-6.39Q107.32,193,108.71,196.19Z"/>
    <path class="cls-2" d="M2,402.37c.5,1.15,0,2.24-.18,3.35C-.16,406,0,404.46,0,403.36,0,401.86,1.24,402.53,2,402.37Z"/>
    <path class="cls-2" d="M35.8,69.52l-.12,1.9-1.45.26C34.08,70.47,34.79,69.89,35.8,69.52Z"/>
    <path class="cls-2" d="M34.18,87.23A1.12,1.12,0,0,1,34,88.48Z"/>
    <path class="cls-2" d="M2.12,398.76l0,1.13C1.61,399.51,1.59,399.13,2.12,398.76Z"/>
    <path class="cls-2" d="M40.06,31.59c.1.42-.13.56-.5.57Z"/>
    <path class="cls-2" d="M108.18,445.8l.45-.52Z"/>
    <path class="cls-3" d="M5.28,246.8c-.3.23-.32.47,0,.73C5.26,247.29,5.27,247,5.28,246.8Z"/>
    <path class="cls-1" d="M18.08,395.39c-2.64-2.49-3.15-6.29-5.52-8.94l0,.07c-.08-.53-.17-1-.25-1.58a128.76,128.76,0,0,1-2.44-13.37c-.33-2.83-.25-5.64-.34-8.47,0-.87,0-1.31,1.09-.8.57.26.83-.65.53-1-2.73-3.27-1.07-7-1.09-10.5-.06-11,0-22,0-33,0-10,3.14-19.31,6.71-28.49.15-.38.36-.74.67-1.36,1.29,2.91.27,5.42.63,7.49a53.88,53.88,0,0,1,.4,11.74c-.16,3.42,1.07,7.13-1.26,10.31,2.06,2.15.63,4.58.61,6.91-.05,5.5,0,11,0,16.49,0,.75-.79,2,1.39,1.57,1.78-.32-.14,1.9.72,2.7-1.58.63.1,2-.64,2.82l-1.47.88,1.26.46.44,1.55c-1.11.45-.94,1.43-1,2.33-.1,5.63,0,11.24-.83,16.87-.36,2.29.84,4.91.43,7.43C17.28,383.45,19.94,389.44,18.08,395.39Z"/>
    <path class="cls-1" d="M103.16,289.77,106.68,300c3.13,15.59,1.5,31.35,1.83,47.05.07,3.18.17,6.36.26,9.54,0,1.57,0,3.14,0,4.72l0,.72c0,9.22-.5,18.34-4.35,26.93-.88-1.8-1.72-3.42-.44-5.6.86-1.46.15-3.22-.95-4.77a5.32,5.32,0,0,1-.49-4,13.64,13.64,0,0,0,.29-7.09c-.4-2.08.89-4.45.34-6.75-.44-1.8-1.9-3.72,1-4.91.25-.11.21-1.36,0-2-.66-2.31-.67-2.85,0-4.49a5.76,5.76,0,0,0,.19-1.45c.46-.28.79-.64.59-1.22,0-.1-.27-.14-.41-.2,0,.48-.09,1-.14,1.45-1.13-1.73-2.87-3.38-.71-5.55a1.38,1.38,0,0,0,.23-.83c-2.8-1.18,1-3.95-1.25-5.23,1.67-3.66-.47-7.27-.13-11s.94-7.68,0-11.42c-.68-2.81.7-5.36.2-8.22-.66-3.73-.18-7.66-.21-11.51C102.57,292.7,102.34,291.17,103.16,289.77Z"/>
    <path class="cls-1" d="M9.3,292.56c-2.06-.84-1.55-2.27-1.46-3.37C8.59,280.08,9,271,9,261.82c0-2.05,0-4.18,1-5.91.73-1.19-.69-1.88-.28-2.4,2.07-2.64-.71-5-.28-7.67a33.22,33.22,0,0,0,.19-11.13,6,6,0,0,1,.11-2.43c.45-1.88,1.32-4.36,3.09-4.3,1.43.05,1.5,2.74,1.5,4.47,0,10.2,0,20.41,0,30.61,0,4.06.27,8.11.57,12.16.22,3.07-.79,5.64-2.21,8.31S10.43,289.5,9.3,292.56Z"/>
    <path class="cls-3" d="M54.63,262a15.89,15.89,0,0,0,9.11.17,1.39,1.39,0,0,1,1.81,1.74c-.8,3.84,0,7.71-.29,11.56a9.6,9.6,0,0,1-2.55,6.32c-2.88,3-7.12,1.93-8.71-2-1.13-2.81-.11-5.7-.85-8.53-.52-2,0-4.21-.66-6.32C52,263.24,53,262.26,54.63,262Zm5.43,8c-.7.82-3.46-.23-2.49,1.76a7.41,7.41,0,0,1,.38,6,1.06,1.06,0,0,0,.7,1.47,1.09,1.09,0,0,0,1.41-.82c.45-1.66,1.26-3.38,1.11-5-.15-1.78.84-4.24-1.78-5.23a15.13,15.13,0,0,0-2.26-.5,2.38,2.38,0,0,0-.13.85c.27,1.08,1.23.29,1.8.61S59.82,269.31,60.06,270Z"/>
    <path class="cls-3" d="M93.13,335.29c-.11,2.23-.26,4.45-.31,6.68,0,1.08-.26,1.74-1.52,1.73s-2-.21-2-1.62c.06-5.27.09-10.55.15-15.83,0-.76.21-1.42,1.16-1.47a2,2,0,0,1,2.12,1.36c1.22,2.75,2.51,5.48,4,8.81,1.1-3,.26-5.52.59-7.92.13-.91-.46-2.09,1.29-2.11,1.48,0,1.94.53,1.91,2-.09,5-.09,10-.12,14.94,0,.8.1,1.7-1,2-1.23.3-1.47-.66-1.91-1.49-1.31-2.49-2.28-5.16-4-7.42-.15-.12-.39-.37-.43-.35C92.82,334.76,92.88,335,93.13,335.29Z"/>
    <path class="cls-3" d="M42.31,334.42c-.38,2.16-.43,4.32-1.67,6.19s-2.92,3.08-5.35,2.78a5.37,5.37,0,0,1-4.86-4,17.72,17.72,0,0,1,.12-10.52c.83-2.65,2.55-4.34,5.59-4.26A5.23,5.23,0,0,1,41.56,329,54.54,54.54,0,0,1,42.31,334.42Zm-4,.27a14.6,14.6,0,0,0-.84-6c-.26-.76-.8-1.51-1.76-1.4a1.89,1.89,0,0,0-1.5,1.38,12,12,0,0,0-.7,6c.37,2.15-.21,5.7,2.62,5.63C38.53,340.24,38.22,336.87,38.32,334.69Z"/>
    <path class="cls-3" d="M57.56,343.74c-.61,0-1.22,0-1.83,0-1.42.12-1.7-.73-1.69-1.89s.59-1.38,1.7-1.52c1.45-.19,3.67.75,4.15-1.36.41-1.8-1.59-2.59-2.74-3.68a13.7,13.7,0,0,1-2.42-2.7,5.23,5.23,0,0,1,4.18-8c1.28-.09,2.53.27,3.87.07s2.06.71,1.87,2.11c-.22,1.58-1.33,1.42-2.25.87a1.5,1.5,0,0,0-2.3.61,1.8,1.8,0,0,0,.51,2.44c.82.77,1.64,1.53,2.48,2.26,2.22,1.93,3.17,4.37,2.13,7.11s-3.4,3.61-6.14,3.73c-.5,0-1,0-1.52,0Z"/>
    <path class="cls-3" d="M78.88,335c0-1.91-.07-2.93,0-3.94.17-2-1-4.84.54-5.81,2.12-1.35,5.12-.34,7.74-.45.92,0,1.18.58,1.18,1.41a1.16,1.16,0,0,1-1.29,1.32c-.61,0-1.22,0-1.83,0-1.13.08-2.69-.36-2.57,1.6.08,1.43-.89,3.55,1.94,3.48a1.12,1.12,0,0,1,1.3,1.29c0,1-.68,1-1.44,1.14-3.59.41-1.53,3.14-1.73,4.75-.22,1.84,1.29,1.71,2.76,1.48,1-.15,2.72-.95,2.78,1.14,0,1.92-1.58,1.16-2.51,1.19-6.64.19-6.64.16-6.78-6.47C79,336.12,78.89,335.11,78.88,335Z"/>
    <path class="cls-3" d="M43.3,334a29.81,29.81,0,0,1,.07-5.18c.27-1.5-1.63-4.26,2-4.21,3.38.05,1.74,2.63,1.87,4.06a51.82,51.82,0,0,1,.06,8.54c-.19,2.64.57,3.84,3.35,3.22a4,4,0,0,1,1.51,0c.78.13.84.79.85,1.41s.09,1.48-.87,1.69a8,8,0,0,1-1.21.12c-7.65.39-7.65.39-7.64-7.21C43.31,335.64,43.31,334.82,43.3,334Z"/>
    <path class="cls-3" d="M70.45,335.42c0-1.52,0-3.05,0-4.57.09-1.91.31-3.81-2.63-3.43a1.15,1.15,0,0,1-1.39-1.23c0-.94.43-1.6,1.42-1.6,3,0,5.89.1,8.83.15.9,0,1.22.49,1.19,1.37s-.41,1.46-1.25,1.37c-2.6-.27-2.33,1.46-2.32,3.12,0,3.66,0,7.31,0,11,0,1.29-.2,2.08-1.79,2.11s-2.12-.66-2.06-2.18c.08-2,0-4.05,0-6.08Z"/>
    <path class="cls-3" d="M59.09,381C57,382.45,55,381,53,381l.61-.61.61-.61a.82.82,0,0,0,.23-.11s0-.11,0-.17l-.22.32a.58.58,0,0,0-.61.61L53,381c-2.82,1-5.6-.37-8.42-.12.79-3.56,3.83-3.5,6.24-3.24,4.91.53,9.8-.23,14.69.23.79.08,1.64-.2,2.18.67l-.63.62-.61.61a1.51,1.51,0,0,0-.22.11s0,.11,0,.17l.22-.32a.58.58,0,0,0,.61-.6l.62-.62c.85-.21,1.62-.89,2.58-.42a8.39,8.39,0,0,1-11.17,2.86A3.19,3.19,0,0,0,61.18,379C60.09,379.37,59.77,380.37,59.09,381ZM48.2,380c-.16-.56-.23-.9-.61-.67a1.11,1.11,0,0,0-.52.62c-.06.3.18.52.53.38A5.34,5.34,0,0,0,48.2,380Z"/>
    <path class="cls-3" d="M28.51,334.05c0,2.24,0,4.48,0,6.72,0,1.26.14,2.4-1.76,2.47s-1.73-1-1.88-2.31c-.23-2,1.11-4.53-1.53-6-.14-.07-.12-.89.08-1.05,2.45-2,1.3-4.68,1.5-7.09.1-1.25.18-2.12,1.79-2.16s1.85.78,1.83,2.08c-.05,2.44,0,4.89,0,7.33Z"/>
    <path class="cls-3" d="M76.09,360.35c.47,1.72,1.81,1.62,2.37.51,1-2.05,2.36-2,4.23-1.63,1.53.28,3.15-.67,5,.19-2,2-.92,4.84-1.69,7.62-1.4-1.74-.83-3.33-1-4.77A2.32,2.32,0,0,0,83.78,360a2.55,2.55,0,0,0-2.77.6c-1.86,1.78,1.22,1.31,1.25,2.34-2.22,1.57-2.22,1.57.31,3.17-2.64,1-2.67,1-4-2.07-.16,2.24-1.38,2.37-2.83,2.16s-1.08-1.51-1.16-2.4a27.94,27.94,0,0,1,0-3.66c0-.63.24-1.23,1.08-1.15.69.06,1.91,0,2,.25.34,1.29-.74.71-1.32.8-.08-.41-.28-.67-.73-.47a.65.65,0,0,0-.18.39A7.3,7.3,0,0,0,76.09,360.35Zm3,2.85c-.06-.43-.18-.71-.57-.56a.77.77,0,0,0-.33.43c-.12.31,0,.62.34.59S78.89,363.34,79,363.2Z"/>
    <path class="cls-3" d="M66.45,311.82c-2.79,1.87-6,1.08-9,1.23a51.94,51.94,0,0,1-6.43-.47c1.48-1.92,2.06-3.79,5.39-3.79,3.57,0,7.18.36,11.09,0-.29,1.17-1.25,2-1.11,3.09Z"/>
    <path class="cls-3" d="M56.65,360.58c-.45,2.16-1.67,4.88,2.56,3.89-.71,2.72-2.64,2.15-4.19,1.95-1.8-.22-.64-1.73-.81-2.63-.27-1.46.81-2.89.08-4.46-.3-.64.49-1.1,1.14-1,1.48.2,3.13.23,3.73,2,.13.39-.1.91,0,1.48.47-1.63.08-4.05,3-3.35a2.77,2.77,0,0,1,1.09.53c1.81,1.52-3.24,1-.84,2.85,1.44,1.11,1.36,1.22-.79,2.49.34,1,2.59.14,2.07,1.93-.23.8-1.14.71-1.85.71-1.27,0-2.44-.42-2.2-1.85C60,362.59,56.87,362.6,56.65,360.58Z"/>
    <path class="cls-3" d="M37.38,366.41c-.64-2-1.25-3.88-1.89-5.78-.21-.61-.27-1.6-1.34-1s-2.68-.21-2.87,1.07c-.3,2,1.91,1.14,2.87,1.84-.25,1.09-1.59.26-1.91,1.3,0,1.16,1.88.55,2.08,1.95-1.27.56-2.58,1-3.62-.4-.81-1.13-.27-6.56.58-6.88,1.5-.55,3,0,4.48.24,1.72.25.8,2.8,2.25,3.64.82-1.14.44-2.83,1.74-3.76C40.49,360.89,39.47,364.31,37.38,366.41Z"/>
    <path class="cls-1" d="M12,397.47c-2.25-3.65-3.39-7.8-5.25-11.61-1-1.95,0-3.41.36-5.13.53-2.9-1.09-5.78-.39-9,1.1,7.44,2.37,14.61,6.11,21.1.84,1.46-1.63,2.87-.86,4.64Z"/>
    <path class="cls-3" d="M104.4,389c3.85-8.59,4.38-17.71,4.35-26.93l.54-.66,0,0a69.55,69.55,0,0,1-2.14,23.86,13.5,13.5,0,0,1-1.38,4C105,390.46,104.72,389.63,104.4,389Z"/>
    <path class="cls-3" d="M25.11,358.45c1.71.18,1.52,1.72,2.53,2.1,1.2-.23-.12-2.37,1.37-2.06,1.15.24.48,1.54.6,2.37a8.28,8.28,0,0,1,0,2.11c-.14,1,.54,2.58-.69,3s-.85-1.65-2-2c-1.06.17.05,2.06-1.18,1.88-1.42-.22-.54-1.49-.6-2.25C25,362,25.11,360.29,25.11,358.45Z"/>
    <path class="cls-3" d="M66.42,311.86c3.3-3,3.3-3,10-2.71-2,3.67-5.9,4.7-10,2.67Z"/>
    <path class="cls-3" d="M47.76,363.93l-.89,2.33c-.35-.4-.67-.6-.68-.8-.06-1.72-.07-3.44-.08-5.17,0-1,.09-1.86,1.43-1.81,1.15,0,2.33,0,2.47,1.58.09,1,.08,2,.13,3s1,2.52-.24,3C48.3,366.7,49.43,364.13,47.76,363.93Z"/>
    <path class="cls-3" d="M92.73,362.82c.82-1.09-1.09-3.5,1.49-3.52s2.45,2.16,2.46,4-.13,3.57-2.37,3.38C91.6,366.49,93.46,364.13,92.73,362.82Zm3.13.39c-.1-.85.23-2.25-1.08-2.39s-.85,1.18-.81,1.89c0,.91-.56,2.35.91,2.5C95.93,365.32,95.82,364.13,95.86,363.21Z"/>
    <path class="cls-3" d="M81,345.63c-.52,2.33-1.56,4-.68,5.95.19.43-.86,1.18-1.28.74A7.2,7.2,0,0,1,77,347.7c-.1-1.83,1.4-2.24,2.83-2.6C80.8,344.86,81,345.33,81,345.63Z"/>
    <path class="cls-3" d="M19.4,348c.74-.82-.94-2.19.64-2.82,2.71-.17,3.3,1.78,3.27,3.74,0,2.44-2.29,1.57-3.68,2-.15-.52-.3-1-.44-1.55Z"/>
    <path class="cls-3" d="M39.06,348.93c-.45-1.49-.58-3.08,1.35-3.25,1.69-.14,2.43,1.31,2.38,2.86s-.17,3-2.31,3.09C38,351.72,39.28,349.93,39.06,348.93Z"/>
    <path class="cls-3" d="M92,359.49c-2.1,1.24-3.89,2.32-.36,3.48-.13,1.27-1.93.32-1.91,1.61s1.47.83,2.09,1.72c-1,.74-2.42.95-2.85.07a9.64,9.64,0,0,1-.24-6.53C89.12,358.42,90.71,359.31,92,359.49Z"/>
    <path class="cls-3" d="M29.09,348.48c-.62-1.51-.54-2.82,1.3-2.93,1.58-.09,2.31,1.11,2.38,2.6s0,2.63-1.82,2.87C28.59,351.33,28.82,349.9,29.09,348.48Z"/>
    <path class="cls-3" d="M44.93,358.86c-.36,1.46-2.23.67-2.22,2.1s1.5.71,2.2,1.58c-1.67.94-4.49,2.11.47,3-1.51,1-3.06,1.18-3.54.26-1-2-.75-4.44-.24-6.54C41.91,358,43.58,358.42,44.93,358.86Z"/>
    <path class="cls-3" d="M67.27,348.42c.38-1.06-.74-2.94,1.51-2.94,2.56,0,2.66,2,2.81,3.85s-1.39,2.09-2.61,2.16C66.52,351.63,67.63,349.6,67.27,348.42Z"/>
    <path class="cls-3" d="M90.27,348.58c-.12.42-.29,1.1-.5,1.77-.29.89-.21,2.31-1.75,1.84-1.21-.36-.46-1.38-.23-2,.41-1.1-.79-1.71-.65-2.51s-1.39-2.18.29-2.47a2.18,2.18,0,0,1,2.68,1.87C90.16,347.49,90.2,347.9,90.27,348.58Z"/>
    <path class="cls-3" d="M73.74,359.57c-.64,1-2.18.18-2.24,1.51s1.12.79,1.77,1.09.5,1.24.29,1.2c-2.76-.48-1.26,3.4-3.42,3.28-.53,0-.25-.83-.23-1.31a31.57,31.57,0,0,0,0-3.64C69.64,358.43,70.15,358.11,73.74,359.57Z"/>
    <path class="cls-3" d="M99.35,351.44c-2.56.33-4.19.11-3.58-2.57.23-1-.81-2.9,1.27-2.7C100.83,346.53,98.13,349.72,99.35,351.44Z"/>
    <path class="cls-3" d="M48.91,346.1a4.44,4.44,0,0,1,2.91-.7,3,3,0,0,1,.61,0c.76.19,1.49,1.27,1.09,1.36-2.49.55.22,3.84-2.29,4.08-1.1.11-.83-.93-.85-1.57C50.33,348.12,50.53,346.88,48.91,346.1Z"/>
    <path class="cls-3" d="M60.51,291.86c-2.28.84-1.58-1.54-1.81-2.31s1.25-1.35,2-2c.14,1.06,2.48,1.11,1.62,1.91S63.26,292.75,60.51,291.86Z"/>
    <path class="cls-3" d="M49,309c-1.18,1.16-1.54,3.38-4.28,3.39C46.09,310.9,46.73,309.14,49,309Z"/>
    <path class="cls-1" d="M44.43,400.23c-.92,1.14-1.29,2.37-2.51,2.36-.64,0-.65-1-.52-1.49C41.78,399.52,43,400,44.43,400.23Z"/>
    <path class="cls-3" d="M52.61,308.83c-1.65,1.36-1.83,3.54-4.57,3.67C49.41,310.91,49.69,308.84,52.61,308.83Z"/>
    <path class="cls-1" d="M97.68,288.25a3.16,3.16,0,0,1,0,3.42c-.27.41-.8.18-1-.19C96.19,290.2,97.05,289.27,97.68,288.25Z"/>
    <path class="cls-1" d="M82.12,380.59a1,1,0,0,1-1.3.9c-.52-.07-1-.34-.8-1s.64-.71,1.17-.73S82.18,379.9,82.12,380.59Z"/>
    <path class="cls-3" d="M108.78,361.31c0-1.58,0-3.15,0-4.72,1.07,1.52.28,3.22.49,4.82l0,0A.41.41,0,0,0,108.78,361.31Z"/>
    <path class="cls-1" d="M12.58,398.12c.5.27,1.05.51.94,1.27-.75-.15-.73-.79-.91-1.3Z"/>
    <path class="cls-3" d="M12.36,384.94c.08.53.17,1.05.25,1.58C12.52,386,12.44,385.47,12.36,384.94Z"/>
    <path class="cls-1" d="M12,397.5l.62.62,0,0-.62-.62Z"/>
    <path class="cls-2" d="M77.94,254.44c-2.82,0-5.07-1.91-7.8-2.22-1.08-.12-2-.62-3.15.17-.91.62-.92-1.31-2.26-1.17-2.82.27-5.71-.21-8.53.06-6.22.61-12.27,1.93-17.46,5.73-.69.5-1.5.06-2.27.53s-.5-.52-.56-.93-.5-.94.07-.94c4.55,0,8.14-3,12.42-3.87a57,57,0,0,1,27.71,1.13,8.3,8.3,0,0,1,2,1.3Z"/>
    <path class="cls-2" d="M78.14,254.23c4.29,1.53,8.55,3.11,11.65,6.71l-.29.26-11.56-6.76Z"/>
    <path class="cls-2" d="M49.64,114c-.59,0-1.24-.27-1.08-1.24a1.32,1.32,0,0,1,1.59-1.09c.69.11,1.83.13,1.67,1.25C51.67,113.86,50.71,114,49.64,114Z"/>
    <path class="cls-2" d="M79.28,258.6l-10-3.29c3.63.27,7.25.56,10.07,3.18Z"/>
    <path class="cls-2" d="M42.5,257.88a16.2,16.2,0,0,1,8.74-2.67Z"/>
    <path class="cls-2" d="M67.64,83a5.4,5.4,0,0,1,3.54.59c-1.66,0-2.83,1.71-3.5-.64Z"/>
    <path class="cls-2" d="M95,266.22a3.37,3.37,0,0,1-2.42-2.47,2.11,2.11,0,0,1,.21-.31,6,6,0,0,1,2.46,2.44C95.16,266,95.08,266.1,95,266.22Z"/>
    <path class="cls-2" d="M90.43,261.53a4.37,4.37,0,0,1,2.36,1.91,2.11,2.11,0,0,0-.21.31,3.26,3.26,0,0,1-2.39-2A1.88,1.88,0,0,1,90.43,261.53Z"/>
    <path class="cls-2" d="M28.54,267.19c-.18-1.09.37-1.59,1.45-1.82-.14,1-.88,1.34-1.48,1.78Z"/>
    <path class="cls-2" d="M26.7,269c-.2-1.43.46-2,1.84-1.83l0,0L26.66,269Z"/>
    <path class="cls-2" d="M27.9,263.49a1,1,0,0,1,.81-1c.06,0,.22.14.21.15a1.17,1.17,0,0,1-1,.8Z"/>
    <path class="cls-2" d="M26.08,269.63c-.08-.5.12-.7.62-.61l0,0-.62.62Z"/>
    <path class="cls-2" d="M89.79,260.94l.64.59a1.88,1.88,0,0,0-.24.25l-.69-.58Z"/>
    <path class="cls-2" d="M38.27,422.6c3.64.13,6.47,2.77,10,3.2a19.86,19.86,0,0,1,4.56,1.41,35.62,35.62,0,0,1-14.57-4.64Z"/>
    <path class="cls-2" d="M44.43,422l8,2.21c-3.42,1.6-5.5-1-8-2.25Z"/>
    <path class="cls-2" d="M30.35,451.43c1.67.53,2.93,1.52,4.56,1.19C33.57,454.58,32.3,454.28,30.35,451.43Z"/>
    <path class="cls-2" d="M82.33,419.49c.48-1-.36-2.41.79-3.33,1.14,2.84,1.14,2.84-.74,3.4Z"/>
    <path class="cls-2" d="M44.45,421.91c-1.82.33-3.39,0-4.29-1.82l0,0a13.73,13.73,0,0,1,4.3,1.82Z"/>
    <path class="cls-2" d="M34.63,417.07l4.26,2.45,0,0A4.46,4.46,0,0,1,34.65,417Z"/>
    <path class="cls-2" d="M34.65,417A3.84,3.84,0,0,1,31,414.6l0,0a13.16,13.16,0,0,1,3.69,2.44Z"/>
    <path class="cls-2" d="M35.25,420.72c1-.06,1.71.14,1.78,1.29l0,0c-.72-.25-1.49-.42-1.83-1.22Z"/>
    <path class="cls-2" d="M82.38,419.56a.69.69,0,0,1-.84.55c-.11,0-.19-.2-.28-.3l1.07-.32Z"/>
    <path class="cls-2" d="M35.23,420.75l-1.07-.32c.1-.1.18-.29.29-.3a.66.66,0,0,1,.8.59Z"/>
    <path class="cls-2" d="M38.89,419.52l1.24.61,0,0c-.59.17-1.15.28-1.24-.6Z"/>
    <path class="cls-2" d="M37,422c.59-.16,1.14-.27,1.24.59l0,0-1.24-.6Z"/>
    <path class="cls-1" d="M97.85,454h.21l-.11.39c-.07-.07-.16-.12-.2-.2S97.81,454.07,97.85,454Z"/>
    <path class="cls-1" d="M80.61,65.37a93.8,93.8,0,0,0-.16-15.18c-.34-3.55-1.48-7-1-10.64.12-.91-1.22-2.93,1-2.66a2.82,2.82,0,0,1,2.46,3.54c-.21,1.09-.3,2.2-.59,3.27-1.23,4.64,1.59,8.66,2,13.08A55.35,55.35,0,0,1,84.21,68a15.59,15.59,0,0,0,.42,6.06c.21.76.53,2-1,2-1.16,0-2.4-.07-2.45-1.62C81.11,71.44,80.08,68.46,80.61,65.37Z"/>
    <path class="cls-3" d="M71.36,70.44c-.74-2-1.29-4.87-3.27-7.22-.13-.15-.36-.22-.46-.39-.56-.9.81-6.93,1.76-7.06C70.58,55.6,72,54,73.12,56c.88,1.59,2.24,3.12.21,4.81-.27.23-1,.23-.73.73,1.77,3-.36,6.45,1.05,9.51a2.84,2.84,0,0,1-.14,1.8c-.24.78-.63,1.58-1.69,1.39-1.26-.24-.35-1.12-.45-1.7A21,21,0,0,1,71.36,70.44Z"/>
    <path class="cls-3" d="M49.87,68.07c-1.33-4.47.7-7,3.26-9.36.42-.38.84-1.53,1.62-.68.61.67,1.79,1.55.87,2.59a2.52,2.52,0,0,0-.28,3.3c.5.89.18,1.38-.57,2s-1.27,1.82-2.1,2.51.82,2.68-1.41,2.17C49.53,70.22,50.21,68.37,49.87,68.07Z"/>
    <path class="cls-3" d="M77.3,30.06c.15,2.62-1,3.31-3,3.39-7,.29-14,.71-20.95,0a21.44,21.44,0,0,1-6-1.93c-.62-.27-1.32-.8-.82-1.67.61-1.08,1.08-.23,1.63.16,2.93,2.09,6.35,2.54,9.81,2.75a94.79,94.79,0,0,0,15.8-.66A5,5,0,0,0,77.3,30.06Z"/>
    <path class="cls-1" d="M43.44,18.77c0-1.86,1.41-3.16,1.94-4.85.37-1.16,1.79.51,2.74,0C48.52,18.32,47.18,19.72,43.44,18.77Z"/>
    <path class="cls-3" d="M63.22,27.49c-3.43,1.26-6.15-1.15-9-.21-.09,0-.51-.57-.59-.91a.79.79,0,0,1,.78-1C57.31,25.33,60.39,24.74,63.22,27.49Z"/>
    <path class="cls-1" d="M79.31,22.71l-1.23.1c-.22-.32-.45-.36-.72-.06l-1.24,0c0-.31.07-.63.1-.94l.06-.06c.61-1.31,2.26-1.72,2.66-3.33.21-.83,1.14-.12,1.27.33A5.58,5.58,0,0,0,82,21.28Z"/>
    <path class="cls-3" d="M45.47,76.66c.69,1.1,2.16,1.86,1.84,3.88C46.29,79.21,45.47,78.18,45.47,76.66Z"/>
    <path class="cls-2" d="M76.22,21.83c0,.31-.06.63-.1.94-1,.56-1.29-.47-1.91-.79Z"/>
    <path class="cls-2" d="M49.43,21.49c.19-.11.4-.29.47-.25a1.13,1.13,0,0,1,.53.53c.06.19,0,.66-.43.35A3.9,3.9,0,0,1,49.43,21.49Z"/>
    <path class="cls-2" d="M77.36,22.75c.27-.3.5-.26.72.06Z"/>
    <path class="cls-2" d="M19.4,348l-.21,1.34-1.26-.46Z"/>
    <path class="cls-2" d="M104.41,348c0-.48.09-1,.14-1.45.14.06.38.1.41.2.2.58-.13.94-.59,1.22Z"/>
    <path class="cls-2" d="M108.78,361.31a.41.41,0,0,1,.51.06l-.54.66Z"/>
    <path class="cls-2" d="M60.06,270c-.24-.67-.84-.58-1.26-.82s-1.53.47-1.8-.61a2.38,2.38,0,0,1,.13-.85,15.13,15.13,0,0,1,2.26.5c2.62,1,1.63,3.45,1.78,5.23.15,1.62-.66,3.34-1.11,5a1.09,1.09,0,0,1-1.41.82,1.06,1.06,0,0,1-.7-1.47,7.41,7.41,0,0,0-.38-6C56.6,269.75,59.36,270.8,60.06,270Z"/>
    <path class="cls-2" d="M93.13,335.29c-.25-.25-.31-.53,0-.76,0,0,.28.23.43.35Z"/>
    <path class="cls-2" d="M38.32,334.69c-.1,2.18.21,5.55-2.18,5.61-2.83.07-2.25-3.48-2.62-5.63a12,12,0,0,1,.7-6,1.89,1.89,0,0,1,1.5-1.38c1-.11,1.5.64,1.76,1.4A14.6,14.6,0,0,1,38.32,334.69Z"/>
    <path class="cls-2" d="M59.09,381c.68-.6,1-1.6,2.09-1.94a3.19,3.19,0,0,1-2.12,1.91Z"/>
    <path class="cls-2" d="M48.2,380a5.34,5.34,0,0,1-.6.33c-.35.14-.59-.08-.53-.38a1.11,1.11,0,0,1,.52-.62C48,379.08,48,379.42,48.2,380Z"/>
    <path class="cls-2" d="M53.57,380.34,53,381l0,0,.61-.61Z"/>
    <path class="cls-2" d="M66.42,379.72l-.22.32c0-.06,0-.14,0-.17a1.51,1.51,0,0,1,.22-.11Z"/>
    <path class="cls-2" d="M54.18,379.73l-.61.61,0,0a.58.58,0,0,1,.61-.61Z"/>
    <path class="cls-2" d="M67,379.12a.58.58,0,0,1-.61.6l0,0,.61-.61Z"/>
    <path class="cls-2" d="M54.22,379.77l.22-.32c0,.06,0,.14,0,.17a.82.82,0,0,1-.23.11Z"/>
    <path class="cls-2" d="M67.65,378.5l-.62.62,0,0,.63-.62Z"/>
    <path class="cls-2" d="M79,363.2c-.15.14-.34.44-.56.46s-.46-.28-.34-.59a.77.77,0,0,1,.33-.43C78.86,362.49,79,362.77,79,363.2Z"/>
    <path class="cls-2" d="M76.09,360.35a7.3,7.3,0,0,1-.68-.36.65.65,0,0,1,.18-.39c.45-.2.65.06.73.47A3.11,3.11,0,0,0,76.09,360.35Z"/>
    <path class="cls-2" d="M95.86,363.21c0,.92.07,2.11-1,2-1.47-.15-.87-1.59-.91-2.5,0-.71-.36-2,.81-1.89S95.76,362.36,95.86,363.21Z"/>
  </g>
</svg>
