<svg id="Layer_1" data-name="Layer 1" xmlns="http://www.w3.org/2000/svg" width="0.32in" height="0.5in" viewBox="0 0 23.29 36.16">

  <defs>
    <style>
      #Layer_1 {

      }

    </style>
  </defs>
  <path d="M10.18.74a2.27,2.27,0,0,0-1.56,2c-.2,1.2.29,2.3,1.09,2.5s1.71-.8,1.91-2S11.33.94,10.53.74A2,2,0,0,0,10.18.74Zm4,12c-.8.11-1.3,1.2-1.1,2.5s1,2.11,1.82,2S16.2,16,16,14.79,15,12.69,14.19,12.79Zm-7.48-11c-.5.08-.91.71-1,1.5a1.46,1.46,0,0,0,.91,1.69,1.37,1.37,0,0,0,1.19-1.5c.1-.9-.28-1.59-.88-1.69A.81.81,0,0,0,6.71,1.74Zm11,12c-.6.11-1,.79-.88,1.69A1.37,1.37,0,0,0,18,17c.6-.1,1-.79.91-1.69S18.29,13.79,17.69,13.79ZM4.21,2.65c-.5,0-.9.58-.9,1.28s.4,1.31.9,1.31.91-.61.91-1.31S4.71,2.65,4.21,2.65Zm16.2,12c-.5,0-.91.58-.91,1.28s.41,1.31.91,1.31.9-.61.9-1.31S20.91,14.7,20.41,14.7ZM2.31,3.93a.92.92,0,0,0-.5,1.12c.1.61.51,1,.9.88a.87.87,0,0,0,.5-1.09C3.11,4.23,2.71,3.83,2.31,3.93ZM22.31,16c-.4-.1-.8.31-.9.91a1.1,1.1,0,0,0,.5,1.22c.39.1.8-.31.9-.91S22.71,16.08,22.31,16ZM1.31,5.34a1,1,0,0,0-.5.9c0,.5.22.91.62.91s.5-.41.5-.91S1.71,5.34,1.31,5.34Zm22,12.14c-.3,0-.62.41-.62.91s.22.81.62.81.6-.41.6-.91S23.61,17.48,23.31,17.48ZM7.62,6.34c-1.7,0-6.9.79-7,5.09s2.69,5.6,2.69,10c0,1.6,1.1,3.41,2.9,3.41,2.7,0,3.41-1.49,3.41-3.19.1-3.1-2.91-3.51-2.91-6.31,0-3.5,3.82-3.4,3.82-6.6C10.53,6.54,8.62,6.34,7.62,6.34Zm9.19,12.05c-1,0-2.9.21-2.9,2.4,0,3.11,3.78,3.1,3.78,6.6,0,2.8-3,3.11-2.88,6.31.1,1.7.68,3.19,3.38,3.19,1.9,0,2.9-1.81,2.9-3.41,0-4.4,2.92-5.7,2.72-10C23.91,19.18,18.71,18.39,16.81,18.39Z" transform="translate(-0.62 -0.73)"/>
</svg>
